<svg width="417" height="155" viewBox="0 0 417 155" fill="none" xmlns="http://www.w3.org/2000/svg">
<path d="M167.324 1.768L170.108 4.936C163.516 6.632 154.3 7.432 146.46 7.688C146.364 6.728 145.884 5.16 145.532 4.328C153.244 4.008 162.076 3.176 167.324 1.768ZM145.82 10.856H171.132V14.536H145.82V10.856ZM143.612 18.312H173.02V22.056H143.612V18.312ZM156.348 6.28H160.348V27.304C160.348 29.576 159.772 30.6 158.236 31.176C156.7 31.784 154.364 31.88 151.1 31.848C150.844 30.76 150.108 29.032 149.532 28.04C151.9 28.136 154.588 28.104 155.324 28.104C156.06 28.104 156.348 27.88 156.348 27.24V6.28ZM206.14 4.008H222.94V7.688H206.14V4.008ZM203.804 13.48H224.636V17.192H203.804V13.48ZM209.98 15.72L214.172 16.808C212.86 21 211.1 25.736 209.628 28.776L206.236 27.752C207.676 24.552 209.212 19.528 209.98 15.72ZM203.548 26.888C208.092 26.632 215.164 26.088 221.66 25.544V29.128C215.516 29.768 208.924 30.376 204.22 30.76L203.548 26.888ZM216.284 21.32L219.708 19.88C221.916 23.08 224.22 27.304 225.02 30.248L221.244 31.88C220.604 29.032 218.46 24.68 216.284 21.32ZM201.628 1.896L205.212 3.048C203.036 8.488 199.516 14.216 195.868 17.832C195.548 16.936 194.524 14.824 193.884 13.896C196.924 11.016 199.9 6.472 201.628 1.896ZM198.556 10.76L202.172 7.112L202.204 7.144V31.784H198.556V10.76ZM266.588 18.536C266.588 16.424 264.956 14.728 261.948 14.728C258.428 14.728 255.228 15.784 253.628 16.264C252.7 16.552 251.42 17.032 250.524 17.416L249.308 12.808C250.396 12.744 251.74 12.488 252.796 12.264C255.132 11.752 258.716 10.824 262.492 10.824C267.548 10.824 271.1 13.704 271.1 18.696C271.1 25.576 264.732 29.8 255.836 31.048L253.564 27.048C261.5 26.152 266.588 23.56 266.588 18.536ZM254.012 3.176C257.756 3.976 265.02 4.616 268.38 4.616L267.772 8.552C264.028 8.296 257.084 7.656 253.404 7.016L254.012 3.176Z" fill="black"/>
<path d="M363.52 82.856C363.776 81.576 364.736 80.488 366.4 79.592C368.128 78.696 369.824 78.248 371.488 78.248C373.664 78.248 374.624 79.08 374.368 80.744L373.984 82.952C373.024 88.392 372.032 93 371.008 96.776C370.048 100.488 368.544 104.104 366.496 107.624C364.512 111.144 361.888 113.928 358.624 115.976C354.4 118.664 350.08 120.008 345.664 120.008C343.04 120.008 340.576 119.464 338.272 118.376C336.032 117.288 334.144 115.592 332.608 113.288C329.92 109.32 328.576 104.776 328.576 99.656C328.576 92.744 331.04 84.744 335.968 75.656C337.632 72.52 339.36 70.024 341.152 68.168C343.008 66.312 345.312 65.192 348.064 64.808C348.32 64.744 348.672 64.712 349.12 64.712C350.144 64.712 351.04 64.904 351.808 65.288C353.728 61.064 355.2 57.896 356.224 55.784C356.672 54.824 357.728 53.992 359.392 53.288C361.12 52.584 362.72 52.232 364.192 52.232C366.112 52.232 367.072 52.84 367.072 54.056C367.072 54.312 366.976 54.696 366.784 55.208C362.368 65.96 358.784 74.312 356.032 80.264C355.584 81.288 354.528 82.152 352.864 82.856C351.264 83.56 349.696 83.912 348.16 83.912C347.136 83.912 346.304 83.752 345.664 83.432C345.024 83.112 344.704 82.6 344.704 81.896C344.704 81.448 344.832 80.968 345.088 80.456L346.528 77.192C346.208 77.128 345.92 76.968 345.664 76.712L343.744 81.224C341.952 85.128 340.768 89.032 340.192 92.936C340 94.152 339.904 95.4 339.904 96.68C339.904 99.432 340.32 102.024 341.152 104.456C341.984 106.888 343.296 108.84 345.088 110.312C346.56 111.592 348 112.232 349.408 112.232C355.04 112.232 359.744 102.44 363.52 82.856ZM413.852 111.464C414.812 111.784 415.292 112.36 415.292 113.192C415.292 114.216 414.684 115.336 413.468 116.552C412.124 117.896 410.396 118.568 408.284 118.568C407.26 118.568 406.396 118.44 405.692 118.184C402.3 117.096 399.228 116.552 396.476 116.552C391.676 116.552 386.78 118.088 381.788 121.16C380.956 121.736 379.932 122.216 378.716 122.6C377.564 122.92 376.476 123.08 375.452 123.08C374.492 123.08 373.724 122.92 373.148 122.6C372.572 122.216 372.284 121.64 372.284 120.872C372.284 120.424 372.348 120.04 372.476 119.72C374.332 114.536 375.804 109.864 376.892 105.704C378.044 101.544 378.812 97.32 379.196 93.032C379.772 87.272 380.06 83.048 380.06 80.36C380.06 73.256 378.684 67.816 375.932 64.04C375.612 63.656 375.452 63.144 375.452 62.504C375.452 61.224 376.348 60.04 378.14 58.952C379.932 57.8 381.692 57.224 383.42 57.224C384.572 57.224 385.404 57.48 385.916 57.992C386.748 58.312 387.292 58.824 387.548 59.528C389.148 63.752 391.356 67.336 394.172 70.28C396.988 73.16 400.316 74.6 404.156 74.6C404.86 74.6 405.916 74.472 407.324 74.216C408.22 74.088 408.796 74.024 409.052 74.024C410.14 74.024 410.94 74.28 411.452 74.792C412.028 75.24 412.316 75.88 412.316 76.712C412.316 77.608 411.932 78.504 411.164 79.4C410.46 80.296 409.5 80.936 408.284 81.32C405.66 82.216 403.036 82.664 400.412 82.664C397.276 82.664 394.268 82.024 391.388 80.744C391.26 84.328 391.1 87.016 390.908 88.808L390.236 94.856C392.732 94.408 395.228 94.024 397.724 93.704L399.068 93.608C401.628 93.608 402.908 94.472 402.908 96.2C402.908 97.352 402.268 98.376 400.988 99.272C399.708 100.168 398.396 100.744 397.052 101C395.068 101.384 392.348 101.8 388.892 102.248C388.188 105.384 387.42 108.328 386.588 111.08C390.812 109.544 395.1 108.776 399.452 108.776C404.252 108.776 409.052 109.672 413.852 111.464Z" fill="#EE9322"/>
<path d="M23.792 92.456L23.024 94.376L29.744 100.04L29.072 97.256C28.624 95.464 27.728 91.656 26.384 85.832L23.792 92.456ZM34.736 64.424C35.632 69.992 36.752 75.656 38.096 81.416C39.504 87.112 41.2 93.672 43.184 101.096C45.04 108.136 46.256 112.808 46.832 115.112C46.896 115.304 46.928 115.592 46.928 115.976C46.928 117.512 46.064 118.856 44.336 120.008C42.608 121.096 40.816 121.64 38.96 121.64C37.424 121.64 36.24 121.224 35.408 120.392C33.552 118.408 31.6 116.52 29.552 114.728C27.504 112.936 24.816 110.728 21.488 108.104L18.32 105.512C15.632 111.272 13.552 115.528 12.08 118.28C11.632 119.24 10.448 120.136 8.528 120.968C6.672 121.736 4.944 122.12 3.344 122.12C1.552 122.12 0.656 121.544 0.656 120.392C0.656 120.072 0.752 119.688 0.944 119.24C2.864 114.504 5.136 109.064 7.76 102.92L9.776 98.024C8.176 96.424 7.376 95.624 7.376 95.624C6.928 95.176 6.704 94.664 6.704 94.088C6.704 93 7.408 91.976 8.816 91.016C10.224 89.992 11.792 89.32 13.52 89C16.592 81.64 19.472 74.152 22.16 66.536C22.416 65.64 23.216 64.872 24.56 64.232C25.968 63.528 27.44 63.08 28.976 62.888C30.064 62.568 30.992 62.408 31.76 62.408C33.552 62.408 34.544 63.08 34.736 64.424ZM83.438 79.688C82.222 78.664 80.11 77.32 77.102 75.656C74.158 73.928 71.886 73.064 70.286 73.064C69.006 73.064 68.366 73.704 68.366 74.984C68.366 75.432 68.526 76.2 68.846 77.288C69.294 78.76 70.286 80.168 71.822 81.512C73.358 82.792 75.374 84.296 77.87 86.024C79.918 87.432 81.23 88.392 81.806 88.904C84.622 91.336 86.862 93.384 88.526 95.048C90.19 96.648 91.694 98.568 93.038 100.808C94.446 102.984 95.15 105.224 95.15 107.528C95.15 109.064 94.766 110.664 93.998 112.328C92.526 115.336 90.094 117.64 86.702 119.24C83.374 120.84 79.822 121.64 76.046 121.64C74.766 121.64 73.486 121.544 72.206 121.352C63.502 119.88 55.47 114.088 48.11 103.976C47.726 103.4 47.534 102.824 47.534 102.248C47.534 100.84 48.462 99.56 50.318 98.408C52.238 97.192 54.126 96.584 55.982 96.584C57.39 96.584 58.414 97 59.054 97.832C63.022 103.208 66.926 107.144 70.766 109.64C74.286 111.944 77.262 113.096 79.694 113.096C81.678 113.096 82.67 112.232 82.67 110.504C82.67 109.288 82.19 107.784 81.23 105.992C80.27 104.264 79.022 102.632 77.486 101.096C75.95 99.56 73.998 97.8 71.63 95.816L69.038 93.608C68.782 93.352 67.598 92.424 65.486 90.824C63.758 89.544 62.286 88.36 61.07 87.272C59.854 86.184 58.83 85 57.998 83.72C56.91 81.992 56.366 80.2 56.366 78.344C56.366 75.464 57.582 72.84 60.014 70.472C62.51 68.04 65.358 66.376 68.558 65.48C70.606 64.904 72.558 64.616 74.414 64.616C77.87 64.616 81.198 65.416 84.398 67.016C87.662 68.616 90.958 70.824 94.286 73.64C94.862 74.088 95.15 74.632 95.15 75.272C95.15 76.488 94.158 77.672 92.174 78.824C90.19 79.976 88.238 80.552 86.318 80.552C85.038 80.552 84.078 80.264 83.438 79.688ZM133.969 79.688C132.753 78.664 130.641 77.32 127.633 75.656C124.689 73.928 122.417 73.064 120.817 73.064C119.537 73.064 118.897 73.704 118.897 74.984C118.897 75.432 119.057 76.2 119.377 77.288C119.825 78.76 120.817 80.168 122.353 81.512C123.889 82.792 125.905 84.296 128.401 86.024C130.449 87.432 131.761 88.392 132.337 88.904C135.153 91.336 137.393 93.384 139.057 95.048C140.721 96.648 142.225 98.568 143.569 100.808C144.977 102.984 145.681 105.224 145.681 107.528C145.681 109.064 145.297 110.664 144.529 112.328C143.057 115.336 140.625 117.64 137.233 119.24C133.905 120.84 130.353 121.64 126.577 121.64C125.297 121.64 124.017 121.544 122.737 121.352C114.033 119.88 106.001 114.088 98.6413 103.976C98.2573 103.4 98.0653 102.824 98.0653 102.248C98.0653 100.84 98.9933 99.56 100.849 98.408C102.769 97.192 104.657 96.584 106.513 96.584C107.921 96.584 108.945 97 109.585 97.832C113.553 103.208 117.457 107.144 121.297 109.64C124.817 111.944 127.793 113.096 130.225 113.096C132.209 113.096 133.201 112.232 133.201 110.504C133.201 109.288 132.721 107.784 131.761 105.992C130.801 104.264 129.553 102.632 128.017 101.096C126.481 99.56 124.529 97.8 122.161 95.816L119.569 93.608C119.313 93.352 118.129 92.424 116.017 90.824C114.289 89.544 112.817 88.36 111.601 87.272C110.385 86.184 109.361 85 108.529 83.72C107.441 81.992 106.897 80.2 106.897 78.344C106.897 75.464 108.113 72.84 110.545 70.472C113.041 68.04 115.889 66.376 119.089 65.48C121.137 64.904 123.089 64.616 124.945 64.616C128.401 64.616 131.729 65.416 134.929 67.016C138.193 68.616 141.489 70.824 144.817 73.64C145.393 74.088 145.681 74.632 145.681 75.272C145.681 76.488 144.689 77.672 142.705 78.824C140.721 79.976 138.769 80.552 136.849 80.552C135.569 80.552 134.609 80.264 133.969 79.688ZM152.148 69.992C152.213 68.712 153.141 67.592 154.933 66.632C156.725 65.608 158.517 65.096 160.309 65.096C161.333 65.096 162.165 65.32 162.805 65.768C163.445 66.152 163.733 66.792 163.669 67.688L160.885 119.816C160.821 121.16 159.893 122.344 158.101 123.368C156.309 124.328 154.517 124.808 152.725 124.808C150.357 124.808 149.205 123.88 149.269 122.024L152.148 69.992ZM151.957 57.32C151.829 58.216 152.053 58.888 152.629 59.336C153.269 59.784 154.101 60.008 155.125 60.008C156.853 60.008 158.613 59.528 160.405 58.568C162.197 57.608 163.189 56.456 163.381 55.112C163.893 51.912 164.245 49.512 164.437 47.912C164.693 46.312 163.701 45.512 161.461 45.512C159.733 45.512 157.941 45.992 156.085 46.952C154.229 47.912 153.237 49 153.109 50.216L151.957 57.32ZM200.907 79.688C199.691 78.664 197.579 77.32 194.571 75.656C191.627 73.928 189.355 73.064 187.755 73.064C186.475 73.064 185.835 73.704 185.835 74.984C185.835 75.432 185.995 76.2 186.315 77.288C186.763 78.76 187.755 80.168 189.291 81.512C190.827 82.792 192.843 84.296 195.339 86.024C197.387 87.432 198.699 88.392 199.275 88.904C202.091 91.336 204.331 93.384 205.995 95.048C207.659 96.648 209.163 98.568 210.507 100.808C211.915 102.984 212.619 105.224 212.619 107.528C212.619 109.064 212.235 110.664 211.467 112.328C209.995 115.336 207.563 117.64 204.171 119.24C200.843 120.84 197.291 121.64 193.515 121.64C192.235 121.64 190.955 121.544 189.675 121.352C180.971 119.88 172.939 114.088 165.579 103.976C165.195 103.4 165.003 102.824 165.003 102.248C165.003 100.84 165.931 99.56 167.787 98.408C169.707 97.192 171.595 96.584 173.451 96.584C174.859 96.584 175.883 97 176.523 97.832C180.491 103.208 184.395 107.144 188.235 109.64C191.755 111.944 194.731 113.096 197.163 113.096C199.147 113.096 200.139 112.232 200.139 110.504C200.139 109.288 199.659 107.784 198.699 105.992C197.739 104.264 196.491 102.632 194.955 101.096C193.419 99.56 191.467 97.8 189.099 95.816L186.507 93.608C186.251 93.352 185.067 92.424 182.955 90.824C181.227 89.544 179.755 88.36 178.539 87.272C177.323 86.184 176.299 85 175.467 83.72C174.379 81.992 173.835 80.2 173.835 78.344C173.835 75.464 175.051 72.84 177.483 70.472C179.979 68.04 182.827 66.376 186.027 65.48C188.075 64.904 190.027 64.616 191.883 64.616C195.339 64.616 198.667 65.416 201.867 67.016C205.131 68.616 208.427 70.824 211.755 73.64C212.331 74.088 212.619 74.632 212.619 75.272C212.619 76.488 211.627 77.672 209.643 78.824C207.659 79.976 205.707 80.552 203.787 80.552C202.507 80.552 201.547 80.264 200.907 79.688ZM241.354 64.424C242.698 64.296 243.722 64.456 244.426 64.904C245.194 65.352 245.994 66.216 246.826 67.496C247.338 68.328 247.594 69.032 247.594 69.608C247.594 71.016 246.698 71.848 244.906 72.104L241.546 72.488C238.41 72.936 236.746 73.16 236.554 73.16C235.466 83.4 234.602 92.296 233.962 99.848C233.322 107.4 232.906 114.856 232.714 122.216C232.65 123.112 232.266 123.784 231.562 124.232C230.922 124.68 230.058 124.904 228.97 124.904C227.05 124.904 225.13 124.392 223.21 123.368C221.354 122.28 220.458 121.064 220.522 119.72C220.714 112.936 221.098 106.024 221.674 98.984C222.25 91.88 223.018 83.656 223.978 74.312L217.93 75.08C217.034 75.144 216.33 75.112 215.818 74.984C215.37 74.792 214.922 74.408 214.474 73.832C214.026 73.256 213.578 72.616 213.13 71.912C212.618 71.208 212.362 70.504 212.362 69.8C212.362 69.224 212.586 68.712 213.034 68.264C213.482 67.816 214.154 67.528 215.05 67.4C216.458 67.208 218.09 66.984 219.946 66.728L224.842 66.056L226.57 49.448C226.762 47.656 228.074 46.76 230.506 46.76C232.426 46.76 234.282 47.304 236.074 48.392C237.93 49.416 238.794 50.6 238.666 51.944L237.418 64.808C239.21 64.68 240.522 64.552 241.354 64.424ZM262.198 92.456L261.43 94.376L268.15 100.04L267.478 97.256C267.03 95.464 266.134 91.656 264.79 85.832L262.198 92.456ZM273.142 64.424C274.038 69.992 275.158 75.656 276.502 81.416C277.91 87.112 279.606 93.672 281.59 101.096C283.446 108.136 284.662 112.808 285.238 115.112C285.302 115.304 285.334 115.592 285.334 115.976C285.334 117.512 284.47 118.856 282.742 120.008C281.014 121.096 279.222 121.64 277.366 121.64C275.83 121.64 274.646 121.224 273.814 120.392C271.958 118.408 270.006 116.52 267.958 114.728C265.91 112.936 263.222 110.728 259.894 108.104L256.726 105.512C254.038 111.272 251.958 115.528 250.486 118.28C250.038 119.24 248.854 120.136 246.934 120.968C245.078 121.736 243.35 122.12 241.75 122.12C239.958 122.12 239.062 121.544 239.062 120.392C239.062 120.072 239.158 119.688 239.35 119.24C241.27 114.504 243.542 109.064 246.166 102.92L248.182 98.024C246.582 96.424 245.782 95.624 245.782 95.624C245.334 95.176 245.11 94.664 245.11 94.088C245.11 93 245.814 91.976 247.222 91.016C248.63 89.992 250.198 89.32 251.926 89C254.998 81.64 257.878 74.152 260.566 66.536C260.822 65.64 261.622 64.872 262.966 64.232C264.374 63.528 265.846 63.08 267.382 62.888C268.47 62.568 269.398 62.408 270.166 62.408C271.958 62.408 272.95 63.08 273.142 64.424ZM325.496 66.824C323.96 78.472 323.192 89.448 323.192 99.752C323.192 104.744 323.384 109.8 323.768 114.92C323.896 115.304 323.96 115.624 323.96 115.88C323.96 116.072 323.896 116.36 323.768 116.744C323.768 116.808 323.736 116.84 323.672 116.84V117.032C323.288 118.12 322.392 119.08 320.984 119.912C319.576 120.68 318.072 121.128 316.472 121.256C313.912 121.512 312.376 120.84 311.864 119.24C309.624 113.224 306.072 104.904 301.208 94.28L300.056 91.592C299.544 99.592 299.224 108.136 299.096 117.224C299.096 118.568 298.2 119.784 296.408 120.872C294.616 121.896 292.792 122.408 290.936 122.408C289.784 122.408 288.856 122.184 288.152 121.736C287.448 121.288 287.128 120.552 287.192 119.528C287.576 102.12 288.824 85.64 290.936 70.088L291.032 69.704C290.904 68.296 291.768 67.016 293.624 65.864C295.48 64.712 297.336 64.136 299.192 64.136C301.112 64.136 302.296 64.776 302.744 66.056C304.792 71.624 307.832 78.792 311.864 87.56C312.248 81.544 312.92 75.432 313.88 69.224C314.072 67.944 315.096 66.824 316.952 65.864C318.808 64.84 320.632 64.328 322.424 64.328C324.728 64.328 325.752 65.16 325.496 66.824Z" fill="#EE9322" fill-opacity="0.5"/>
</svg>
