<svg width="42" height="38" viewBox="0 0 42 38" fill="none" xmlns="http://www.w3.org/2000/svg">
<path d="M21 6.58752C17.5659 3.50702 13.1133 1.80615 8.5 1.81252C6.30833 1.81252 4.20417 2.18752 2.25 2.87919V32.5667C4.25754 31.8584 6.37118 31.4977 8.5 31.5C13.3021 31.5 17.6833 33.3063 21 36.275M21 6.58752C24.434 3.50684 28.8866 1.80595 33.5 1.81252C35.6917 1.81252 37.7958 2.18752 39.75 2.87919V32.5667C37.7425 31.8584 35.6288 31.4977 33.5 31.5C28.8867 31.4937 24.4341 33.1945 21 36.275M21 6.58752V36.275V6.58752Z" fill="#EE9322"/>
<path d="M21 6.58752C17.5659 3.50702 13.1133 1.80615 8.5 1.81252C6.30833 1.81252 4.20417 2.18752 2.25 2.87919V32.5667C4.25754 31.8584 6.37118 31.4977 8.5 31.5C13.3021 31.5 17.6833 33.3063 21 36.275M21 6.58752C24.434 3.50684 28.8866 1.80595 33.5 1.81252C35.6917 1.81252 37.7958 2.18752 39.75 2.87919V32.5667C37.7425 31.8584 35.6288 31.4977 33.5 31.5C28.8867 31.4937 24.4341 33.1945 21 36.275M21 6.58752V36.275" stroke="black" stroke-width="3" stroke-linecap="round" stroke-linejoin="round"/>
</svg>
