<svg width="50" height="50" viewBox="0 0 50 50" fill="none" xmlns="http://www.w3.org/2000/svg">
<path d="M4.6875 26.5833C4.6875 29.9167 7.02708 32.8208 10.3271 33.3063C12.5521 33.6333 14.8021 33.8875 17.0729 34.0646C18.0437 34.1417 18.9333 34.65 19.475 35.4625L25 43.75L30.525 35.4625C31.0667 34.65 31.9562 34.1417 32.9271 34.0667C35.1979 33.8875 37.4479 33.6333 39.6729 33.3063C42.9729 32.8208 45.3125 29.9188 45.3125 26.5813V14.0438C45.3125 10.7063 42.9729 7.80417 39.6729 7.31875C34.8145 6.60566 29.9105 6.24846 25 6.25001C20.0167 6.25001 15.1167 6.61459 10.3271 7.31875C7.02708 7.80417 4.6875 10.7083 4.6875 14.0438V26.5813V26.5833Z" stroke="white" stroke-width="3" stroke-linecap="round" stroke-linejoin="round"/>
</svg>
