<svg width="63" height="63" viewBox="0 0 63 63" fill="none" xmlns="http://www.w3.org/2000/svg">
<path d="M22.125 33.8438L29.1562 40.875L40.875 24.4687M59.625 31.5C59.625 35.1934 58.8975 38.8507 57.4841 42.263C56.0707 45.6753 53.999 48.7757 51.3874 51.3874C48.7757 53.999 45.6753 56.0707 42.263 57.4841C38.8507 58.8975 35.1934 59.625 31.5 59.625C27.8066 59.625 24.1493 58.8975 20.737 57.4841C17.3247 56.0707 14.2243 53.999 11.6126 51.3874C9.00097 48.7757 6.9293 45.6753 5.51589 42.263C4.10247 38.8507 3.375 35.1934 3.375 31.5C3.375 24.0408 6.33816 16.8871 11.6126 11.6126C16.8871 6.33816 24.0408 3.375 31.5 3.375C38.9592 3.375 46.1129 6.33816 51.3874 11.6126C56.6618 16.8871 59.625 24.0408 59.625 31.5Z" stroke="#31ED5A" stroke-width="5" stroke-linecap="round" stroke-linejoin="round"/>
</svg>
