<svg width="35" height="36" viewBox="0 0 35 36" fill="none" xmlns="http://www.w3.org/2000/svg">
<path d="M24.5904 7.04341L27.0506 4.58175C27.5635 4.06888 28.2591 3.78076 28.9844 3.78076C29.7097 3.78076 30.4053 4.06888 30.9181 4.58175C31.431 5.09461 31.7191 5.7902 31.7191 6.5155C31.7191 7.24079 31.431 7.93639 30.9181 8.44925L15.4321 23.9353C14.6611 24.7058 13.7103 25.2722 12.6656 25.5832L8.75 26.7499L9.91667 22.8342C10.2277 21.7895 10.7941 20.8388 11.5646 20.0678L24.5904 7.04341ZM24.5904 7.04341L28.4375 10.8905M26.25 20.9165V27.8436C26.25 28.7139 25.9043 29.5485 25.2889 30.1638C24.6736 30.7792 23.839 31.1249 22.9688 31.1249H7.65625C6.78601 31.1249 5.95141 30.7792 5.33606 30.1638C4.7207 29.5485 4.375 28.7139 4.375 27.8436V12.5311C4.375 11.6609 4.7207 10.8263 5.33606 10.2109C5.95141 9.59557 6.78601 9.24987 7.65625 9.24987H14.5833" stroke="black" stroke-opacity="0.5" stroke-width="2" stroke-linecap="round" stroke-linejoin="round"/>
</svg>
