<svg width="53" height="54" viewBox="0 0 53 54" fill="none" xmlns="http://www.w3.org/2000/svg">
<path d="M26.5 8.92784C21.9211 4.45849 15.9844 1.99079 9.83333 2.00003C6.91111 2.00003 4.10556 2.5441 1.5 3.5476V46.6198C4.17672 45.5921 6.9949 45.0688 9.83333 45.0722C16.2361 45.0722 22.0778 47.6928 26.5 52M26.5 8.92784C31.0787 4.45824 37.0155 1.9905 43.1667 2.00003C46.0889 2.00003 48.8944 2.5441 51.5 3.5476V46.6198C48.8233 45.5921 46.0051 45.0688 43.1667 45.0722C37.0156 45.0629 31.0789 47.5306 26.5 52M26.5 8.92784V52V8.92784Z" fill="#EE9322"/>
<path d="M26.5 8.92784C21.9211 4.45849 15.9844 1.99079 9.83333 2.00003C6.91111 2.00003 4.10556 2.5441 1.5 3.5476V46.6198C4.17672 45.5921 6.9949 45.0688 9.83333 45.0722C16.2361 45.0722 22.0778 47.6928 26.5 52M26.5 8.92784C31.0787 4.45824 37.0155 1.9905 43.1667 2.00003C46.0889 2.00003 48.8944 2.5441 51.5 3.5476V46.6198C48.8233 45.5921 46.0051 45.0688 43.1667 45.0722C37.0156 45.0629 31.0789 47.5306 26.5 52M26.5 8.92784V52" stroke="#2D2D2D" stroke-width="3" stroke-linecap="round" stroke-linejoin="round"/>
</svg>
