<svg width="50" height="50" viewBox="0 0 50 50" fill="none" xmlns="http://www.w3.org/2000/svg">
<path fill-rule="evenodd" clip-rule="evenodd" d="M23.6434 0.0142534C21.2973 0.156116 19.196 0.558999 17.0532 1.27785C14.0631 2.28096 11.3553 3.80691 8.90246 5.87115C7.86009 6.7484 6.72854 7.88436 5.8547 8.9308C3.1246 12.2002 1.30117 15.9996 0.476091 20.1381C0.115083 21.9489 -0.0224588 23.4901 0.00294163 25.4404C0.0167462 26.4999 0.0292304 26.7396 0.117004 27.6337C0.510591 31.6422 1.90488 35.562 4.13767 38.9373C7.24344 43.6323 11.7948 47.1381 17.0772 48.9041C17.6651 49.1006 18.8412 49.4457 18.9234 49.4457C18.9313 49.4457 18.9378 45.6931 18.9378 41.1066V32.7675L16.3629 32.7614L13.7881 32.7553V28.9231V25.091L16.3605 25.0848L18.9329 25.0787L18.945 22.8434C18.9566 20.6726 18.9662 20.3587 19.0471 19.4873C19.4569 15.0716 21.21 12.1233 24.3423 10.5818C25.7508 9.88862 27.4225 9.48042 29.5253 9.31607C30.0732 9.27326 31.5028 9.25863 32.0702 9.29004C33.44 9.36586 34.9608 9.54501 35.9835 9.751C36.241 9.80287 36.484 9.85454 36.5237 9.8658L36.5957 9.88629L36.6018 13.3766L36.6079 16.8669L36.4577 16.8519C35.7544 16.7813 33.2639 16.7524 32.6584 16.8077C31.0832 16.9517 30.0512 17.3442 29.3211 18.0772C28.772 18.6284 28.414 19.3549 28.2188 20.3141C28.0666 21.0625 28.0368 21.5858 28.0368 23.5179V25.0789H32.1182C34.3629 25.0789 36.1996 25.0877 36.1996 25.0985C36.1996 25.1093 35.8862 26.8304 35.5033 28.9231C35.1204 31.0159 34.8071 32.737 34.8071 32.7477C34.8071 32.7585 33.2838 32.7673 31.422 32.7673H28.0368V41.3837C28.0368 49.9782 28.037 50 28.0848 50C28.1676 50 29.1055 49.8566 29.5223 49.7802C35.8141 48.6273 41.4321 45.0703 45.2424 39.8274C48.4112 35.4671 50.093 30.1086 49.996 24.6812C49.9662 23.0098 49.8092 21.5649 49.4859 19.9856C47.8039 11.7699 42.0332 4.8649 34.2537 1.75957C31.8317 0.792736 29.5248 0.2652 26.7164 0.0358967C26.3023 0.00210621 24.1009 -0.0134153 23.6434 0.0142534Z" fill="white"/>
</svg>
