<svg width="20" height="20" viewBox="0 0 20 20" fill="none" xmlns="http://www.w3.org/2000/svg">
<path d="M9.75003 2.33752C9.82888 2.3031 9.91399 2.28534 10 2.28534C10.0861 2.28534 10.1712 2.3031 10.25 2.33752C13.3317 3.68452 16.2713 5.33576 19.025 7.26668C19.1221 7.33474 19.1978 7.42899 19.2433 7.53843C19.2888 7.64788 19.3022 7.768 19.2821 7.8848C19.2619 8.0016 19.2089 8.11026 19.1293 8.19809C19.0497 8.28592 18.9468 8.3493 18.8325 8.38085C15.9737 9.17043 13.2074 10.2633 10.5809 11.6409L10.5784 11.6425L10.295 11.7925C10.2044 11.841 10.1032 11.8663 10.0004 11.8663C9.89768 11.8663 9.7965 11.841 9.70586 11.7925C8.57977 11.1907 7.42661 10.641 6.25003 10.145V9.95835C6.25003 9.84918 6.30586 9.75168 6.39336 9.69918C7.65117 8.93694 8.94519 8.23612 10.2709 7.59918C10.4203 7.52735 10.535 7.39912 10.5899 7.24268C10.6447 7.08624 10.6352 6.91442 10.5634 6.76502C10.4915 6.61561 10.3633 6.50086 10.2069 6.44601C10.0504 6.39115 9.8786 6.40069 9.7292 6.47252C8.36735 7.12693 7.03802 7.84694 5.74586 8.63002C5.56203 8.74154 5.40344 8.89012 5.2802 9.06631C5.15695 9.2425 5.07175 9.44242 5.03003 9.65335C3.76437 9.16635 2.4756 8.74167 1.16836 8.38085C1.05411 8.3493 0.951183 8.28592 0.871591 8.19809C0.791998 8.11026 0.739022 8.0016 0.718842 7.8848C0.698662 7.768 0.712111 7.64788 0.757619 7.53843C0.803128 7.42899 0.878819 7.33474 0.975864 7.26668C3.72932 5.33582 6.66861 3.68458 9.75003 2.33752Z" fill="#5D5D5D" fill-opacity="0.4"/>
<path d="M10.8833 12.8942C12.9302 11.8006 15.0675 10.8855 17.2716 10.1592C17.3833 11.3375 17.455 12.5283 17.4841 13.73C17.4872 13.8557 17.4522 13.9795 17.3839 14.085C17.3155 14.1906 17.2168 14.2731 17.1008 14.3217C14.7385 15.3083 12.4767 16.52 10.3466 17.94C10.244 18.0084 10.1234 18.0449 9.99997 18.0449C9.87659 18.0449 9.75596 18.0084 9.6533 17.94C7.52348 16.52 5.26194 15.3083 2.89997 14.3217C2.7838 14.2732 2.68498 14.1908 2.61643 14.0852C2.54788 13.9796 2.51281 13.8558 2.5158 13.73C2.54497 12.5283 2.61663 11.3383 2.7283 10.1583C3.49359 10.4106 4.25116 10.6857 4.99997 10.9833V12.0417C4.81991 12.1454 4.66856 12.2924 4.55961 12.4693C4.45065 12.6463 4.38752 12.8476 4.37594 13.0551C4.36436 13.2626 4.40469 13.4697 4.49327 13.6576C4.58186 13.8456 4.71591 14.0085 4.8833 14.1317C4.8083 14.4483 4.6983 14.7592 4.55247 15.0567C4.92913 15.2342 5.3033 15.4183 5.67413 15.6075C5.88322 15.182 6.0375 14.7318 6.1333 14.2675C6.34404 14.1738 6.52475 14.0236 6.65543 13.8336C6.78611 13.6436 6.86166 13.4211 6.87374 13.1908C6.88582 12.9604 6.83394 12.7313 6.72385 12.5286C6.61376 12.326 6.44975 12.1577 6.24997 12.0425V11.505C7.2234 11.9305 8.1797 12.3942 9.11663 12.895C9.38844 13.0402 9.69183 13.1161 9.99997 13.1161C10.3081 13.1161 10.6115 13.0402 10.8833 12.895V12.8942Z" fill="#5D5D5D" fill-opacity="0.4"/>
<path d="M3.71835 16.2183C4.06835 15.8691 4.34585 15.4766 4.55169 15.0566C4.92919 15.2341 5.30335 15.4183 5.67419 15.6075C5.40151 16.1613 5.03944 16.6664 4.60252 17.1025C4.5453 17.1639 4.4763 17.2131 4.39964 17.2473C4.32297 17.2815 4.24021 17.2998 4.15629 17.3013C4.07237 17.3028 3.98901 17.2873 3.91119 17.2559C3.83337 17.2245 3.76267 17.1777 3.70332 17.1183C3.64397 17.059 3.59719 16.9883 3.56575 16.9105C3.53432 16.8326 3.51888 16.7493 3.52036 16.6654C3.52184 16.5815 3.54021 16.4987 3.57437 16.422C3.60853 16.3454 3.65778 16.2764 3.71919 16.2191L3.71835 16.2183Z" fill="#5D5D5D" fill-opacity="0.4"/>
</svg>
