<svg width="50" height="50" viewBox="0 0 50 50" fill="none" xmlns="http://www.w3.org/2000/svg">
<path d="M14.6462 0.174844C11.9862 0.300344 10.1696 0.724844 8.58163 1.34884C6.93811 1.98934 5.5451 2.84884 4.15908 4.23984C2.77307 5.63084 1.91956 7.02484 1.28355 8.67084C0.668047 10.2623 0.251043 12.0803 0.133542 14.7418C0.0160407 17.4033 -0.00995956 18.2588 0.00304057 25.0478C0.0160407 31.8368 0.046041 32.6878 0.175042 35.3548C0.302044 38.0143 0.725048 39.8303 1.34905 41.4188C1.99056 43.0623 2.84907 44.4548 4.24058 45.8413C5.6321 47.2278 7.02511 48.0793 8.67513 48.7163C10.2651 49.3308 12.0837 49.7498 14.7447 49.8663C17.4057 49.9828 18.2622 50.0098 25.0493 49.9968C31.8364 49.9838 32.6909 49.9538 35.3574 49.8273C38.0239 49.7008 39.8304 49.2748 41.4195 48.6538C43.063 48.0108 44.4565 47.1538 45.842 45.7618C47.2275 44.3698 48.0805 42.9748 48.716 41.3278C49.332 39.7378 49.7505 37.9193 49.866 35.2603C49.9825 32.5918 50.01 31.7398 49.997 24.9518C49.984 18.1638 49.9535 17.3128 49.827 14.6468C49.7005 11.9808 49.277 10.1703 48.6535 8.58084C48.011 6.93734 47.1535 5.54584 45.7625 4.15834C44.3715 2.77084 42.9755 1.91834 41.329 1.28434C39.7379 0.668844 37.9204 0.249344 35.2594 0.134344C32.5984 0.019344 31.7419 -0.010156 24.9523 0.00284403C18.1627 0.015844 17.3127 0.044844 14.6462 0.174844ZM14.9382 45.3688C12.5007 45.2628 11.1772 44.8578 10.2951 44.5188C9.12713 44.0688 8.29513 43.5248 7.41612 42.6543C6.53711 41.7838 5.9971 40.9488 5.5411 39.7833C5.19859 38.9013 4.78609 37.5793 4.67209 35.1418C4.54809 32.5073 4.52209 31.7163 4.50759 25.0418C4.49309 18.3673 4.51859 17.5773 4.63409 14.9418C4.73809 12.5063 5.14559 11.1813 5.4841 10.2998C5.9341 9.13034 6.47611 8.29984 7.34862 7.42134C8.22112 6.54284 9.05363 6.00184 10.2201 5.54584C11.1012 5.20184 12.4232 4.79284 14.8597 4.67684C17.4962 4.55184 18.2862 4.52684 24.9598 4.51234C31.6334 4.49784 32.4254 4.52284 35.0629 4.63884C37.4984 4.74484 38.8239 5.14834 39.7044 5.48884C40.873 5.93884 41.7045 6.47934 42.583 7.35334C43.4615 8.22734 44.003 9.05684 44.459 10.2258C44.8035 11.1043 45.2125 12.4258 45.3275 14.8638C45.453 17.5003 45.4815 18.2908 45.4935 24.9638C45.5055 31.6368 45.482 32.4293 45.3665 35.0638C45.26 37.5013 44.856 38.8253 44.5165 39.7083C44.0665 40.8758 43.524 41.7083 42.651 42.5863C41.778 43.4643 40.9465 44.0053 39.7794 44.4613C38.8994 44.8048 37.5759 45.2148 35.1414 45.3308C32.5049 45.4548 31.7149 45.4808 25.0388 45.4953C18.3627 45.5098 17.5752 45.4828 14.9387 45.3688M35.3189 11.6383C35.3199 12.2317 35.4968 12.8115 35.8273 13.3043C36.1579 13.7971 36.6271 14.1809 37.1757 14.407C37.7243 14.6331 38.3277 14.6914 38.9095 14.5746C39.4913 14.4578 40.0253 14.1711 40.4442 13.7508C40.863 13.3304 41.1477 12.7953 41.2624 12.2131C41.3771 11.6309 41.3165 11.0278 41.0884 10.48C40.8603 9.9322 40.4748 9.46437 39.9808 9.13567C39.4867 8.80697 38.9063 8.63216 38.3129 8.63334C37.5174 8.63493 36.7552 8.95239 36.1937 9.51591C35.6322 10.0794 35.3176 10.8429 35.3189 11.6383ZM12.1637 25.0248C12.1777 32.1148 17.9357 37.8493 25.0243 37.8358C32.1129 37.8223 37.8514 32.0648 37.8379 24.9748C37.8244 17.8848 32.0649 12.1488 24.9753 12.1628C17.8857 12.1768 12.1502 17.9358 12.1637 25.0248ZM16.6667 25.0158C16.6635 23.3676 17.149 21.7555 18.062 20.3832C18.975 19.011 20.2744 17.9403 21.7959 17.3065C23.3174 16.6728 24.9927 16.5044 26.6099 16.8228C28.2271 17.1411 29.7136 17.9319 30.8813 19.095C32.0491 20.2582 32.8457 21.7415 33.1705 23.3574C33.4953 24.9733 33.3335 26.6492 32.7058 28.1732C32.0781 29.6972 31.0125 31.0008 29.6439 31.9192C28.2753 32.8376 26.665 33.3296 25.0168 33.3328C23.9224 33.3351 22.8382 33.1218 21.8263 32.7051C20.8143 32.2883 19.8943 31.6763 19.1189 30.904C18.3435 30.1317 17.7279 29.2141 17.3071 28.2038C16.8864 27.1935 16.6687 26.1103 16.6667 25.0158Z" fill="white"/>
</svg>
