<svg width="50" height="48" viewBox="0 0 50 48" fill="none" xmlns="http://www.w3.org/2000/svg">
<path fill-rule="evenodd" clip-rule="evenodd" d="M8.23663 26.9134V21.0127V15.1119L9.55051 15.1878L10.8644 15.2633L10.9327 19.7055L11.001 24.1477H13.4932C15.909 24.1477 15.9898 24.166 16.1347 24.7431C16.2168 25.0707 16.2473 25.6618 16.202 26.057L16.1199 26.7755L12.1783 26.8443L8.23663 26.9134ZM17.7466 26.9006V21.0194V15.1382H18.998H20.2493V21.0194V26.9006H18.998H17.7466ZM22.0587 21.2757C22.0214 18.2507 22.0462 15.6322 22.1132 15.457C22.1888 15.2601 22.6951 15.1382 23.4381 15.1382H24.6406L27.2001 18.5628L29.7593 21.9874V18.5628V15.1382H31.1402H32.5214L32.4541 20.9568L32.3871 26.7755L31.1357 26.8378L29.8844 26.9003L27.3818 23.4592L24.8792 20.0184L24.8093 23.4722L24.7398 26.9264L23.4329 26.8508L22.1263 26.7755L22.0587 21.2757ZM34.264 26.9134V21.0194V15.1255L38.2057 15.1945L42.1473 15.2633L42.2262 16.2194C42.3493 17.7147 42.0472 17.8911 39.3639 17.8911H37.0169V18.7583V19.6254L39.5821 19.6968L42.1473 19.7681L42.2294 20.4866C42.2747 20.8818 42.2442 21.4729 42.1621 21.8005C42.0172 22.3778 41.9366 22.3959 39.5148 22.3959H37.0169V23.263V24.1302L39.5821 24.2015L42.1473 24.2728V25.5241V26.7755L38.2057 26.8443L34.264 26.9134Z" fill="#EE9322"/>
<path fill-rule="evenodd" clip-rule="evenodd" d="M29.1501 0.390687C38.738 1.72434 46.7249 7.66785 49.21 15.3189C50.0454 17.8909 50.2451 21.5712 49.68 23.9773C48.3243 29.7473 43.9585 34.895 35.0148 41.2682C28.8906 45.6321 24.4982 48.1012 23.3651 47.8169C22.6498 47.6372 22.6225 47.3742 23.0377 44.6468C23.5385 41.3563 23.2532 41.042 18.998 40.1973C9.5375 38.3194 2.174 32.054 0.353582 24.3334C-0.121919 22.316 -0.117164 18.7075 0.363843 16.6398C0.572062 15.7451 1.26754 13.9432 1.90922 12.6356C2.92128 10.5742 3.41105 9.92548 5.59385 7.75544C9.71644 3.65738 14.5705 1.29314 20.7155 0.390687C22.799 0.0846148 26.9493 0.0846148 29.1501 0.390687ZM8.23663 26.9134V21.0127V15.1119L9.55051 15.1878L10.8644 15.2633L10.9327 19.7055L11.001 24.1477H13.4932C15.909 24.1477 15.9898 24.166 16.1347 24.7431C16.2168 25.0707 16.2473 25.6618 16.202 26.057L16.1199 26.7755L12.1783 26.8443L8.23663 26.9134ZM17.7466 26.9006V21.0194V15.1382H18.998H20.2493V21.0194V26.9006H18.998H17.7466ZM22.0587 21.2757C22.0214 18.2507 22.0462 15.6322 22.1132 15.457C22.1888 15.2601 22.6951 15.1382 23.4381 15.1382H24.6406L27.2001 18.5628L29.7593 21.9874V18.5628V15.1382H31.1402H32.5214L32.4541 20.9568L32.3871 26.7755L31.1357 26.8378L29.8844 26.9003L27.3818 23.4592L24.8792 20.0184L24.8093 23.4722L24.7398 26.9264L23.4329 26.8508L22.1263 26.7755L22.0587 21.2757ZM34.264 26.9134V21.0194V15.1255L38.2057 15.1945L42.1473 15.2633L42.2262 16.2194C42.3493 17.7147 42.0472 17.8911 39.3639 17.8911H37.0169V18.7583V19.6254L39.5821 19.6968L42.1473 19.7681L42.2294 20.4866C42.2747 20.8818 42.2442 21.4729 42.1621 21.8005C42.0172 22.3778 41.9366 22.3959 39.5148 22.3959H37.0169V23.263V24.1302L39.5821 24.2015L42.1473 24.2728V25.5241V26.7755L38.2057 26.8443L34.264 26.9134Z" fill="white"/>
</svg>
