<svg width="35" height="36" viewBox="0 0 35 36" fill="none" xmlns="http://www.w3.org/2000/svg">
<path d="M31.7188 10.0938V25.4063C31.7188 26.2765 31.373 27.1111 30.7577 27.7264C30.1423 28.3418 29.3077 28.6875 28.4375 28.6875H6.5625C5.69226 28.6875 4.85766 28.3418 4.24231 27.7264C3.62695 27.1111 3.28125 26.2765 3.28125 25.4063V10.0938M31.7188 10.0938C31.7188 9.22351 31.373 8.38891 30.7577 7.77356C30.1423 7.1582 29.3077 6.8125 28.4375 6.8125H6.5625C5.69226 6.8125 4.85766 7.1582 4.24231 7.77356C3.62695 8.38891 3.28125 9.22351 3.28125 10.0938M31.7188 10.0938V10.4481C31.7188 11.0083 31.5754 11.5592 31.3023 12.0483C31.0292 12.5375 30.6353 12.9485 30.1583 13.2423L19.2208 19.9725C18.7034 20.2912 18.1077 20.4599 17.5 20.4599C16.8923 20.4599 16.2966 20.2912 15.7792 19.9725L4.84167 13.2437C4.36468 12.9499 3.97085 12.5389 3.6977 12.0498C3.42456 11.5607 3.28119 11.0098 3.28125 10.4496V10.0938" stroke="black" stroke-opacity="0.3" stroke-width="2" stroke-linecap="round" stroke-linejoin="round"/>
</svg>
