<svg width="192" height="196" viewBox="0 0 192 196" fill="none" xmlns="http://www.w3.org/2000/svg">
<g clip-path="url(#clip0_36_387)">
<path d="M23.1838 114.033C23.6112 115.355 23.9422 116.702 24.1742 118.067C30.003 116.769 35.8994 115.764 41.839 115.056C41.8316 114.995 41.8304 114.963 41.8304 114.963C41.7675 113.521 41.4521 111.359 41.4521 109.977L41.3902 109.293C43.1318 107.896 43.9997 106.265 44.9187 104.07C46.1405 101.294 47.086 98.4135 47.7425 95.4681C48.1901 93.5173 48.4613 91.5334 48.5531 89.5383C48.5656 89.1499 48.4866 88.7638 48.3219 88.4083C48.1573 88.0528 47.9113 87.7369 47.6018 87.4839C46.8507 87.2461 46.0361 87.2652 45.2982 87.538C44.462 87.9537 43.7251 89.487 42.9724 91.0835C42.2531 92.6103 41.6875 93.9019 40.5371 95.1659C40.0152 95.6994 39.3017 96.0261 38.5386 96.081C37.7755 96.1359 37.0187 95.915 36.4187 95.4622C35.6245 94.8334 35.2189 93.5548 35.0998 92.5773C34.9381 91.2462 34.8536 90.2201 35.4623 89.0118C36.071 87.8034 37.4806 86.9606 38.5363 87.1136C39.3441 87.2303 41.118 87.7488 41.9343 87.7164C42.3116 87.6881 42.6781 87.5827 43.0089 87.4073C43.3396 87.2319 43.6269 86.9907 43.8511 86.7C44.0752 86.4093 44.2311 86.0761 44.308 85.7228C44.385 85.3696 44.3812 85.0048 44.2969 84.6531C44.0473 83.7767 41.3772 82.397 40.1888 81.845C38.8483 81.2216 37.5481 80.4312 36.071 80.542C34.3022 80.6745 32.5845 81.7758 31.4443 83.0657C30.4487 84.0776 29.5704 85.1887 28.8247 86.3799C28.4594 86.9519 28.1678 87.5034 27.8036 88.0754C27.7016 88.2493 27.5755 88.4093 27.4286 88.5511C27.344 88.6208 27.2358 88.6591 27.124 88.6591C27.0122 88.6591 26.9041 88.6208 26.8194 88.5511C26.6216 88.313 26.4388 88.0639 26.272 87.805C24.2865 84.7266 22.5649 81.9234 20.0853 78.3978C19.3354 77.3317 16.5581 73.4428 15.6317 72.5107C15.2572 72.0721 14.7768 71.7265 14.2316 71.5034C13.6864 71.2802 13.0926 71.1862 12.501 71.2294C11.971 71.3666 11.4699 71.5901 11.0198 71.8901C10.6877 72.1808 10.4752 72.575 10.4208 73.0016C10.3298 74.204 10.6267 75.4042 11.2717 76.4412C11.4838 76.7656 14.2544 81.7639 15.1291 83.1236C15.2857 83.3685 18.9298 88.8306 20.6753 91.2933C18.0415 88.0694 12.8901 81.892 11.6364 80.4696C9.90797 78.5081 8.75698 77.6042 7.51296 77.5468C7.12316 77.5067 6.72887 77.5489 6.35809 77.6703C5.98731 77.7918 5.64914 77.9895 5.36758 78.2496C5.08602 78.5096 4.86799 78.8255 4.72896 79.1749C4.58994 79.5243 4.53333 79.8986 4.56317 80.2712C4.69534 81.9012 6.34666 83.5886 7.32463 84.9315C10.5257 89.328 12.1169 91.2868 15.3849 95.7001C12.0851 93.3753 9.15407 91.4241 5.37096 89.0204C4.58529 88.5214 2.93624 88.2846 2.21921 88.8707C1.97934 89.0339 1.77595 89.241 1.6209 89.4799C1.46586 89.7189 1.36225 89.9848 1.31612 90.2623C1.29513 91.3236 1.85843 92.174 2.60836 93.1758C3.35829 94.1776 4.60401 95.1378 5.75953 96.2191C8.29012 98.5871 10.1604 99.8084 12.8402 102.927C16.8111 107.549 21.4303 112.166 23.1872 114.032" fill="white"/>
<path d="M135.412 94.9875C132.916 93.8576 129.722 92.4141 129.603 92.3762C126.693 91.376 126.806 89.5919 126.437 87.5915C126.136 85.9589 125.936 84.3106 125.84 82.6554C133.022 79.1061 138.714 69.7686 139.738 67.1189C139.918 66.5972 140.305 65.5597 140.623 64.3524L140.789 64.3378C142.133 64.2178 143.682 63.9945 144.691 63.2263C145.957 62.2002 146.976 60.9257 147.678 59.4899C149.168 56.6487 149.809 53.4721 149.532 50.307C149.493 49.4983 149.277 48.7063 148.897 47.9823C148.568 47.4575 148.121 47.0096 147.587 46.6713C147.053 46.3331 146.447 46.1132 145.812 46.0278C145.718 46.0135 145.623 46.005 145.528 46.0024C144.813 45.8988 144.081 45.9635 143.398 46.1909C142.715 46.4183 142.1 46.8014 141.607 47.307C141.362 43.5773 140.163 39.9615 138.115 36.7747C136.56 34.2969 132.416 29.5987 128.225 27.8903C127.154 27.5292 126.046 27.2781 124.919 27.1415C123.61 27 122.293 26.9374 120.976 26.9539C116.236 29.9426 109.452 33.2973 106.429 33.3789C106.128 33.387 105.975 30.4156 105.87 28.5336C105.826 27.7308 104.959 27.1355 104.329 27.594C98.6861 31.698 90.9899 38.9708 85.669 43.6912L81.4655 47.0053C80.9759 46.6005 80.4004 46.3013 79.7784 46.1279C79.1563 45.9545 78.5023 45.9112 77.8611 46.0008C77.7628 46.0034 77.6649 46.012 77.5678 46.0267C76.9331 46.1122 76.3265 46.3321 75.7927 46.6704C75.2589 47.0086 74.8113 47.4565 74.483 47.9812C74.103 48.7052 73.8868 49.4972 73.8482 50.3059C73.5709 53.4709 74.212 56.6477 75.7015 59.4888C76.4036 60.9246 77.4225 62.1991 78.6887 63.2252C79.699 63.9935 81.128 64.8628 82.9387 64.4308L83.2791 64.3497C84.3929 68.5284 86.4485 72.4256 89.3029 75.7703C91.7646 78.6813 94.7966 81.1086 98.23 82.9171C98.1334 84.485 97.9356 86.0457 97.6378 87.5904C97.269 89.5908 97.3882 91.375 94.4724 92.3751C94.3703 92.4076 91.863 93.5213 89.3783 94.6188C89.3783 94.6188 89.806 112.394 112.174 112.394C134.542 112.394 135.412 94.9875 135.412 94.9875Z" fill="white"/>
<path d="M146.912 29.6673C146.622 28.021 146.165 26.4056 145.545 24.8442C144.052 21.2062 141.763 17.0049 137.126 14.5823L132.872 11.5287C130.961 7.83068 126.916 4.80252 121.719 2.87837C114.821 0.321118 100.891 0.90177 95.5337 5.22693L90.4912 7.99071C84.1044 10.2933 78.7283 17.3136 76.8734 23.937C74.977 30.7064 74.9447 40.4948 77.5711 46.0526C77.6668 46.0317 77.7634 46.0137 77.861 45.9986C78.5022 45.909 79.1562 45.9523 79.7783 46.1257C80.4004 46.2991 80.9758 46.5983 81.4654 47.0031L85.6689 43.6889C90.9916 38.9686 98.686 31.6958 104.327 27.5907C104.957 27.1322 105.824 27.7275 105.868 28.5303C105.971 30.4123 106.126 33.3837 106.427 33.3756C109.45 33.294 116.234 29.9393 120.974 26.9506C122.291 26.9341 123.608 26.9967 124.916 27.1382C126.043 27.2749 127.152 27.5259 128.223 27.887C132.414 29.5954 136.557 34.2936 138.113 36.7714C140.161 39.959 141.36 43.5758 141.605 47.3064C142.096 46.8014 142.71 46.4185 143.392 46.1911C144.074 45.9636 144.805 45.8984 145.519 46.0013C145.699 46.0264 145.876 46.0625 146.051 46.1094C147.731 40.9333 147.845 34.7094 146.912 29.6673Z" fill="#645D5C"/>
<path d="M154.99 194.746C154.984 188.642 154.611 180.931 154.611 175.553C154.718 171.401 155.043 167.256 155.586 163.135C155.65 163.243 155.685 163.297 155.685 163.297C158.832 169.259 163.166 171.648 168.44 172.999C173.713 174.351 180.016 172.425 182.655 167.868C183.637 166.175 183.91 164.219 184.236 162.31C185.147 156.957 184.349 152.732 183.101 148.245C181.973 144.239 180.438 140.348 178.517 136.626C178.517 136.626 174.386 127.42 168.44 117.362C161.717 105.988 152.926 100.891 152.926 100.891C148.332 99.1072 141.934 96.2256 137.388 94.3739C137.187 94.2907 136.967 94.2583 136.749 94.2799C136.531 94.3015 136.322 94.3763 136.143 94.4972C131.186 97.9124 121.567 102.725 112.596 102.704C104.226 102.774 96.1093 99.9656 89.735 94.7945C89.5562 94.6724 89.3472 94.5967 89.1284 94.5747C88.9097 94.5527 88.6887 94.5853 88.4871 94.6691C83.9404 96.5203 77.5841 99.1024 72.9921 100.891C68.6406 102.824 64.4178 104.484 61.0227 107.02C58.1408 109.239 55.8785 112.103 54.4367 115.356C53.6953 117.152 52.3991 120.987 51.0121 123.811L47.9716 131.284C46.7707 126.109 45.6679 121.148 44.648 115.821C44.5987 115.563 44.4527 115.33 44.237 115.166C44.0214 115.003 43.7508 114.919 43.4754 114.931C38.8482 115.133 25.4618 117.554 21.6424 118.705C21.3951 118.778 21.1819 118.931 21.0388 119.136C20.8957 119.342 20.8314 119.589 20.8567 119.834C21.8778 129.939 22.2114 141.272 24.4969 151.58C26.1261 158.933 29.0021 166.054 36.055 169.411C38.6867 170.715 41.5962 171.428 44.5613 171.497C47.5265 171.566 50.4688 170.987 53.1638 169.807C57.8097 167.802 63.4949 163.001 67.025 160.194C67.2468 161.897 67.4601 163.551 67.6632 165.138C68.4687 171.443 68.851 188.641 68.8454 194.745L154.99 194.746Z" fill="#6A5D5F"/>
<path d="M52.1887 124.465C53.0333 122.73 53.7481 120.941 54.4322 119.145C54.9457 117.634 55.5569 116.156 56.2622 114.717C58.0691 111.293 60.8549 108.426 64.2982 106.445C67.9578 104.428 71.7742 102.68 75.7139 101.217C79.5333 99.7068 83.3385 98.1643 87.1415 96.6175L88.4235 96.0958C88.613 96.0185 88.8025 95.9434 88.9908 95.8644C89.0606 95.8358 88.9102 95.7914 88.9726 95.8698C89.2394 96.1279 89.5366 96.3557 89.8582 96.5489C90.2314 96.8268 90.6069 97.1014 90.9887 97.3685C95.363 100.432 100.416 102.501 105.759 103.415C110.006 104.176 114.366 104.169 118.611 103.393C122.639 102.57 126.533 101.235 130.188 99.4246C131.804 98.6501 133.376 97.7963 134.899 96.8668C135.53 96.4808 136.164 96.0893 136.764 95.6606C136.888 95.5725 136.869 95.5622 136.849 95.5628C137.025 95.6013 137.194 95.6674 137.348 95.7585C137.801 95.9459 138.255 96.1348 138.709 96.3251C142.449 97.8962 146.156 99.5381 149.911 101.077C150.792 101.438 151.677 101.792 152.565 102.141C152.913 102.23 153.284 102.185 153.597 102.016C153.911 101.846 154.141 101.565 154.239 101.235C154.326 100.903 154.276 100.552 154.099 100.255C153.922 99.9582 153.632 99.7374 153.288 99.6387C149.531 98.173 145.848 96.5375 142.144 94.9572C141.228 94.5669 140.311 94.1796 139.393 93.7954C138.444 93.4002 137.455 92.8293 136.387 93.0271C135.536 93.1845 134.841 93.8002 134.136 94.2468C133.431 94.6934 132.701 95.1281 131.966 95.5444C128.57 97.4846 124.938 99.02 121.149 100.116C117.042 101.286 112.729 101.651 108.47 101.188C104.67 100.787 100.974 99.7568 97.5469 98.1433C96.0306 97.4246 94.5708 96.6023 93.1789 95.6828C92.5612 95.2751 91.9559 94.8507 91.3705 94.4025C90.5105 93.7446 89.7345 93.1244 88.5534 93.3212C87.5872 93.5752 86.6532 93.9295 85.7681 94.3777C84.8227 94.7626 83.8773 95.1468 82.9318 95.5303C81.0269 96.302 79.1203 97.0697 77.212 97.8335C73.1952 99.4376 69.1619 101.016 65.296 102.938C61.4301 104.859 58.0349 107.317 55.548 110.777C53.3805 113.794 52.343 117.22 50.9725 120.591C50.6208 121.456 50.2503 122.315 49.8379 123.157C49.6658 123.457 49.6205 123.807 49.7113 124.138C49.8022 124.468 50.0222 124.752 50.3263 124.933C50.639 125.103 51.0096 125.15 51.358 125.063C51.7065 124.975 52.0049 124.76 52.1887 124.465Z" fill="#211715"/>
<path d="M121.76 24.8697C119.112 26.6487 116.33 28.2401 113.438 29.6311C112.155 30.2664 110.836 30.8316 109.486 31.3239C108.889 31.5397 108.28 31.7254 107.663 31.8802C107.399 31.944 107.136 31.9959 106.868 32.0424C106.601 32.0889 106.96 32.0132 106.812 32.0521C106.649 32.0948 106.314 31.9981 106.762 32.1176L107.363 32.4511C107.52 32.5858 107.618 33.015 107.571 32.6923C107.564 32.6425 107.49 32.2468 107.52 32.4495C107.45 31.9808 107.417 31.5045 107.382 31.0325C107.306 30.0323 107.411 28.8867 107.13 27.9184C107.052 27.6177 106.91 27.3352 106.715 27.0876C106.519 26.84 106.273 26.6324 105.992 26.477C105.711 26.3216 105.399 26.2216 105.077 26.183C104.754 26.1444 104.427 26.1679 104.114 26.2521C103.56 26.4925 103.054 26.8217 102.617 27.2253C102.201 27.5388 101.788 27.8564 101.378 28.1779C97.5816 31.159 94.0038 34.3893 90.43 37.6127C88.5234 39.3341 86.6254 41.0647 84.7006 42.771C83.4158 43.9112 85.3445 45.7445 86.6293 44.6059C92.049 39.7942 97.2861 34.7781 102.985 30.2631C103.634 29.816 104.257 29.3365 104.853 28.8267C105.088 28.5953 104.898 28.7969 104.671 28.6969C104.788 28.7483 104.375 28.6293 104.523 28.6012C104.498 28.6061 104.523 28.5104 104.513 28.6985C104.51 28.7845 104.523 28.8753 104.528 28.9613C104.54 29.1775 104.552 29.3923 104.564 29.6057C104.611 30.4026 104.658 31.2006 104.742 31.9954C104.76 32.5971 104.874 33.1926 105.082 33.7611C105.715 35.1408 107.554 34.6105 108.741 34.2882C110.22 33.8607 111.661 33.3243 113.053 32.6842C116.585 31.1225 119.96 29.256 123.135 27.1079C123.439 26.928 123.66 26.6436 123.751 26.3133C123.841 25.9831 123.796 25.6322 123.623 25.333C123.439 25.0381 123.14 24.8242 122.791 24.7375C122.443 24.6508 122.072 24.6983 121.76 24.8697Z" fill="#211715"/>
<path d="M127.535 29.0094C130.939 30.4313 133.796 33.2005 135.955 36.0286C138.455 39.2964 139.939 43.1686 140.239 47.2027C140.248 47.5443 140.394 47.8698 140.647 48.1115C140.901 48.3531 141.242 48.4924 141.601 48.5002C141.961 48.4972 142.306 48.3596 142.56 48.1169C142.815 47.8742 142.959 47.5459 142.962 47.2027C142.669 42.7076 141.055 38.3818 138.306 34.7186C135.885 31.5483 132.735 28.3677 128.91 26.7711C128.596 26.608 128.228 26.5654 127.882 26.6519C127.535 26.7384 127.237 26.9475 127.047 27.2366C126.868 27.5343 126.818 27.8874 126.91 28.2195C127.001 28.5516 127.226 28.8361 127.535 29.0116V29.0094Z" fill="#211715"/>
<path d="M134.045 10.874C131.283 5.62273 125.26 2.15179 119.394 0.880194C113.737 -0.315716 107.872 -0.292442 102.227 0.948316C99.4778 1.55979 96.7419 2.54862 94.5687 4.30951C94.3161 4.55431 94.1746 4.88391 94.1746 5.22725C94.1746 5.57059 94.3161 5.90019 94.5687 6.14499C94.8276 6.38177 95.1725 6.51398 95.5314 6.51398C95.8902 6.51398 96.2351 6.38177 96.494 6.14499C97.9854 4.93503 100.187 4.12893 102.241 3.61694C104.786 3.00615 107.397 2.67957 110.022 2.64378C115.327 2.527 120.63 3.28228 125.247 5.899C127.982 7.36198 130.219 9.54242 131.692 12.1813C132.478 13.6746 134.827 12.3619 134.043 10.8713L134.045 10.874Z" fill="#211715"/>
<path d="M90.1293 6.73913C84.3568 8.90766 79.9548 13.7827 77.3459 19.0377C74.7127 24.3425 73.9514 30.4491 74.1902 36.2681C74.2408 39.428 74.8151 42.5604 75.892 45.5493C75.9962 45.8761 76.2279 46.1523 76.5395 46.321C76.8511 46.4897 77.2187 46.538 77.5666 46.456C77.9132 46.3621 78.2072 46.142 78.385 45.8433C78.5629 45.5446 78.6104 45.1912 78.5173 44.8595C76.5653 39.8688 76.5614 34.1369 77.2438 28.9153C77.9387 23.5975 79.9718 18.5528 83.6624 14.4568C85.6246 12.2797 88.0225 10.3052 90.8543 9.24178C91.1966 9.14171 91.4858 8.92065 91.6625 8.62391C91.8393 8.32716 91.8903 7.97721 91.805 7.64579C91.707 7.31522 91.4763 7.03475 91.1629 6.86506C90.8495 6.69538 90.4786 6.65014 90.1304 6.73913H90.1293Z" fill="#211715"/>
<path d="M136.439 15.7025C140.194 17.7029 142.532 21.1398 144.097 24.8664C145.752 28.8029 146.243 33.148 146.116 37.3613C146.052 40.0048 145.65 42.6311 144.918 45.1817C144.446 46.7928 147.074 47.48 147.544 45.8716C148.924 40.9226 149.232 35.7573 148.447 30.6913C147.898 26.4914 146.35 22.4662 143.922 18.9226C142.363 16.6709 140.271 14.8003 137.813 13.4621C136.282 12.6468 134.908 14.8867 136.439 15.7025Z" fill="#211715"/>
<path d="M21.8705 114.378C22.293 115.636 22.6135 116.922 22.8292 118.227C22.9237 118.552 23.1475 118.83 23.4532 119.002C23.7649 119.176 24.1363 119.224 24.4855 119.137C24.8348 119.049 25.1334 118.833 25.3156 118.536C25.4831 118.229 25.5317 117.875 25.4528 117.537C25.2376 116.232 24.9173 114.946 24.4947 113.688C24.3935 113.366 24.1714 113.09 23.8707 112.913C23.637 112.783 23.3677 112.722 23.0974 112.738C22.8271 112.754 22.568 112.847 22.3532 113.004C22.1385 113.161 21.9778 113.376 21.8918 113.621C21.8058 113.866 21.7984 114.129 21.8705 114.378Z" fill="#211715"/>
<path d="M143.14 47.9579C143.465 47.7028 143.842 47.5131 144.246 47.4004C144.65 47.2876 145.075 47.2541 145.493 47.3019C145.911 47.3496 146.315 47.4776 146.68 47.6782C147.045 47.8787 147.364 48.1477 147.617 48.4688C148.178 49.2587 148.202 50.3546 148.229 51.2726C148.266 52.3261 148.19 53.3804 148.002 54.4191C147.629 56.5459 146.8 58.5766 145.567 60.3846C145.048 61.2103 144.336 61.9106 143.487 62.4309C142.638 62.8025 141.72 63.0096 140.787 63.0402C140.429 63.0494 140.088 63.189 139.835 63.4304C139.582 63.6718 139.435 63.9966 139.426 64.3378C139.428 64.6812 139.572 65.0098 139.827 65.2526C140.082 65.4955 140.427 65.6329 140.787 65.6353C141.866 65.5761 142.932 65.3812 143.957 65.0558C144.975 64.6729 145.885 64.0667 146.612 63.2862C148.142 61.6315 149.286 59.6859 149.968 57.5781C150.719 55.4313 151.045 53.1706 150.933 50.9103C150.819 48.7267 150.208 46.649 148.122 45.4617C147.042 44.8692 145.794 44.6142 144.555 44.7329C143.315 44.8515 142.145 45.3376 141.211 46.1229C140.958 46.3677 140.817 46.6972 140.817 47.0404C140.817 47.3836 140.958 47.7131 141.211 47.9579C141.469 48.195 141.814 48.3275 142.173 48.3275C142.532 48.3275 142.877 48.195 143.136 47.9579H143.14Z" fill="#211715"/>
<path d="M139.722 61.4173C139.647 62.6637 139.405 63.8959 139 65.0834C138.856 65.5456 138.696 66.0025 138.535 66.4609C138.492 66.5842 138.45 66.7085 138.403 66.8307C138.383 66.8848 138.358 66.9329 138.339 66.9848C138.243 67.2551 138.42 66.815 138.357 66.9459C137.766 68.1728 137.093 69.3626 136.343 70.5082C134.199 73.9533 131.46 77.0287 128.242 79.6051C126.506 81.006 124.459 82.012 122.255 82.5467C120.548 82.9209 121.27 85.4235 122.979 85.0494C127.54 84.0497 131.33 80.8583 134.3 77.5587C136.85 74.8196 138.98 71.7499 140.626 68.4413C141.697 66.2324 142.316 63.8486 142.447 61.4183C142.504 59.7477 139.781 59.7499 139.725 61.4183L139.722 61.4173Z" fill="#211715"/>
<path d="M82.1655 46.123C81.3131 45.4081 80.2642 44.9401 79.1422 44.774C78.0202 44.6079 76.8717 44.7507 75.8319 45.1855C73.5504 46.1495 72.6689 48.1823 72.4766 50.4297C72.0976 54.8506 73.5135 59.8781 76.6857 63.2052C78.3875 64.9936 80.7201 66.2225 83.3006 65.6851C85.0121 65.3288 84.2877 62.8267 82.5768 63.183C80.7615 63.5615 79.0694 62.0331 78.0795 60.7561C76.7328 58.9356 75.8252 56.8538 75.4218 54.6597C75.2098 53.5839 75.1181 52.4896 75.1484 51.3953C75.1694 50.4606 75.1926 49.3814 75.7111 48.5548C76.6261 47.095 78.9264 46.8907 80.2402 47.9601C80.4998 48.1956 80.8444 48.327 81.2028 48.327C81.5613 48.327 81.9059 48.1956 82.1655 47.9601C82.4179 47.7153 82.5594 47.3858 82.5594 47.0426C82.5594 46.6994 82.4179 46.3699 82.1655 46.1251V46.123Z" fill="#211715"/>
<path d="M81.225 61.5611C81.9965 65.8325 83.6117 69.9256 85.985 73.6229C88.7069 77.752 92.4292 81.1979 96.8391 83.6707C99.0953 84.9254 101.577 85.7687 104.157 86.1577C104.505 86.238 104.871 86.1889 105.183 86.0205C105.494 85.852 105.726 85.5769 105.831 85.2511C105.925 84.9193 105.877 84.5659 105.7 84.2672C105.522 83.9685 105.227 83.7486 104.881 83.6551C100.533 83.042 96.6871 80.9091 93.4894 78.0962C89.9648 75.0483 87.2546 71.2424 85.5845 66.9951C84.8281 65.004 84.2486 62.9559 83.8521 60.8723C83.7534 60.5421 83.5225 60.2621 83.2093 60.0927C82.8961 59.9232 82.5255 59.8777 82.1775 59.9662C81.8335 60.0638 81.5424 60.2844 81.3651 60.5819C81.1878 60.8793 81.138 61.2305 81.2262 61.5622L81.225 61.5611Z" fill="#211715"/>
<path d="M96.8431 83.3258C96.7296 84.8856 96.4499 86.4102 96.2071 87.9537C96.1412 88.4621 96.04 88.9659 95.9042 89.4616C95.8702 89.5747 95.8324 89.6865 95.7908 89.7968C95.8719 89.5859 95.7652 89.8508 95.7289 89.9152C95.6709 90.0203 95.6071 90.1225 95.5378 90.2212C95.3857 90.4374 95.645 90.1363 95.4289 90.3434C95.2846 90.5051 95.1118 90.6416 94.9183 90.7467C94.6603 90.8932 94.3904 91.0198 94.1111 91.1251C93.7662 91.2625 93.427 91.4079 93.09 91.5576C91.6248 92.201 90.1629 92.852 88.6993 93.5002L89.3869 93.3229H89.3812C87.6289 93.3229 87.6261 95.918 89.3812 95.918C89.9201 95.8378 90.4362 95.6538 90.8981 95.3773L92.2845 94.7631C92.9728 94.4589 93.6609 94.1549 94.3488 93.8511C94.5609 93.7575 94.7748 93.6656 94.987 93.5721C95.0511 93.5434 95.2848 93.4369 94.9801 93.5721C94.5547 93.7608 95.5293 93.3629 95.5259 93.3645C96.2327 93.0828 96.8702 92.6639 97.3978 92.1345C98.2171 91.1766 98.7117 90.0041 98.816 88.7723C99.1031 86.9595 99.436 85.1607 99.5693 83.3285C99.5693 82.9844 99.4259 82.6543 99.1706 82.411C98.9153 82.1676 98.569 82.0309 98.2079 82.0309C97.8468 82.0309 97.5005 82.1676 97.2452 82.411C96.9899 82.6543 96.8465 82.9844 96.8465 83.3285L96.8431 83.3258Z" fill="#211715"/>
<path d="M124.486 82.796C124.613 84.8034 124.946 86.774 125.26 88.7598C125.466 90.0574 125.814 91.3338 126.834 92.2854C127.498 92.871 128.284 93.3161 129.142 93.5916C129.504 93.7197 128.745 93.4099 129.028 93.544C129.088 93.5726 129.151 93.598 129.212 93.6245C129.448 93.7283 129.683 93.8332 129.918 93.9392C131.522 94.6579 133.123 95.3807 134.722 96.1077C135.036 96.2723 135.405 96.3158 135.751 96.2291C136.098 96.1425 136.396 95.9325 136.585 95.6422C136.765 95.3445 136.814 94.9915 136.722 94.6595C136.631 94.3274 136.406 94.0429 136.097 93.8673C134.607 93.1926 133.116 92.5193 131.624 91.8474C130.707 91.5201 129.822 91.1163 128.98 90.6407C128.806 90.5178 128.653 90.3699 128.526 90.2023C128.453 90.0964 128.386 89.9869 128.325 89.8741C128.222 89.6843 128.325 89.9341 128.236 89.6627C128.078 89.1407 127.961 88.6083 127.884 88.07C127.606 86.3118 127.317 84.5736 127.207 82.796C127.199 82.4542 127.053 82.1286 126.8 81.8868C126.546 81.6451 126.204 81.506 125.846 81.4984C125.486 81.5014 125.141 81.639 124.887 81.8817C124.632 82.1244 124.487 82.4528 124.484 82.796H124.486Z" fill="#211715"/>
<path d="M156.351 194.746C156.341 188.475 155.992 182.203 155.973 175.932C155.958 170.964 156.57 165.984 157.207 161.057C157.448 159.189 157.631 157.716 157.962 155.834C158.047 155.502 157.996 155.152 157.819 154.856C157.643 154.559 157.353 154.338 157.011 154.238C156.663 154.149 156.292 154.194 155.979 154.364C155.665 154.534 155.435 154.814 155.336 155.144C154.615 159.253 154.145 163.424 153.738 167.572C153.498 170.028 153.291 172.492 153.254 174.961C153.211 177.877 153.324 180.797 153.404 183.71C153.506 187.386 153.623 191.068 153.631 194.747C153.631 196.417 156.354 196.42 156.354 194.747L156.351 194.746Z" fill="#211715"/>
<path d="M60.9394 124.402C62.3524 135.288 63.8262 146.166 65.2506 157.05C65.802 161.258 66.4226 165.459 66.7079 169.693C66.9933 173.927 67.1459 178.155 67.2689 182.39C67.3886 186.508 67.4845 190.629 67.4817 194.749C67.4817 196.419 70.2046 196.422 70.2046 194.749C70.2097 186.865 69.9896 178.959 69.5193 171.087C69.2782 167.046 68.7569 163.051 68.2333 159.036C67.5072 153.472 66.7726 147.909 66.0295 142.346C65.2353 136.366 64.4458 130.384 63.6611 124.402C63.6503 124.062 63.5034 123.737 63.2504 123.496C62.9974 123.255 62.6573 123.115 62.2997 123.105C61.9393 123.107 61.5943 123.244 61.3395 123.487C61.0846 123.73 60.9405 124.059 60.9382 124.402H60.9394Z" fill="#211715"/>
<path d="M52.0015 142.53C50.7376 137.113 49.4346 131.704 48.2184 126.277C47.6273 123.639 47.0627 120.997 46.5245 118.349C46.3963 117.714 46.2702 117.078 46.1461 116.441C46.0946 115.774 45.8709 115.128 45.4949 114.563C44.7796 113.686 43.7591 113.602 42.6898 113.684C39.0043 114.024 35.3396 114.545 31.7103 115.244C28.3255 115.781 24.9716 116.482 21.6617 117.344C20.4608 117.679 19.4959 118.458 19.4925 119.741C19.4891 121.025 19.7358 122.361 19.8459 123.648C20.0853 126.433 20.2935 129.221 20.5266 132.007C20.9901 137.617 21.5363 143.233 22.5506 148.781C23.3936 153.391 24.5264 158.054 26.8278 162.225C29.0283 166.344 32.711 169.572 37.2026 171.316C39.7866 172.31 42.5524 172.803 45.3385 172.767C48.1246 172.731 50.8753 172.166 53.4299 171.105C57.9538 169.253 61.8567 166.023 65.5927 163.034C66.3931 162.393 67.1895 161.749 67.9917 161.111C68.2442 160.866 68.3858 160.536 68.3858 160.193C68.3858 159.85 68.2442 159.52 67.9917 159.276C67.7328 159.039 67.3878 158.907 67.029 158.907C66.6702 158.907 66.3253 159.039 66.0664 159.276C62.6196 162.018 59.237 164.877 55.4199 167.154C51.4183 169.541 46.765 170.771 42.0465 169.966C39.7693 169.616 37.5876 168.839 35.628 167.68C33.6683 166.521 31.9698 165.002 30.6308 163.212C28.1683 159.824 26.8692 155.82 25.9457 151.834C23.5933 141.678 23.3108 131.221 22.3231 120.899C22.3179 120.622 22.291 120.346 22.2426 120.072C22.2993 120.28 22.2596 119.844 22.1995 119.813C22.2744 119.851 22.0151 119.972 22.0055 119.958C22.2479 119.903 22.487 119.836 22.7219 119.757C23.3459 119.591 23.975 119.442 24.6053 119.298C26.2503 118.923 27.9085 118.59 29.5683 118.274C33.1222 117.597 36.9853 116.93 40.3957 116.516C41.102 116.43 41.8088 116.354 42.5179 116.294C42.7729 116.289 43.0274 116.271 43.2803 116.24C43.5815 116.182 43.3909 116.299 43.3427 116.141C43.3994 116.32 43.4142 116.573 43.4528 116.771C43.9327 119.248 44.4421 121.72 44.981 124.187C46.0752 129.22 47.2671 134.233 48.447 139.248C48.7582 140.572 49.0687 141.896 49.3784 143.221C49.7585 144.85 52.385 144.161 52.0038 142.531L52.0015 142.53Z" fill="#211715"/>
<path d="M177.34 137.281C179.412 141.272 181.013 145.47 182.113 149.798C182.68 151.858 183.048 153.963 183.213 156.086C183.332 158.4 183.176 160.718 182.748 162.998C182.398 165.015 181.922 167.021 180.479 168.603C179.316 169.868 177.835 170.83 176.174 171.398C172.629 172.615 169.064 172.101 165.652 170.753C161.654 169.176 158.803 166.279 156.859 162.643C156.065 161.154 153.714 162.466 154.508 163.953C156.465 167.62 159.373 170.732 163.28 172.564C167.045 174.328 171.246 175.258 175.398 174.325C179.745 173.349 183.497 170.449 184.786 166.298C185.513 163.811 185.911 161.247 185.972 158.666C186.032 156.228 185.8 153.791 185.278 151.403C184.146 146.044 182.267 140.855 179.689 135.972C178.901 134.479 176.552 135.792 177.337 137.282L177.34 137.281Z" fill="#211715"/>
<path d="M177.282 80.6047L176.904 85.9306C176.906 86.2741 177.05 86.603 177.305 86.8459C177.56 87.0889 177.905 87.2262 178.265 87.2282C178.624 87.2202 178.965 87.0809 179.219 86.8393C179.472 86.5977 179.618 86.2723 179.627 85.9306L180.005 80.6047C180.003 80.2612 179.859 79.9322 179.604 79.6893C179.349 79.4463 179.004 79.309 178.644 79.3072C178.285 79.315 177.944 79.4543 177.69 79.6959C177.436 79.9376 177.29 80.2631 177.282 80.6047Z" fill="#211715"/>
<path d="M185.554 93.3937C187.352 92.9612 189.165 92.5541 190.999 92.281C191.342 92.1915 191.634 91.9781 191.813 91.6863C191.995 91.3831 192.045 91.0238 191.951 90.6861C191.855 90.3608 191.632 90.083 191.327 89.9109C191.003 89.7532 190.632 89.707 190.277 89.78C188.444 90.0536 186.631 90.4585 184.832 90.8932C184.483 90.9847 184.188 91.2042 184.009 91.5035C183.831 91.8028 183.785 92.1574 183.881 92.4892C183.977 92.821 184.207 93.1029 184.521 93.2728C184.835 93.4427 185.207 93.4868 185.555 93.3953L185.554 93.3937Z" fill="#211715"/>
<path d="M183.762 88.6771C185.022 87.3191 186.377 86.0429 187.816 84.8569C188.07 84.6126 188.212 84.283 188.212 83.9395C188.212 83.596 188.07 83.2663 187.816 83.022C187.557 82.7862 187.212 82.6547 186.854 82.6547C186.495 82.6547 186.151 82.7862 185.891 83.022C184.452 84.2078 183.097 85.484 181.836 86.8422C181.589 87.0908 181.447 87.4185 181.439 87.7613C181.439 88.0184 181.518 88.2699 181.668 88.4838C181.817 88.6978 182.03 88.8646 182.279 88.9631C182.528 89.0615 182.803 89.0872 183.067 89.0369C183.332 88.9866 183.575 88.8625 183.765 88.6804L183.762 88.6771Z" fill="#211715"/>
<path d="M24.1464 113.116C22.3629 111.224 20.5312 109.378 18.7506 107.486C16.347 104.932 14.1591 102.162 11.6444 99.71C9.52053 97.6388 7.18622 95.7547 4.99089 93.7516C4.43204 93.2631 3.92926 92.7194 3.49103 92.1297C3.16882 91.6777 2.51192 90.8694 2.67416 90.265C2.64013 90.392 2.94645 89.959 3.02417 89.9076C3.16331 89.8324 3.3249 89.8038 3.48309 89.8265C4.0906 89.8501 4.67293 90.0643 5.13951 90.4358C8.37294 92.4975 11.557 94.6262 14.6917 96.8219C15.004 96.9932 15.3746 97.0405 15.7231 96.9533C16.0717 96.8662 16.3702 96.6518 16.5541 96.3564C16.7283 96.0575 16.7748 95.706 16.6838 95.3753C16.5928 95.0445 16.3714 94.7599 16.0657 94.5809C13.0085 92.4303 9.89984 90.3497 6.73978 88.3392C5.34146 87.4461 3.58066 86.8108 1.93104 87.5347C0.0964929 88.3414 -0.401002 90.3169 0.311488 91.9934C1.04043 93.7073 2.42797 95.0254 3.82231 96.2645C5.08562 97.3847 6.33021 98.5206 7.60713 99.6273C10.3867 102.034 12.6666 104.823 15.1342 107.506C17.4521 110.028 19.8692 112.461 22.2211 114.954C23.3953 116.197 25.3156 114.359 24.1464 113.119V113.116Z" fill="#211715"/>
<path d="M15.5879 93.744C13.8385 91.403 12.0538 89.0869 10.3123 86.7427C9.36952 85.4749 8.44034 84.2016 7.46917 82.9522C6.8327 82.1353 5.50529 80.695 6.00959 79.5726C6.0825 79.4237 6.18651 79.2905 6.31526 79.1812C6.444 79.0719 6.59478 78.9888 6.75838 78.9368C7.00075 78.8571 7.25786 78.8261 7.51342 78.846C7.64022 78.8569 7.76475 78.885 7.88328 78.9293C8.89982 79.3007 9.9192 80.5317 10.6742 81.3887C11.9171 82.7997 13.1135 84.2541 14.3161 85.6938C16.1253 87.8593 17.9243 90.0321 19.7131 92.2124C19.9694 92.4542 20.3154 92.5898 20.676 92.5898C21.0366 92.5898 21.3827 92.4542 21.639 92.2124C21.886 91.9649 22.0237 91.6365 22.0237 91.2949C22.0237 90.9534 21.886 90.6249 21.639 90.3774C19.8937 88.2419 18.1351 86.1166 16.3634 84.0016C14.931 82.2867 13.5327 80.5269 12.0011 78.8904C11.0486 77.8723 9.92885 76.8008 8.51692 76.4034C7.77294 76.2021 6.98591 76.1949 6.23802 76.3826C5.49013 76.5702 4.80882 76.9458 4.26524 77.4701C1.44421 80.3133 4.80698 83.7513 6.54112 86.1204C8.73702 89.1231 11.014 92.0675 13.2423 95.0513C13.4313 95.3413 13.7299 95.5512 14.0764 95.6378C14.4229 95.7244 14.7911 95.6811 15.1052 95.5168C15.4147 95.3413 15.6394 95.0567 15.7308 94.7247C15.8222 94.3926 15.7729 94.0396 15.5936 93.7419L15.5879 93.744Z" fill="#211715"/>
<path d="M21.849 90.6402C18.9389 86.5232 16.1763 82.3602 13.7041 77.9923C13.2605 77.2077 12.8122 76.4255 12.3591 75.6459C11.9504 74.9668 11.7376 74.1966 11.7425 73.4136C11.7425 73.3558 11.8253 72.9216 11.806 72.946C12.0511 72.7441 12.3426 72.6002 12.6569 72.5259C12.7819 72.5062 12.9096 72.5088 13.0336 72.5334C13.1992 72.5467 13.3625 72.5794 13.5198 72.6308C13.8334 72.7442 14.1196 72.9171 14.361 73.139C14.5684 73.3229 14.7626 73.5197 14.9425 73.7283C15.166 73.984 15.2408 74.0808 15.369 74.2446C16.2767 75.4048 17.1469 76.5915 18.0057 77.7853C20.5062 81.2622 22.7827 84.8677 25.0966 88.4603C26.0116 89.8811 28.368 88.5792 27.4479 87.1503C25.1992 83.6605 22.9903 80.1517 20.5669 76.7699C19.6411 75.4778 18.7086 74.1873 17.7209 72.9373C16.6766 71.6165 15.5126 70.2957 13.6933 70.014C11.464 69.6691 9.24935 70.9088 9.03492 73.1617C8.88743 74.7117 9.57269 76.1785 10.3311 77.5004C11.5593 79.6418 12.6881 81.8563 14.0462 83.927C15.8178 86.6302 17.6307 89.3107 19.4976 91.9518C20.4716 93.3299 22.8315 92.0323 21.849 90.6423V90.6402Z" fill="#211715"/>
<path d="M40.0906 109.977C40.0962 111.645 40.3924 113.299 40.4689 114.963C40.4689 115.307 40.6124 115.637 40.8677 115.881C41.123 116.124 41.4693 116.261 41.8304 116.261C42.1915 116.261 42.5378 116.124 42.7931 115.881C43.0484 115.637 43.1918 115.307 43.1918 114.963C43.1153 113.299 42.8191 111.645 42.8135 109.977C42.8135 109.633 42.67 109.303 42.4147 109.06C42.1594 108.817 41.8131 108.68 41.452 108.68C41.0909 108.68 40.7447 108.817 40.4893 109.06C40.234 109.303 40.0906 109.633 40.0906 109.977Z" fill="#211715"/>
<path d="M40.5727 111.439C42.9743 109.991 44.8223 107.844 45.8426 105.316C47.2705 102.222 48.3559 98.9942 49.0812 95.6855C49.4202 94.1048 49.6729 92.5085 49.8385 90.9029C49.9701 89.4708 49.9678 87.8872 48.8316 86.7827C47.8978 85.8755 46.2431 85.8392 45.0428 86.242C43.5151 86.754 42.7624 88.4219 42.135 89.7184C41.5487 91.137 40.8208 92.4987 39.9612 93.7846C39.3707 94.5653 38.231 95.2713 37.278 94.4685C36.4214 93.7467 36.3545 92.1524 36.3454 91.1576C36.3352 90.0763 36.7885 88.8679 37.9338 88.4635C38.0397 88.4463 38.144 88.4211 38.2458 88.3884C38.1283 88.4019 38.5674 88.416 38.3025 88.3884C38.5747 88.4305 38.8443 88.4865 39.1103 88.556C39.8465 88.7355 40.5924 88.8765 41.3448 88.9782C41.9814 89.0586 42.629 88.9832 43.2266 88.759C43.8242 88.5349 44.352 88.1693 44.7603 87.6969C45.1811 87.2254 45.4755 86.6637 45.6183 86.0598C45.7611 85.456 45.7479 84.8282 45.58 84.2303C45.2124 83.1533 43.9984 82.4353 43.0483 81.8687C41.7816 81.1199 40.4598 80.4591 39.0933 79.8916C38.192 79.4818 37.2032 79.2774 36.2048 79.2944C35.2064 79.3115 34.2258 79.5496 33.3406 79.99C31.7227 80.7534 30.561 82.0315 29.4264 83.3279C28.8716 83.9519 28.3645 84.613 27.909 85.3062C27.6401 85.723 27.3871 86.1496 27.1358 86.5761C27.053 86.7167 26.9713 86.8578 26.8868 86.9978C26.8023 87.1379 26.7166 87.2833 26.6247 87.4239C26.4303 87.6722 26.4749 87.6679 26.7586 87.4109H27.483C27.8706 87.8016 27.9873 87.8993 27.833 87.7039C27.7842 87.6405 27.7365 87.5763 27.69 87.5115C27.6049 87.3941 27.5227 87.2752 27.4444 87.153C26.5294 85.7317 24.1735 87.0341 25.0931 88.463C25.3611 88.9839 25.7668 89.4294 26.2702 89.7557C27.2436 90.2498 28.2153 89.7757 28.7951 88.9923C29.6948 87.7764 30.2853 86.3929 31.2911 85.2359C32.2123 84.173 33.1245 83.063 34.411 82.3834C34.9558 82.077 35.5655 81.8907 36.1957 81.8379C36.9693 81.8518 37.7259 82.0567 38.3916 82.4326C39.504 82.9565 40.6232 83.481 41.676 84.1086C42.109 84.3528 42.515 84.6381 42.8877 84.9602C42.9436 85.0259 43.0045 85.0877 43.0698 85.1451L42.9983 85.0602C43.0766 85.1932 43.0725 85.1733 42.9859 85.0007C43.0034 84.991 43.0108 85.3251 43.0216 85.2316C43.0219 85.4083 42.9809 85.5829 42.9017 85.7427C42.8226 85.9025 42.7071 86.0436 42.5638 86.1557C42.4204 86.2678 42.2527 86.3481 42.0728 86.3909C41.8929 86.4337 41.7053 86.4379 41.5234 86.4031C40.2976 86.2582 39.0008 85.6592 37.7057 85.8587C37.0066 85.9924 36.3467 86.2703 35.7724 86.673C35.198 87.0756 34.7231 87.5932 34.381 88.1894C33.679 89.5496 33.4545 91.0889 33.7405 92.58C33.9107 93.9359 34.331 95.4492 35.4582 96.3824C36.0517 96.8679 36.771 97.1927 37.5412 97.3228C38.3113 97.4529 39.104 97.3836 39.8364 97.122C42.9093 96.0309 43.7505 92.1761 45.1687 89.7205C45.3083 89.4559 45.4707 89.2027 45.6543 88.9636C45.7678 88.8252 45.9669 88.6738 45.9436 88.6836C45.7609 88.7609 46.2306 88.6338 46.2023 88.6382C46.1138 88.6517 46.4082 88.6225 46.3725 88.6252C46.554 88.6111 46.7344 88.6333 46.9148 88.6252C46.9255 88.6252 47.0021 88.7522 46.9204 88.609C47.4355 89.5091 47.1547 90.7478 47.0311 91.7344C46.5383 95.3612 45.5828 98.917 44.1856 102.323C43.6713 103.759 43.0077 105.143 42.2047 106.453C41.4362 107.575 40.4076 108.515 39.1982 109.198C37.7125 110.077 39.0785 112.323 40.5727 111.439Z" fill="#211715"/>
<path d="M124.015 126.046C123.45 124.132 123.274 122.131 123.498 120.153C123.668 118.296 123.832 115.702 124.803 114.071C127.238 114.265 128.379 111.065 129.417 109.439C134.762 101.071 141.556 97.5102 149.73 96.6154C154.175 96.1828 158.66 96.8778 162.733 98.6298C166.805 100.382 170.318 103.129 172.918 106.592C173.981 108.012 175.777 111.187 178.137 110.706C179.934 114.875 181.54 119.498 180.205 123.831C179.373 126.299 177.82 128.49 175.729 130.148C172.598 132.743 168.642 134.302 164.597 135.187C160.357 136.114 156.009 136.301 151.69 136.638C147.252 137.034 142.779 136.888 138.38 136.201C132.711 135.243 126.507 132.229 124.307 126.845C124.199 126.58 124.101 126.314 124.015 126.046Z" fill="#227DEE"/>
<path d="M149.73 96.6133C141.555 97.508 134.762 101.069 129.417 109.437C128.305 111.178 127.075 114.727 124.261 113.974C123.117 113.668 122.616 112.731 122.325 111.682C122.033 110.632 122.344 108.773 122.745 107.757C127.112 96.6641 137.153 89.8725 149.638 89.4551C162.397 89.0286 172.328 92.659 178.841 103.552C179.389 104.471 180.316 107.012 180.228 108.058C180.14 109.103 179.872 109.923 178.86 110.443C176.144 111.841 174.087 108.152 172.918 106.59C170.318 103.127 166.805 100.38 162.733 98.6276C158.66 96.8756 154.175 96.1807 149.73 96.6133Z" fill="white"/>
<path d="M147.343 81.033C150.22 83.2053 149.385 86.5005 148.442 87.7818C146.873 89.9217 143.217 90.2855 141.285 88.8869C138.571 86.9227 139.158 83.9508 140.707 81.9045C142.025 80.1631 145.334 79.5175 147.343 81.033Z" fill="white"/>
<path d="M157.824 80.502C160.701 82.6749 159.866 85.9696 158.924 87.2514C157.353 89.3913 153.698 89.7552 151.766 88.3565C149.051 86.3924 149.64 83.4204 151.188 81.3736C152.506 79.6321 155.818 78.9882 157.824 80.502Z" fill="white"/>
<path d="M149.73 95.3157C144.841 95.8645 140.132 97.3437 136.172 100.196C134.018 101.767 132.097 103.61 130.464 105.675C129.602 106.732 128.814 107.843 128.106 108.999C127.613 109.82 127.205 110.684 126.668 111.48C126.448 111.838 126.17 112.16 125.844 112.435C125.739 112.539 125.613 112.621 125.472 112.676C125.433 112.696 125.113 112.784 125.207 112.773C124.259 112.881 123.759 112.081 123.6 111.189C123.233 109.131 124.568 106.713 125.571 104.895C127.759 100.864 131.009 97.4441 135.002 94.9708C139.097 92.5119 143.776 91.078 148.607 90.8019C153.479 90.419 158.382 90.9286 163.053 92.3032C167.346 93.6673 171.173 96.1124 174.128 99.3797C175.603 100.996 177.201 102.996 178.02 104.918C178.464 105.839 178.752 106.822 178.871 107.829C178.902 108.241 178.803 108.652 178.587 109.01C178.479 109.145 178.337 109.252 178.176 109.323C178.084 109.369 177.691 109.46 177.782 109.452C177.452 109.477 177.124 109.38 176.866 109.182C176.497 108.931 176.164 108.636 175.874 108.304C175.285 107.61 174.739 106.884 174.238 106.13C171.897 102.931 168.82 100.283 165.242 98.3891C161.664 96.4952 157.68 95.4052 153.593 95.2022C152.305 95.1425 151.014 95.1812 149.733 95.3179C149.375 95.3275 149.034 95.4673 148.781 95.7086C148.528 95.9499 148.381 96.2743 148.371 96.6154C148.373 96.9589 148.518 97.2877 148.772 97.5306C149.027 97.7734 149.372 97.9108 149.733 97.913C155.232 97.3527 160.765 98.6184 165.398 101.496C167.749 102.938 169.81 104.769 171.484 106.903C172.863 108.679 174.004 110.924 176.281 111.79C176.874 112.009 177.515 112.084 178.146 112.008C178.777 111.932 179.379 111.707 179.896 111.354C180.46 110.943 180.91 110.407 181.206 109.793C181.503 109.178 181.637 108.504 181.597 107.828C181.55 105.458 180.236 103.1 178.916 101.167C176.144 96.9614 172.232 93.5478 167.593 91.2863C162.915 89.0918 157.717 88.2235 152.534 88.1322C147.054 88.0359 141.659 88.8539 136.684 91.1154C131.989 93.282 127.974 96.5885 125.045 100.703C123.482 102.837 122.241 105.169 121.357 107.632C120.55 109.982 120.47 113.673 123.202 114.961C125.804 116.187 128.007 114.456 129.283 112.39C129.83 111.505 130.281 110.572 130.852 109.7C131.648 108.472 132.533 107.299 133.501 106.189C136.756 102.418 141.19 99.7364 146.157 98.5363C147.335 98.2554 148.53 98.0462 149.736 97.9103C150.094 97.9003 150.434 97.7604 150.687 97.5192C150.94 97.278 151.087 96.9537 151.098 96.6127C151.095 96.2683 150.95 95.9388 150.694 95.6958C150.438 95.4529 150.091 95.3163 149.73 95.3157Z" fill="#211715"/>
<path d="M146.38 81.9504C146.597 82.1158 146.803 82.295 146.996 82.4867C147.092 82.584 147.184 82.6857 147.273 82.7895C147.11 82.6008 147.346 82.8976 147.395 82.9733C147.454 83.0631 147.511 83.1544 147.565 83.2474C147.6 83.3085 147.63 83.3712 147.664 83.4323C147.677 83.4556 147.755 83.6134 147.683 83.4631C147.611 83.3128 147.749 83.6415 147.764 83.6826C147.801 83.7908 147.834 83.9016 147.863 84.0124C147.893 84.1233 147.912 84.2314 147.936 84.3417C147.993 84.5909 147.923 84.12 147.941 84.3714C147.961 84.6005 147.968 84.8304 147.963 85.0602C147.959 85.1647 147.952 85.2689 147.942 85.3727C147.938 85.4165 147.93 85.4608 147.927 85.5046C147.921 85.6511 147.936 85.3759 147.945 85.3754C147.938 85.3754 147.836 85.8912 147.819 85.9528C147.77 86.1318 147.705 86.3058 147.644 86.4805C147.631 86.5156 147.612 86.5497 147.601 86.5854C147.56 86.7102 147.662 86.4464 147.664 86.4448C147.615 86.4718 147.568 86.6416 147.538 86.6973C147.472 86.82 147.399 86.9393 147.32 87.0546C147.247 87.1628 147.146 87.2536 147.294 87.1006C147.201 87.1968 147.115 87.2985 147.018 87.3915C146.946 87.4607 146.87 87.5277 146.791 87.5915C146.739 87.6348 146.686 87.6753 146.633 87.7169C146.647 87.7061 146.832 87.5953 146.703 87.6602C146.493 87.7683 146.301 87.9099 146.086 88.0143C145.982 88.0646 145.732 88.1619 145.988 88.0683C145.892 88.1046 145.795 88.1397 145.697 88.1716C145.451 88.2509 145.199 88.3145 144.945 88.3619C144.894 88.3717 144.576 88.416 144.767 88.3944C144.967 88.37 144.592 88.4073 144.537 88.4111C144.298 88.4252 144.058 88.4252 143.819 88.4111C143.776 88.4111 143.391 88.3792 143.597 88.3976C143.804 88.416 143.427 88.3673 143.384 88.3581C143.16 88.3145 142.939 88.2558 142.724 88.1824C142.678 88.1667 142.634 88.1478 142.589 88.1338C142.413 88.0797 142.805 88.2489 142.651 88.1559C142.572 88.1089 142.481 88.0759 142.399 88.0321C142.304 87.9813 142.215 87.924 142.122 87.8699C142.101 87.8586 141.97 87.7715 142.094 87.8559C142.242 87.9559 141.94 87.7321 141.941 87.7326C141.738 87.5639 141.567 87.3736 141.38 87.192C141.274 87.0876 141.398 87.2174 141.412 87.2363C141.379 87.1925 141.346 87.1482 141.313 87.1033C141.23 86.9864 141.153 86.8655 141.083 86.7411C141.03 86.6497 140.912 86.3875 141.014 86.6329C140.975 86.5394 140.939 86.4448 140.908 86.3486C140.871 86.2377 140.84 86.1258 140.814 86.0123C140.803 85.9642 140.795 85.915 140.783 85.8668C140.726 85.6241 140.783 86.029 140.783 85.8712C140.783 85.6581 140.755 85.4473 140.765 85.2332C140.769 85.1348 140.785 85.0364 140.788 84.9386C140.78 85.2683 140.797 84.8931 140.818 84.7947C140.867 84.5664 140.93 84.341 141.008 84.12C141.041 84.0249 141.079 83.9313 141.114 83.8367C141.124 83.8108 141.193 83.6529 141.126 83.8054C141.049 83.98 141.169 83.7178 141.186 83.6843C141.285 83.4867 141.393 83.2943 141.51 83.1069C141.573 83.0063 141.638 82.907 141.706 82.809C141.74 82.7598 141.944 82.4846 141.838 82.6192C141.725 82.7641 141.855 82.6019 141.888 82.5689C141.933 82.5224 141.977 82.4754 142.024 82.43C142.117 82.3391 142.23 82.2634 142.321 82.171C142.42 82.0704 142.264 82.2153 142.247 82.2251C142.32 82.1807 142.388 82.1304 142.46 82.0861C142.563 82.0229 142.669 81.9634 142.776 81.9082C142.901 81.8444 143.028 81.7855 143.158 81.7314C142.89 81.8434 143.231 81.7141 143.336 81.6822C143.598 81.6028 143.864 81.5606 144.13 81.5028C144.284 81.4692 144.055 81.513 144.04 81.5141C144.131 81.5092 144.221 81.4973 144.313 81.4925C144.459 81.4849 144.605 81.4822 144.751 81.486C144.879 81.4892 145.006 81.5055 145.133 81.5092C144.808 81.5001 145.211 81.5244 145.311 81.5455C145.452 81.5752 145.595 81.6114 145.731 81.6536C145.781 81.6732 145.833 81.6903 145.885 81.705C146.061 81.7417 145.622 81.5747 145.911 81.7147C146.174 81.8394 146.423 81.9873 146.657 82.1564C146.811 82.2425 146.982 82.2987 147.159 82.3219C147.336 82.345 147.516 82.3347 147.689 82.2915C147.862 82.2483 148.025 82.173 148.167 82.0699C148.31 81.9669 148.429 81.8381 148.519 81.6909C148.691 81.3914 148.736 81.0408 148.645 80.7108C148.554 80.3807 148.335 80.0962 148.031 79.9154C145.827 78.3005 142.504 78.6963 140.434 80.3052C139.476 81.1363 138.772 82.2 138.398 83.3826C137.969 84.5444 137.924 85.8037 138.268 86.9908C138.679 88.2105 139.502 89.2665 140.608 89.9943C141.714 90.7221 143.041 91.0809 144.384 91.0149C145.666 90.9866 146.915 90.6216 147.994 89.9601C148.991 89.3237 149.759 88.4118 150.196 87.3471C150.728 86.1074 150.832 84.7382 150.493 83.4383C150.153 82.1384 149.387 80.9756 148.307 80.1187C148.047 79.8828 147.702 79.7511 147.344 79.7511C146.985 79.7511 146.64 79.8828 146.381 80.1187C146.13 80.3637 145.99 80.6922 145.99 81.0343C145.989 81.3765 146.129 81.7052 146.38 81.9504Z" fill="#211715"/>
<path d="M156.861 81.4211C157.078 81.5867 157.284 81.7659 157.476 81.9574C157.573 82.0553 157.665 82.1569 157.754 82.2607C157.592 82.0721 157.826 82.3689 157.876 82.4446C157.933 82.5338 157.99 82.6257 158.047 82.7187C158.081 82.7792 158.111 82.8419 158.145 82.903C158.158 82.9263 158.236 83.0847 158.164 82.9344C158.092 82.7841 158.23 83.1128 158.245 83.1539C158.282 83.262 158.315 83.3718 158.344 83.4831C158.373 83.5913 158.393 83.7026 158.418 83.8129C158.474 84.0622 158.404 83.5907 158.422 83.8421C158.442 84.0714 158.449 84.3015 158.444 84.5315C158.44 84.636 158.433 84.7401 158.423 84.8439C158.419 84.8877 158.411 84.9321 158.408 84.9753C158.402 85.1218 158.417 84.8467 158.427 84.8467C158.419 84.8467 158.317 85.3624 158.3 85.4235C158.251 85.6025 158.187 85.7771 158.125 85.9512C158.112 85.9863 158.094 86.0209 158.082 86.0566C158.041 86.1815 158.143 85.9171 158.145 85.916C158.095 85.9425 158.049 86.1128 158.019 86.1685C157.953 86.2913 157.881 86.4106 157.802 86.5259C157.728 86.634 157.627 86.7243 157.775 86.5719C157.682 86.6681 157.597 86.7697 157.499 86.8627C157.427 86.9319 157.351 86.9986 157.272 87.0628C157.221 87.1055 157.167 87.1466 157.115 87.1876C157.128 87.1774 157.313 87.066 157.184 87.1336C156.974 87.2417 156.783 87.3828 156.568 87.4872C156.463 87.538 156.214 87.6353 156.47 87.5412C156.373 87.5769 156.276 87.6126 156.178 87.6445C155.932 87.7238 155.681 87.7874 155.426 87.8348C155.375 87.844 155.057 87.8889 155.248 87.8672C155.439 87.8456 155.073 87.8802 155.017 87.8835C154.779 87.8972 154.539 87.8972 154.3 87.8835C154.257 87.8835 153.872 87.8516 154.079 87.8694C154.285 87.8872 153.908 87.8397 153.865 87.8305C153.641 87.7866 153.42 87.7279 153.205 87.6548C153.16 87.6391 153.115 87.6202 153.069 87.6056C152.894 87.5515 153.287 87.7213 153.132 87.6283C153.053 87.5807 152.962 87.5477 152.88 87.5045C152.785 87.4536 152.696 87.3963 152.603 87.3423C152.583 87.3304 152.452 87.2439 152.575 87.3277C152.723 87.4282 152.422 87.2049 152.422 87.2049C152.219 87.0357 152.048 86.8454 151.861 86.6643C151.755 86.56 151.879 86.6897 151.893 86.7086C151.861 86.6643 151.827 86.6205 151.795 86.5756C151.712 86.4585 151.634 86.3378 151.563 86.2134C151.512 86.1215 151.393 85.8593 151.495 86.1053C151.457 86.0112 151.42 85.9166 151.389 85.8209C151.352 85.7101 151.321 85.5976 151.295 85.4846C151.284 85.436 151.276 85.3873 151.264 85.3392C151.205 85.0959 151.264 85.5014 151.264 85.343C151.264 85.13 151.237 84.9196 151.246 84.7055C151.251 84.6071 151.267 84.5088 151.269 84.4109C151.26 84.7401 151.279 84.3655 151.299 84.2665C151.348 84.0384 151.411 83.8133 151.488 83.5924C151.522 83.4967 151.559 83.4031 151.596 83.3091C151.605 83.2831 151.674 83.1252 151.606 83.2777C151.53 83.4518 151.65 83.1901 151.667 83.1566C151.765 82.9593 151.874 82.7668 151.991 82.5786C152.054 82.4781 152.119 82.3786 152.187 82.2813C152.221 82.2321 152.426 81.9569 152.319 82.0915C152.205 82.2364 152.336 82.0742 152.369 82.0407C152.414 81.9948 152.458 81.9477 152.504 81.9023C152.599 81.8115 152.711 81.7358 152.802 81.6433C152.901 81.5428 152.745 81.6871 152.728 81.6974C152.801 81.6536 152.869 81.6033 152.942 81.5585C153.044 81.4957 153.149 81.4363 153.257 81.3811C153.381 81.3168 153.509 81.2584 153.639 81.2043C153.371 81.3162 153.712 81.187 153.817 81.1551C154.079 81.0757 154.345 81.0335 154.611 80.9751C154.765 80.9416 154.536 80.9859 154.52 80.9865C154.612 80.9821 154.703 80.9702 154.794 80.9654C154.94 80.9573 155.086 80.9551 155.232 80.9589C155.36 80.9621 155.488 80.9783 155.615 80.9821C155.29 80.9724 155.692 80.9973 155.792 81.0183C155.934 81.0481 156.075 81.0843 156.212 81.1265C156.263 81.1422 156.315 81.167 156.366 81.1778C156.542 81.2141 156.103 81.0475 156.392 81.1876C156.655 81.3123 156.904 81.4602 157.138 81.6293C157.45 81.8022 157.821 81.8503 158.17 81.7631C158.519 81.6758 158.818 81.4604 159.001 81.1638C159.172 80.8643 159.217 80.5137 159.126 80.1837C159.036 79.8536 158.816 79.5691 158.512 79.3883C156.308 77.7729 152.985 78.1692 150.915 79.7781C149.956 80.6088 149.253 81.6726 148.88 82.8555C148.45 84.017 148.404 85.2762 148.749 86.4632C149.161 87.6817 149.984 88.7363 151.09 89.463C152.196 90.1896 153.523 90.5476 154.864 90.4813C156.147 90.4526 157.396 90.0874 158.475 89.4259C159.472 88.7897 160.24 87.8781 160.677 86.8135C161.21 85.5737 161.313 84.2043 160.974 82.9043C160.634 81.6043 159.868 80.4414 158.787 79.5846C158.528 79.3488 158.183 79.2172 157.825 79.2172C157.466 79.2172 157.122 79.3488 156.862 79.5846C156.61 79.8297 156.468 80.1593 156.468 80.5026C156.468 80.846 156.609 81.1757 156.861 81.4211Z" fill="#211715"/>
<path d="M123.603 113.453C122.946 114.746 122.539 116.142 122.403 117.573C122.201 118.95 122.084 120.337 122.055 121.727C121.95 124.738 122.87 127.701 124.678 130.173C127.918 134.386 133.252 136.714 138.554 137.537C142.087 138.069 145.669 138.251 149.242 138.081C152.753 137.93 156.297 137.663 159.787 137.259C166.264 136.51 173.001 134.725 177.704 130.153C180.306 127.718 181.855 124.443 182.046 120.973C182.201 117.317 180.902 113.751 179.473 110.415C179.367 110.089 179.135 109.814 178.824 109.646C178.513 109.477 178.146 109.428 177.798 109.509C177.451 109.602 177.157 109.822 176.979 110.121C176.801 110.42 176.753 110.773 176.847 111.105C178.012 113.824 179.144 116.688 179.311 119.647C179.496 122.354 178.622 125.029 176.859 127.158C173.263 131.518 167.388 133.497 161.838 134.381C158.616 134.895 155.346 135.058 152.093 135.305C148.79 135.589 145.467 135.61 142.16 135.369C137.225 134.962 132.058 133.68 128.392 130.311C126.287 128.408 125.011 125.819 124.818 123.06C124.748 121.574 124.81 120.084 125.002 118.607C125.06 117.279 125.383 115.974 125.955 114.761C126.774 113.286 124.423 111.973 123.604 113.452L123.603 113.453Z" fill="#211715"/>
<path d="M156.577 124.673C156.754 124.751 156.927 124.838 157.094 124.934C155.914 123.628 155.519 121.938 156.424 120.859C156.75 120.515 157.149 120.241 157.594 120.055C158.04 119.869 158.521 119.776 159.008 119.781C160.272 119.868 162.832 120.21 163.947 120.76C162.52 120.032 161.669 118.11 162.586 116.843C162.952 116.336 164.602 115.563 166.163 115.777C167.68 115.983 169.132 116.501 170.417 117.296C172.846 118.623 175.086 120.241 177.082 122.112C178.933 123.891 180.532 125.294 180.731 127.793C180.921 129.186 180.54 130.596 179.669 131.729C179.244 132.115 178.866 132.546 178.542 133.012C177.956 134.107 178.605 135.421 178.529 136.647C178.433 138.17 177.243 139.4 176.111 140.479C173.809 142.675 171.441 144.85 168.656 146.461C168.433 146.59 168.206 146.716 167.976 146.839C168.069 147.068 168.129 147.218 168.129 147.218C168.613 148.092 169.564 149.764 169.594 151.259C169.602 151.652 168.934 153.168 168.024 154.587C166.749 156.604 165.342 158.544 163.814 160.395C162.475 161.844 160.606 163.193 158.595 162.947C156.78 162.725 155.571 161.433 154.79 159.853C153.173 156.584 152.552 154.058 151.787 150.487C151.666 149.616 151.634 148.736 151.689 147.859C151.746 146.141 153.515 142.758 154.879 141.632L155.529 140.921C154.548 139.461 153.624 137.967 152.669 136.43C152.011 135.145 151.216 133.394 151.327 132.523C151.379 131.72 151.719 130.959 152.291 130.368C152.586 130.083 152.975 129.906 153.392 129.866C153.809 129.825 154.228 129.926 154.576 130.148C153.782 129.565 153.186 128.772 152.861 127.868C152.584 126.956 152.473 125.787 153.209 125.146C153.636 124.724 154.199 124.448 154.808 124.362C155.417 124.277 156.039 124.386 156.577 124.673Z" fill="white"/>
<path d="M166.957 147.866C167.274 148.408 167.557 148.968 167.803 149.542C167.939 149.875 168.051 150.217 168.138 150.564C168.173 150.709 168.187 150.873 168.225 151.015C168.225 151.095 168.231 151.177 168.236 151.255C168.277 151.028 168.28 150.996 168.244 151.158C167.753 152.297 167.173 153.4 166.509 154.456C165.143 156.533 163.791 158.786 161.888 160.409C160.893 161.257 159.524 162.009 158.166 161.517C156.837 161.037 156.192 159.69 155.653 158.537C155.01 157.14 154.483 155.698 154.078 154.223C153.598 152.774 153.258 151.287 153.063 149.78C152.894 148.463 153.088 147.126 153.626 145.902C154.102 144.644 154.86 143.499 155.846 142.546C157.15 141.426 155.222 139.595 153.92 140.712C152.817 141.758 151.948 143.007 151.368 144.384C150.686 145.755 150.326 147.251 150.312 148.769C150.391 150.605 150.708 152.426 151.255 154.188C151.721 155.976 152.339 157.725 153.104 159.417C153.839 161.039 154.738 162.661 156.403 163.58C157.271 164.035 158.249 164.265 159.24 164.247C160.23 164.23 161.198 163.965 162.048 163.48C164.935 161.958 166.776 158.884 168.498 156.313C169.418 154.94 170.461 153.453 170.869 151.853C171.32 150.087 170.143 148.068 169.308 146.562C168.49 145.085 166.138 146.395 166.956 147.872L166.957 147.866Z" fill="#211715"/>
<path d="M159.371 150.066C164.558 150.526 169.321 148.012 173.15 144.916C175.008 143.48 176.725 141.885 178.279 140.151C179.06 139.314 179.594 138.295 179.824 137.197C179.907 136.65 179.907 136.095 179.824 135.549C179.674 134.983 179.624 134.397 179.674 133.816C179.814 133.479 180.043 133.183 180.339 132.956C180.778 132.532 181.144 132.045 181.426 131.512C181.925 130.478 182.163 129.347 182.119 128.209C182.063 126.014 181.045 124.218 179.517 122.628C177.905 120.942 176.116 119.418 174.178 118.081C172.294 116.787 170.241 115.455 167.995 114.822C165.945 114.243 163.155 114.245 161.629 115.923C159.902 117.823 161.232 120.764 163.264 121.879L164.638 119.638C163.483 119.149 162.256 118.834 161 118.703C159.746 118.529 158.508 118.325 157.291 118.78C156.622 118.989 156.023 119.364 155.556 119.866C155.09 120.369 154.772 120.981 154.635 121.639C154.369 123.215 155.106 124.662 156.135 125.85L157.785 123.812C156.72 123.155 155.428 122.922 154.185 123.163C153.157 123.416 152.272 124.038 151.715 124.899C150.47 126.996 151.939 129.669 153.624 131.063L155.274 129.024C153.671 127.948 151.504 128.822 150.628 130.336C150.253 131.014 150.042 131.763 150.01 132.528C149.978 133.293 150.125 134.056 150.442 134.76C151.129 136.398 151.98 137.969 152.982 139.452C154.008 141.074 155.075 142.671 156.242 144.205C156.431 144.494 156.73 144.704 157.076 144.79C157.423 144.877 157.79 144.834 158.105 144.67C158.414 144.495 158.639 144.21 158.731 143.878C158.822 143.546 158.773 143.192 158.593 142.895C157.706 141.729 156.874 140.527 156.078 139.304C155.219 138.078 154.43 136.809 153.716 135.502C153.298 134.666 152.647 133.492 152.687 132.643C152.706 132.23 153.118 130.74 153.899 131.265C155.156 132.109 156.716 130.192 155.549 129.228C155.002 128.829 154.56 128.316 154.256 127.727C154.018 127.259 153.953 126.728 154.07 126.219C154.476 125.306 155.725 125.685 156.411 126.054C157.821 126.815 159.014 125.117 158.06 124.016C157.606 123.495 157.135 122.685 157.329 121.984C157.453 121.73 157.645 121.513 157.887 121.354C158.128 121.195 158.41 121.101 158.702 121.081C159.466 121.061 160.229 121.14 160.972 121.314C161.755 121.418 162.524 121.608 163.262 121.88C164.82 122.605 166.173 120.482 164.636 119.639C164.375 119.505 164.147 119.318 163.968 119.093C163.79 118.867 163.664 118.607 163.6 118.331C163.544 118.098 163.565 117.854 163.66 117.632C163.633 117.702 163.622 117.678 163.699 117.602C163.603 117.698 163.913 117.471 163.994 117.428C165.321 116.739 166.913 117.104 168.221 117.652C170.085 118.496 171.838 119.544 173.446 120.776C175.027 121.943 176.485 123.253 177.801 124.688C178.35 125.24 178.773 125.894 179.046 126.608C179.318 127.323 179.433 128.083 179.384 128.842C179.366 129.618 179.077 130.366 178.564 130.969C177.859 131.737 177.169 132.378 177.003 133.438C176.849 134.419 177.149 135.346 177.173 136.321C177.152 137.057 176.862 137.763 176.354 138.318C175.03 139.82 173.566 141.205 171.98 142.456C168.498 145.416 164.213 147.902 159.371 147.473C159.011 147.475 158.666 147.613 158.412 147.856C158.157 148.098 158.012 148.427 158.01 148.77C158.017 149.112 158.163 149.438 158.417 149.68C158.671 149.922 159.013 150.061 159.371 150.068V150.066Z" fill="#211715"/>
<path d="M153.896 131.264C153.972 131.307 154.044 131.356 154.117 131.403C154.169 131.436 154.344 131.565 154.129 131.409C153.914 131.252 154.106 131.392 154.156 131.431C154.398 131.621 154.634 131.816 154.866 132.017C155.468 132.537 156.048 133.08 156.619 133.63C157.855 134.819 159.058 136.046 160.184 137.333C160.313 137.481 160.441 137.63 160.568 137.781C160.601 137.821 160.812 138.076 160.652 137.882C160.493 137.688 160.683 137.922 160.719 137.969C160.882 138.173 161.031 138.387 161.164 138.611C161.349 138.905 161.647 139.119 161.996 139.206C162.344 139.293 162.714 139.247 163.027 139.076C163.333 138.897 163.555 138.613 163.646 138.282C163.737 137.951 163.69 137.599 163.515 137.301C163.184 136.773 162.805 136.274 162.381 135.811C161.846 135.18 161.284 134.572 160.712 133.972C159.504 132.704 158.255 131.462 156.931 130.302C156.425 129.823 155.869 129.395 155.272 129.023C155.118 128.937 154.947 128.881 154.77 128.857C154.593 128.834 154.413 128.845 154.24 128.888C154.067 128.931 153.904 129.006 153.762 129.109C153.619 129.212 153.5 129.341 153.409 129.488C153.319 129.635 153.26 129.798 153.236 129.967C153.211 130.136 153.222 130.308 153.268 130.472C153.313 130.637 153.392 130.792 153.5 130.928C153.608 131.064 153.743 131.178 153.898 131.264H153.896Z" fill="#211715"/>
<path d="M156.529 126.138C158.781 127.405 161.003 128.748 163.128 130.202C163.455 130.427 163.769 130.667 164.07 130.922C164.512 131.283 164.943 131.656 165.366 132.036C166.277 132.855 167.157 133.707 167.982 134.604C168.238 134.844 168.584 134.978 168.943 134.976C169.302 134.975 169.646 134.838 169.9 134.596C170.154 134.354 170.297 134.026 170.299 133.684C170.3 133.342 170.16 133.013 169.908 132.769C168.325 131.009 166.545 129.418 164.599 128.027C162.456 126.536 160.186 125.183 157.905 123.897C156.393 123.046 155.021 125.289 156.531 126.138H156.529Z" fill="#211715"/>
<path d="M163.26 121.879C163.965 122.266 164.646 122.694 165.297 123.159C165.714 123.446 166.125 123.741 166.533 124.039C166.322 123.884 166.665 124.137 166.703 124.167C166.821 124.256 166.939 124.344 167.057 124.432C167.278 124.6 167.499 124.768 167.719 124.938C169.39 126.179 170.961 127.538 172.417 129.005C172.673 129.245 173.018 129.379 173.378 129.378C173.737 129.376 174.081 129.24 174.335 128.997C174.589 128.755 174.732 128.428 174.733 128.085C174.735 127.743 174.594 127.414 174.343 127.17C172.856 125.673 171.251 124.287 169.542 123.024C168.01 121.763 166.367 120.63 164.631 119.638C164.477 119.552 164.306 119.496 164.129 119.472C163.952 119.449 163.771 119.46 163.598 119.503C163.425 119.546 163.263 119.621 163.121 119.725C162.978 119.828 162.858 119.956 162.768 120.103C162.678 120.251 162.619 120.413 162.595 120.582C162.571 120.751 162.581 120.923 162.627 121.088C162.672 121.252 162.751 121.407 162.859 121.543C162.967 121.679 163.103 121.793 163.257 121.879H163.26Z" fill="#211715"/>
<path d="M105.342 69.7329C107.053 71.33 109.766 71.7933 112.061 71.7928C114.356 71.7923 117.07 71.3349 118.783 69.7383C120.038 68.5689 118.112 66.7345 116.858 67.9034C116.801 67.9575 116.517 68.1851 116.688 68.058C116.846 67.938 116.478 68.1899 116.394 68.2397C116.245 68.3267 116.091 68.4073 115.935 68.4819C115.829 68.5327 115.723 68.5805 115.615 68.6252C115.799 68.5489 115.61 68.6252 115.524 68.6544C114.412 69.0263 113.241 69.2093 112.063 69.195C110.906 69.2127 109.755 69.0352 108.664 68.6706C108.648 68.6646 108.254 68.5084 108.51 68.6165C108.42 68.5787 108.331 68.5387 108.242 68.4976C108.069 68.4159 107.898 68.3273 107.732 68.2305C107.604 68.1553 107.486 68.0721 107.363 67.9921C107.711 68.2181 107.353 67.9726 107.269 67.8931C106.016 66.7237 104.089 68.557 105.34 69.7286L105.342 69.7329Z" fill="#211715"/>
<path d="M111.745 57.6684C112.014 58.5986 112.23 59.5422 112.391 60.4949L112.342 60.15C112.362 60.2791 112.366 60.4099 112.354 60.5398L112.402 60.1949C112.393 60.2545 112.378 60.3132 112.357 60.37L112.494 60.0603C112.476 60.0997 112.454 60.1375 112.429 60.1732L112.642 59.9105C112.613 59.9442 112.581 59.9747 112.545 60.0013L112.821 59.7986C112.745 59.8432 112.667 59.8828 112.586 59.917L112.911 59.7861C112.784 59.8374 112.65 59.8737 112.514 59.8943L112.876 59.8478C112.752 59.8618 112.628 59.8618 112.504 59.8478L112.866 59.8943C112.726 59.8754 112.588 59.8429 112.448 59.8251C112.093 59.7462 111.721 59.7925 111.399 59.9554C111.245 60.0414 111.109 60.1555 111.001 60.2913C110.893 60.427 110.814 60.5818 110.769 60.7467C110.724 60.9115 110.713 61.0833 110.737 61.2522C110.761 61.4211 110.82 61.5837 110.911 61.7308C110.997 61.8772 111.114 62.0053 111.254 62.1075C111.393 62.2098 111.553 62.2839 111.724 62.3256C112.029 62.365 112.325 62.4391 112.632 62.4521C113.092 62.4553 113.546 62.3536 113.956 62.1552C114.213 62.0461 114.441 61.883 114.622 61.6783C114.804 61.4736 114.935 61.2325 115.006 60.9729C115.099 60.5466 115.094 60.1062 114.992 59.6818C114.831 58.7714 114.611 57.869 114.368 56.9786C114.272 56.6467 114.042 56.3648 113.728 56.1948C113.414 56.0248 113.041 55.9807 112.693 56.0722C112.345 56.1637 112.049 56.3832 111.871 56.6826C111.693 56.9819 111.646 57.3366 111.742 57.6684H111.745Z" fill="#211715"/>
<path d="M96.0954 49.7745C95.6104 51.2737 95.9252 54.7225 98.904 55.0187C102.843 54.9982 103.055 50.8287 101.73 48.8673C100.645 47.2605 97.4534 46.5917 96.0954 49.7745Z" fill="#211715"/>
<path d="M127.507 49.7902C127.99 51.2894 127.673 54.7381 124.692 55.0301C120.754 55.0052 120.546 50.8358 121.873 48.8759C122.959 47.2713 126.152 46.6036 127.507 49.7902Z" fill="#211715"/>
</g>
<defs>
<clipPath id="clip0_36_387">
<rect width="192" height="196" fill="white"/>
</clipPath>
</defs>
</svg>
