<svg width="207" height="101" viewBox="0 0 207 101" fill="none" xmlns="http://www.w3.org/2000/svg">
<rect y="60" width="205" height="41" fill="#EE9322"/>
<path d="M46.88 64.3C47.52 64.78 47.84 65.5533 47.84 66.62C47.84 67.6867 47.4933 68.86 46.8 70.14C46.1067 71.3667 45.2267 72.4067 44.16 73.26C43.0933 74.06 42.0533 74.46 41.04 74.46C38.8 74.46 37.36 72.4067 36.72 68.3C36.5067 66.8067 36.4 65.1267 36.4 63.26C36.4 62.3 36.4533 60.8067 36.56 58.78L36.64 54.3C36.64 51.9533 36.6933 48.4333 36.8 43.74C36.96 38.9933 37.04 34.2733 37.04 29.58C35.7067 33.1533 34.0267 38.06 32 44.3C31.4133 46.1133 30.8267 47.6067 30.24 48.78C29.6533 49.9533 28.8 50.9933 27.68 51.9C26.6133 52.8067 25.5467 53.26 24.48 53.26C22.4533 53.26 20.7733 51.9 19.44 49.18C18.1067 46.46 16.96 43.3933 16 39.98L15.28 45.9C14.5867 51.2333 13.9467 55.5 13.36 58.7C12.8267 61.9 12.0267 65.1 10.96 68.3C10.16 70.7 9.22667 72.7533 8.16 74.46C7.14667 76.1133 5.81333 76.94 4.16 76.94C2.29333 76.94 1.36 75.98 1.36 74.06C1.36 72.7267 1.76 71.2067 2.56 69.5C2.50667 69.6067 2.45333 69.7133 2.4 69.82C2.4 69.8733 2.37333 69.9 2.32 69.9L2.8 68.38C3.28 66.78 3.70667 64.8867 4.08 62.7C4.88 58.6467 5.62667 54.0867 6.32 49.02L8.24 35.02C8.82667 30.0067 9.46667 25.18 10.16 20.54C10.5333 17.82 10.9333 15.6867 11.36 14.14C11.84 12.54 12.6933 11.02 13.92 9.58C14.5067 8.88666 15.1733 8.32667 15.92 7.9C16.72 7.47333 17.4667 7.26 18.16 7.26C19.3333 7.26 20.2133 7.79333 20.8 8.85999C21.2267 9.66 21.4933 10.9667 21.6 12.78L21.84 14.7C22.2133 16.6733 22.6933 18.8333 23.28 21.18C24.72 26.94 26.0267 31.3667 27.2 34.46C27.6267 33.18 27.8933 32.4067 28 32.14C29.4933 27.7667 30.8267 24.14 32 21.26C33.2267 18.38 34.6933 15.7133 36.4 13.26C37.2 12.14 38.1067 11.18 39.12 10.38C40.1333 9.52666 41.1467 9.1 42.16 9.1C43.28 9.1 44.08 9.5 44.56 10.3C45.0933 11.0467 45.4133 11.82 45.52 12.62C45.68 13.3667 45.84 14.6467 46 16.46C46.2133 18.86 46.32 21.6333 46.32 24.78C46.32 27.0733 46.2133 30.5667 46 35.26C45.9467 36.22 45.8933 37.42 45.84 38.86C45.7867 40.3 45.76 41.98 45.76 43.9L45.68 49.34C45.68 51.1 45.7333 53.6867 45.84 57.1L45.76 59.66C45.76 62.1133 46.1333 63.66 46.88 64.3ZM69.2369 64.06L68.9969 64.62L69.2369 64.06ZM96.2769 22.46C96.3835 23.3667 96.5969 24.78 96.9169 26.7C97.5035 30.7533 97.9302 34.0067 98.1969 36.46C98.4635 38.86 98.5969 41.3133 98.5969 43.82C98.5969 47.0733 98.2769 50.3 97.6369 53.5C96.4635 58.5133 94.3569 62.2733 91.3169 64.78C90.0902 65.7933 88.7302 66.5667 87.2369 67.1C85.7435 67.6333 83.8235 68.1667 81.4769 68.7C80.4635 68.9133 79.6369 69.1 78.9969 69.26C78.3035 69.42 77.6902 69.6067 77.1569 69.82C76.6235 69.98 76.1435 70.1133 75.7169 70.22C72.9969 70.9667 70.8902 71.5 69.3969 71.82C67.9569 72.14 66.5169 72.3 65.0769 72.3C63.4769 72.3 62.3302 72.0067 61.6369 71.42C60.9969 70.8333 60.6769 70.0067 60.6769 68.94C60.6769 67.9267 60.9435 66.62 61.4769 65.02C61.7435 64.1667 62.3569 62.2733 63.3169 59.34C65.0235 54.1667 66.3569 49.74 67.3169 46.06C68.3302 42.3267 69.0235 38.5667 69.3969 34.78C68.2769 35.8467 67.2635 36.38 66.3569 36.38C65.6102 36.38 64.9702 36.0333 64.4369 35.34C63.9035 34.5933 63.5035 33.6333 63.2369 32.46C63.0769 31.66 62.9969 30.86 62.9969 30.06C62.9969 27.8733 63.5835 25.26 64.7569 22.22C65.5569 20.14 66.8102 17.9267 68.5169 15.58C70.2769 13.18 71.9569 11.98 73.5569 11.98C74.7835 11.98 75.8502 12.7533 76.7569 14.3C77.9835 16.38 78.5969 19.3133 78.5969 23.1C78.5969 25.2867 78.4369 27.42 78.1169 29.5C77.8502 31.58 77.3969 34.3533 76.7569 37.82C75.4769 44.6467 73.2635 52.5933 70.1169 61.66C71.5035 61.6067 72.8902 61.4467 74.2769 61.18C75.7169 60.86 77.5302 60.38 79.7169 59.74L81.7169 59.18C82.0902 59.0733 82.8102 58.9133 83.8769 58.7C85.3702 58.4333 86.6235 58.14 87.6369 57.82C88.6502 57.5 89.3435 57.1 89.7169 56.62C90.1435 56.0333 90.3569 54.94 90.3569 53.34C90.3569 52.4867 90.2235 50.86 89.9569 48.46C89.7969 47.66 89.7169 46.9933 89.7169 46.46C89.5569 43.9 89.1035 40.2467 88.3569 35.5C88.3035 35.02 88.0902 33.9533 87.7169 32.3C86.9702 28.8867 86.5969 26.2467 86.5969 24.38C86.5969 21.5 87.3169 19.2067 88.7569 17.5C90.1435 15.7933 91.3969 14.94 92.5169 14.94C94.3835 14.94 95.6369 17.4467 96.2769 22.46ZM129.307 29.5L129.468 29.42L129.307 29.5ZM144.108 50.22C144.588 50.0067 145.094 49.9 145.628 49.9C146.908 49.9 147.921 50.6733 148.668 52.22C149.468 53.7667 149.868 55.4467 149.868 57.26C149.868 58.22 149.734 59.0467 149.468 59.74C148.668 61.82 147.361 63.7133 145.548 65.42C143.734 67.1267 141.548 68.86 138.988 70.62C136.481 72.2733 133.521 73.7933 130.108 75.18C126.748 76.5133 123.628 77.18 120.748 77.18C116.428 77.18 113.548 75.4733 112.108 72.06C111.254 70.14 110.827 67.7133 110.827 64.78C110.827 61.1 111.414 57.3133 112.588 53.42C113.814 49.4733 115.468 44.8067 117.548 39.42C119.628 34.14 122.108 29.1267 124.988 24.38C127.868 19.58 131.041 17.18 134.508 17.18C135.414 17.18 136.241 17.3667 136.988 17.74C137.574 13.6867 138.934 10.7 141.068 8.78C142.401 7.66 143.548 7.1 144.508 7.1C145.628 7.1 146.481 7.76666 147.068 9.1C147.441 10.06 147.628 11.2867 147.628 12.78C147.628 13.5267 147.574 14.54 147.468 15.82L147.388 18.22C147.281 22.1133 147.041 26.0067 146.668 29.9C146.348 33.42 145.574 36.78 144.348 39.98C143.121 43.18 141.174 44.9133 138.508 45.18C137.174 45.34 136.081 44.6467 135.228 43.1C134.428 41.5533 133.574 39.2867 132.668 36.3C132.081 34.38 131.574 32.94 131.148 31.98C130.774 30.9667 130.348 30.22 129.868 29.74C126.828 35.1267 124.588 41.02 123.148 47.42L122.748 49.02C122.321 50.94 121.974 52.54 121.708 53.82C121.494 55.0467 121.388 56.2733 121.388 57.5C121.388 60.22 122.081 62.0867 123.468 63.1C124.428 63.9 125.788 64.3 127.548 64.3C128.721 64.3 130.001 64.1133 131.388 63.74C132.774 63.42 134.241 62.9133 135.788 62.22C136.268 62.0067 136.988 61.6333 137.948 61.1C138.374 61.0467 138.588 60.8867 138.588 60.62C138.588 60.4067 138.454 60.1933 138.188 59.98C138.294 59.5 138.401 58.8333 138.508 57.98C138.614 57.18 138.748 56.5133 138.908 55.98C139.068 55.4467 139.334 54.8867 139.708 54.3C141.094 52.2733 142.561 50.9133 144.108 50.22ZM201.316 60.14C203.343 60.4067 204.356 61.4733 204.356 63.34C204.356 64.0333 204.196 64.8067 203.876 65.66C203.61 66.46 203.236 67.2067 202.756 67.9C201.743 69.3933 200.57 70.4067 199.236 70.94C197.956 71.4733 196.276 71.7933 194.196 71.9C189.983 72.06 186.97 72.14 185.156 72.14C179.93 72.3 176.303 72.4333 174.276 72.54C170.116 72.7 166.463 73.2333 163.316 74.14C162.036 74.46 161.156 74.62 160.676 74.62C160.09 74.62 159.636 74.4333 159.316 74.06C158.996 73.6867 158.836 73.02 158.836 72.06C158.836 71.0467 159.023 70.0067 159.396 68.94C159.823 67.82 160.463 66.3267 161.316 64.46C162.063 63.02 162.65 61.6867 163.076 60.46C163.183 60.0867 163.423 59.34 163.796 58.22C164.223 57.1 164.516 56.0867 164.676 55.18C164.73 54.9133 164.756 54.5933 164.756 54.22C164.756 53.9 164.703 53.5267 164.596 53.1C164.49 52.62 164.41 52.1667 164.356 51.74C164.303 50.8867 164.41 50.06 164.676 49.26C164.996 48.4067 165.45 47.4467 166.036 46.38C166.943 44.5133 167.476 43.18 167.636 42.38C168.596 37.7933 169.13 34.3267 169.236 31.98L169.316 29.5C169.316 27.9 169.156 26.7267 168.836 25.98C168.57 25.34 168.09 24.7 167.396 24.06C166.756 23.42 166.33 22.8867 166.116 22.46C165.85 21.98 165.716 21.34 165.716 20.54C165.716 19.6333 165.93 18.6733 166.356 17.66C166.836 16.5933 167.423 15.6333 168.116 14.78C169.343 13.18 170.81 12.38 172.516 12.38C173.796 12.38 175.076 12.7533 176.356 13.5C177.69 14.2467 179.29 15.34 181.156 16.78C182.543 17.8467 183.583 18.5933 184.276 19.02C186.783 20.5133 188.89 21.66 190.596 22.46C192.303 23.26 194.116 23.8467 196.036 24.22C196.943 24.38 197.796 24.46 198.596 24.46C199.45 24.46 200.303 24.38 201.156 24.22C201.476 24.1667 201.983 24.0067 202.676 23.74C203.423 23.42 203.983 23.26 204.356 23.26C204.73 23.26 205.05 23.3667 205.316 23.58C205.85 23.9533 206.116 24.5667 206.116 25.42C206.116 26.2733 205.85 27.2333 205.316 28.3C204.836 29.3133 204.33 30.1667 203.796 30.86C202.143 32.8867 199.796 34.1133 196.756 34.54C195.796 34.7 194.81 34.78 193.796 34.78C191.076 34.78 188.41 34.3267 185.796 33.42C183.183 32.46 180.196 31.1267 176.836 29.42C176.516 33.5267 175.903 37.7933 174.996 42.22L177.716 41.58C180.543 40.8867 182.836 40.38 184.596 40.06C186.41 39.6867 188.17 39.5 189.876 39.5C190.623 39.5 191.183 39.5267 191.556 39.58C193.423 39.74 194.356 40.6733 194.356 42.38C194.356 43.18 194.143 44.06 193.716 45.02C193.343 45.98 192.863 46.86 192.276 47.66C191.21 49.1 189.903 50.0333 188.356 50.46C186.81 50.8867 184.81 51.1267 182.356 51.18L179.636 51.34C177.716 51.5533 176.25 51.74 175.236 51.9C174.223 52.0067 173.583 52.14 173.316 52.3C173.103 52.4067 172.89 52.6467 172.676 53.02C172.516 53.3933 172.33 53.74 172.116 54.06C171.743 54.7 171.396 55.5267 171.076 56.54C170.756 57.5533 170.49 58.5667 170.276 59.58C169.956 61.0733 169.69 62.14 169.476 62.78C172.463 62.0867 176.81 61.4467 182.516 60.86C188.276 60.22 193.13 59.9 197.076 59.9C198.783 59.9 200.196 59.98 201.316 60.14Z" fill="black"/>
</svg>
