<svg width="78" height="27" viewBox="0 0 78 27" fill="none" xmlns="http://www.w3.org/2000/svg">
<path d="M17.58 21.8C17.82 21.98 17.94 22.27 17.94 22.67C17.94 23.07 17.81 23.51 17.55 23.99C17.29 24.45 16.96 24.84 16.56 25.16C16.16 25.46 15.77 25.61 15.39 25.61C14.55 25.61 14.01 24.84 13.77 23.3C13.69 22.74 13.65 22.11 13.65 21.41C13.65 21.05 13.67 20.49 13.71 19.73L13.74 18.05C13.74 17.17 13.76 15.85 13.8 14.09C13.86 12.31 13.89 10.54 13.89 8.78C13.39 10.12 12.76 11.96 12 14.3C11.78 14.98 11.56 15.54 11.34 15.98C11.12 16.42 10.8 16.81 10.38 17.15C9.98 17.49 9.58 17.66 9.18 17.66C8.42 17.66 7.79 17.15 7.29 16.13C6.79 15.11 6.36 13.96 6 12.68L5.73 14.9C5.47 16.9 5.23 18.5 5.01 19.7C4.81 20.9 4.51 22.1 4.11 23.3C3.81 24.2 3.46 24.97 3.06 25.61C2.68 26.23 2.18 26.54 1.56 26.54C0.86 26.54 0.51 26.18 0.51 25.46C0.51 24.96 0.66 24.39 0.96 23.75C0.94 23.79 0.92 23.83 0.9 23.87C0.9 23.89 0.89 23.9 0.87 23.9L1.05 23.33C1.23 22.73 1.39 22.02 1.53 21.2C1.83 19.68 2.11 17.97 2.37 16.07L3.09 10.82C3.31 8.94 3.55 7.13 3.81 5.39C3.95 4.37 4.1 3.57 4.26 2.99C4.44 2.39 4.76 1.82 5.22 1.28C5.44 1.02 5.69 0.809999 5.97 0.649999C6.27 0.489999 6.55 0.409999 6.81 0.409999C7.25 0.409999 7.58 0.609998 7.8 1.01C7.96 1.31 8.06 1.8 8.1 2.48L8.19 3.2C8.33 3.94 8.51 4.75 8.73 5.63C9.27 7.79 9.76 9.45 10.2 10.61C10.36 10.13 10.46 9.84 10.5 9.74C11.06 8.1 11.56 6.74 12 5.66C12.46 4.58 13.01 3.58 13.65 2.66C13.95 2.24 14.29 1.88 14.67 1.58C15.05 1.26 15.43 1.1 15.81 1.1C16.23 1.1 16.53 1.25 16.71 1.55C16.91 1.83 17.03 2.12 17.07 2.42C17.13 2.7 17.19 3.18 17.25 3.86C17.33 4.76 17.37 5.8 17.37 6.98C17.37 7.84 17.33 9.15 17.25 10.91C17.23 11.27 17.21 11.72 17.19 12.26C17.17 12.8 17.16 13.43 17.16 14.15L17.13 16.19C17.13 16.85 17.15 17.82 17.19 19.1L17.16 20.06C17.16 20.98 17.3 21.56 17.58 21.8ZM25.9638 21.71L25.8738 21.92L25.9638 21.71ZM36.1038 6.11C36.1438 6.45 36.2238 6.98 36.3438 7.7C36.5638 9.22 36.7238 10.44 36.8238 11.36C36.9238 12.26 36.9738 13.18 36.9738 14.12C36.9738 15.34 36.8538 16.55 36.6138 17.75C36.1738 19.63 35.3838 21.04 34.2438 21.98C33.7838 22.36 33.2738 22.65 32.7138 22.85C32.1538 23.05 31.4338 23.25 30.5538 23.45C30.1738 23.53 29.8638 23.6 29.6238 23.66C29.3638 23.72 29.1338 23.79 28.9338 23.87C28.7338 23.93 28.5538 23.98 28.3938 24.02C27.3738 24.3 26.5838 24.5 26.0238 24.62C25.4838 24.74 24.9438 24.8 24.4038 24.8C23.8038 24.8 23.3738 24.69 23.1138 24.47C22.8738 24.25 22.7538 23.94 22.7538 23.54C22.7538 23.16 22.8538 22.67 23.0538 22.07C23.1538 21.75 23.3838 21.04 23.7438 19.94C24.3838 18 24.8838 16.34 25.2438 14.96C25.6238 13.56 25.8838 12.15 26.0238 10.73C25.6038 11.13 25.2238 11.33 24.8838 11.33C24.6038 11.33 24.3638 11.2 24.1638 10.94C23.9638 10.66 23.8138 10.3 23.7138 9.86C23.6538 9.56 23.6238 9.26 23.6238 8.96C23.6238 8.14 23.8438 7.16 24.2838 6.02C24.5838 5.24 25.0538 4.41 25.6938 3.53C26.3538 2.63 26.9838 2.18 27.5838 2.18C28.0438 2.18 28.4438 2.47 28.7838 3.05C29.2438 3.83 29.4738 4.93 29.4738 6.35C29.4738 7.17 29.4138 7.97 29.2938 8.75C29.1938 9.53 29.0238 10.57 28.7838 11.87C28.3038 14.43 27.4738 17.41 26.2938 20.81C26.8138 20.79 27.3338 20.73 27.8538 20.63C28.3938 20.51 29.0738 20.33 29.8938 20.09L30.6438 19.88C30.7838 19.84 31.0538 19.78 31.4538 19.7C32.0138 19.6 32.4838 19.49 32.8638 19.37C33.2438 19.25 33.5038 19.1 33.6438 18.92C33.8038 18.7 33.8838 18.29 33.8838 17.69C33.8838 17.37 33.8338 16.76 33.7338 15.86C33.6738 15.56 33.6438 15.31 33.6438 15.11C33.5838 14.15 33.4138 12.78 33.1338 11C33.1138 10.82 33.0338 10.42 32.8938 9.8C32.6138 8.52 32.4738 7.53 32.4738 6.83C32.4738 5.75 32.7438 4.89 33.2838 4.25C33.8038 3.61 34.2738 3.29 34.6938 3.29C35.3938 3.29 35.8638 4.23 36.1038 6.11ZM48.4903 8.75L48.5503 8.72L48.4903 8.75ZM54.0403 16.52C54.2203 16.44 54.4103 16.4 54.6103 16.4C55.0903 16.4 55.4703 16.69 55.7503 17.27C56.0503 17.85 56.2003 18.48 56.2003 19.16C56.2003 19.52 56.1503 19.83 56.0503 20.09C55.7503 20.87 55.2603 21.58 54.5803 22.22C53.9003 22.86 53.0803 23.51 52.1203 24.17C51.1803 24.79 50.0703 25.36 48.7903 25.88C47.5303 26.38 46.3603 26.63 45.2803 26.63C43.6603 26.63 42.5803 25.99 42.0403 24.71C41.7203 23.99 41.5603 23.08 41.5603 21.98C41.5603 20.6 41.7803 19.18 42.2203 17.72C42.6803 16.24 43.3003 14.49 44.0803 12.47C44.8603 10.49 45.7903 8.61 46.8703 6.83C47.9503 5.03 49.1403 4.13 50.4403 4.13C50.7803 4.13 51.0903 4.2 51.3703 4.34C51.5903 2.82 52.1003 1.7 52.9003 0.979998C53.4003 0.559999 53.8303 0.349999 54.1903 0.349999C54.6103 0.349999 54.9303 0.599999 55.1503 1.1C55.2903 1.46 55.3603 1.92 55.3603 2.48C55.3603 2.76 55.3403 3.14 55.3003 3.62L55.2703 4.52C55.2303 5.98 55.1403 7.44 55.0003 8.9C54.8803 10.22 54.5903 11.48 54.1303 12.68C53.6703 13.88 52.9403 14.53 51.9403 14.63C51.4403 14.69 51.0303 14.43 50.7103 13.85C50.4103 13.27 50.0903 12.42 49.7503 11.3C49.5303 10.58 49.3403 10.04 49.1803 9.68C49.0403 9.3 48.8803 9.02 48.7003 8.84C47.5603 10.86 46.7203 13.07 46.1803 15.47L46.0303 16.07C45.8703 16.79 45.7403 17.39 45.6403 17.87C45.5603 18.33 45.5203 18.79 45.5203 19.25C45.5203 20.27 45.7803 20.97 46.3003 21.35C46.6603 21.65 47.1703 21.8 47.8303 21.8C48.2703 21.8 48.7503 21.73 49.2703 21.59C49.7903 21.47 50.3403 21.28 50.9203 21.02C51.1003 20.94 51.3703 20.8 51.7303 20.6C51.8903 20.58 51.9703 20.52 51.9703 20.42C51.9703 20.34 51.9203 20.26 51.8203 20.18C51.8603 20 51.9003 19.75 51.9403 19.43C51.9803 19.13 52.0303 18.88 52.0903 18.68C52.1503 18.48 52.2503 18.27 52.3903 18.05C52.9103 17.29 53.4603 16.78 54.0403 16.52ZM75.4936 20.24C76.2536 20.34 76.6336 20.74 76.6336 21.44C76.6336 21.7 76.5736 21.99 76.4536 22.31C76.3536 22.61 76.2136 22.89 76.0336 23.15C75.6536 23.71 75.2136 24.09 74.7136 24.29C74.2336 24.49 73.6036 24.61 72.8236 24.65C71.2436 24.71 70.1136 24.74 69.4336 24.74C67.4736 24.8 66.1136 24.85 65.3536 24.89C63.7936 24.95 62.4236 25.15 61.2436 25.49C60.7636 25.61 60.4336 25.67 60.2536 25.67C60.0336 25.67 59.8636 25.6 59.7436 25.46C59.6236 25.32 59.5636 25.07 59.5636 24.71C59.5636 24.33 59.6336 23.94 59.7736 23.54C59.9336 23.12 60.1736 22.56 60.4936 21.86C60.7736 21.32 60.9936 20.82 61.1536 20.36C61.1936 20.22 61.2836 19.94 61.4236 19.52C61.5836 19.1 61.6936 18.72 61.7536 18.38C61.7736 18.28 61.7836 18.16 61.7836 18.02C61.7836 17.9 61.7636 17.76 61.7236 17.6C61.6836 17.42 61.6536 17.25 61.6336 17.09C61.6136 16.77 61.6536 16.46 61.7536 16.16C61.8736 15.84 62.0436 15.48 62.2636 15.08C62.6036 14.38 62.8036 13.88 62.8636 13.58C63.2236 11.86 63.4236 10.56 63.4636 9.68L63.4936 8.75C63.4936 8.15 63.4336 7.71 63.3136 7.43C63.2136 7.19 63.0336 6.95 62.7736 6.71C62.5336 6.47 62.3736 6.27 62.2936 6.11C62.1936 5.93 62.1436 5.69 62.1436 5.39C62.1436 5.05 62.2236 4.69 62.3836 4.31C62.5636 3.91 62.7836 3.55 63.0436 3.23C63.5036 2.63 64.0536 2.33 64.6936 2.33C65.1736 2.33 65.6536 2.47 66.1336 2.75C66.6336 3.03 67.2336 3.44 67.9336 3.98C68.4536 4.38 68.8436 4.66 69.1036 4.82C70.0436 5.38 70.8336 5.81 71.4736 6.11C72.1136 6.41 72.7936 6.63 73.5136 6.77C73.8536 6.83 74.1736 6.86 74.4736 6.86C74.7936 6.86 75.1136 6.83 75.4336 6.77C75.5536 6.75 75.7436 6.69 76.0036 6.59C76.2836 6.47 76.4936 6.41 76.6336 6.41C76.7736 6.41 76.8936 6.45 76.9936 6.53C77.1936 6.67 77.2936 6.9 77.2936 7.22C77.2936 7.54 77.1936 7.9 76.9936 8.3C76.8136 8.68 76.6236 9 76.4236 9.26C75.8036 10.02 74.9236 10.48 73.7836 10.64C73.4236 10.7 73.0536 10.73 72.6736 10.73C71.6536 10.73 70.6536 10.56 69.6736 10.22C68.6936 9.86 67.5736 9.36 66.3136 8.72C66.1936 10.26 65.9636 11.86 65.6236 13.52L66.6436 13.28C67.7036 13.02 68.5636 12.83 69.2236 12.71C69.9036 12.57 70.5636 12.5 71.2036 12.5C71.4836 12.5 71.6936 12.51 71.8336 12.53C72.5336 12.59 72.8836 12.94 72.8836 13.58C72.8836 13.88 72.8036 14.21 72.6436 14.57C72.5036 14.93 72.3236 15.26 72.1036 15.56C71.7036 16.1 71.2136 16.45 70.6336 16.61C70.0536 16.77 69.3036 16.86 68.3836 16.88L67.3636 16.94C66.6436 17.02 66.0936 17.09 65.7136 17.15C65.3336 17.19 65.0936 17.24 64.9936 17.3C64.9136 17.34 64.8336 17.43 64.7536 17.57C64.6936 17.71 64.6236 17.84 64.5436 17.96C64.4036 18.2 64.2736 18.51 64.1536 18.89C64.0336 19.27 63.9336 19.65 63.8536 20.03C63.7336 20.59 63.6336 20.99 63.5536 21.23C64.6736 20.97 66.3036 20.73 68.4436 20.51C70.6036 20.27 72.4236 20.15 73.9036 20.15C74.5436 20.15 75.0736 20.18 75.4936 20.24Z" fill="#EE9322"/>
</svg>
