<svg width="355" height="99" viewBox="0 0 355 99" fill="none" xmlns="http://www.w3.org/2000/svg">
<path d="M118.205 20.96C118.333 21.152 118.461 21.504 118.589 22.016C119.357 29.888 120.733 42.336 122.717 59.36L123.965 70.304C124.157 71.712 123.357 72.96 121.565 74.048C119.837 75.136 118.013 75.68 116.093 75.68C114.941 75.68 113.949 75.456 113.117 75.008C112.349 74.496 111.933 73.728 111.869 72.704C111.037 63.808 110.077 54.624 108.989 45.152C107.261 48.864 105.533 52.288 103.805 55.424C103.549 55.936 103.069 56.448 102.365 56.96C101.533 57.728 100.477 58.368 99.1966 58.88C97.9806 59.328 96.7966 59.552 95.6446 59.552C93.6606 59.552 92.3486 58.88 91.7086 57.536C90.5566 54.976 89.4046 52.224 88.2526 49.28L87.7726 52.16C86.9406 57.472 85.8206 64.32 84.4126 72.704C84.2206 74.048 83.1326 75.232 81.1486 76.256C79.2286 77.216 77.3406 77.696 75.4846 77.696C74.4606 77.696 73.6606 77.504 73.0846 77.12C72.5086 76.736 72.2846 76.128 72.4126 75.296C75.8046 52.896 78.4606 36.384 80.3806 25.76C80.6366 24.416 81.7246 23.232 83.6446 22.208C85.5646 21.184 87.3886 20.704 89.1166 20.768C90.1406 20.64 91.0046 20.736 91.7086 21.056C92.4766 21.312 92.9246 21.792 93.0526 22.496C94.6526 29.728 96.6366 36.352 99.0046 42.368C101.757 36.16 104.381 29.76 106.877 23.168C107.261 22.08 108.253 21.152 109.853 20.384C111.517 19.616 113.149 19.232 114.749 19.232C116.669 19.232 117.821 19.808 118.205 20.96ZM165.599 24.992C165.663 23.712 166.559 22.592 168.287 21.632C170.079 20.608 171.871 20.096 173.663 20.096C174.687 20.096 175.519 20.32 176.159 20.768C176.799 21.152 177.087 21.792 177.023 22.688C176.895 25.12 176.831 27.072 176.831 28.544C176.511 36.864 175.935 43.936 175.103 49.76C174.335 55.584 172.575 61.056 169.823 66.176C167.071 71.296 162.975 74.656 157.535 76.256C155.679 76.768 153.919 77.024 152.255 77.024C148.159 77.024 144.543 75.808 141.407 73.376C138.335 70.944 136.575 67.648 136.127 63.488C135.999 61.824 135.935 60.576 135.935 59.744C135.935 55.328 136.607 50.816 137.951 46.208C139.295 41.6 141.247 36.032 143.807 29.504C144.575 27.776 145.439 25.568 146.399 22.88C146.783 21.792 147.743 20.896 149.279 20.192C150.879 19.424 152.447 19.04 153.983 19.04C155.007 19.04 155.839 19.264 156.479 19.712C157.119 20.096 157.439 20.672 157.439 21.44C157.439 21.696 157.375 22.08 157.247 22.592C155.967 26.304 154.975 29.088 154.271 30.944C152.415 36.128 150.975 40.48 149.951 44C148.927 47.456 148.223 51.008 147.839 54.656C147.711 56.192 147.647 57.408 147.647 58.304C147.647 62.08 148.575 64.8 150.431 66.464C151.007 67.04 151.775 67.584 152.735 68.096C153.695 68.544 154.591 68.8 155.423 68.864L156.191 69.056C156.255 69.056 156.383 68.96 156.575 68.768C158.175 67.744 159.455 66.016 160.415 63.584C161.439 61.088 162.111 58.88 162.431 56.96C162.751 55.04 163.199 52 163.775 47.84C164.223 44.448 164.575 40.736 164.831 36.704C165.151 32.672 165.407 28.768 165.599 24.992ZM220.211 37.856C220.467 36.576 221.427 35.488 223.091 34.592C224.819 33.696 226.515 33.248 228.179 33.248C230.355 33.248 231.315 34.08 231.059 35.744L230.675 37.952C229.715 43.392 228.723 48 227.699 51.776C226.739 55.488 225.235 59.104 223.187 62.624C221.203 66.144 218.579 68.928 215.315 70.976C211.091 73.664 206.771 75.008 202.355 75.008C199.731 75.008 197.267 74.464 194.963 73.376C192.723 72.288 190.835 70.592 189.299 68.288C186.611 64.32 185.267 59.776 185.267 54.656C185.267 47.744 187.731 39.744 192.659 30.656C194.323 27.52 196.051 25.024 197.843 23.168C199.699 21.312 202.003 20.192 204.755 19.808C205.011 19.744 205.363 19.712 205.811 19.712C206.835 19.712 207.731 19.904 208.499 20.288C210.419 16.064 211.891 12.896 212.915 10.784C213.363 9.824 214.419 8.99199 216.083 8.288C217.811 7.584 219.411 7.232 220.883 7.232C222.803 7.232 223.763 7.84 223.763 9.056C223.763 9.312 223.667 9.696 223.475 10.208C219.059 20.96 215.475 29.312 212.723 35.264C212.275 36.288 211.219 37.152 209.555 37.856C207.955 38.56 206.387 38.912 204.851 38.912C203.827 38.912 202.995 38.752 202.355 38.432C201.715 38.112 201.395 37.6 201.395 36.896C201.395 36.448 201.523 35.968 201.779 35.456L203.219 32.192C202.899 32.128 202.611 31.968 202.355 31.712L200.435 36.224C198.643 40.128 197.459 44.032 196.883 47.936C196.691 49.152 196.595 50.4 196.595 51.68C196.595 54.432 197.011 57.024 197.843 59.456C198.675 61.888 199.987 63.84 201.779 65.312C203.251 66.592 204.691 67.232 206.099 67.232C211.731 67.232 216.435 57.44 220.211 37.856ZM280.142 66.464C281.102 66.784 281.582 67.36 281.582 68.192C281.582 69.216 280.974 70.336 279.758 71.552C278.414 72.896 276.686 73.568 274.574 73.568C273.55 73.568 272.686 73.44 271.982 73.184C268.59 72.096 265.518 71.552 262.766 71.552C257.966 71.552 253.07 73.088 248.078 76.16C247.246 76.736 246.222 77.216 245.006 77.6C243.854 77.92 242.766 78.08 241.742 78.08C240.782 78.08 240.014 77.92 239.438 77.6C238.862 77.216 238.574 76.64 238.574 75.872C238.574 75.424 238.638 75.04 238.766 74.72C240.622 69.536 242.094 64.864 243.182 60.704C244.334 56.544 245.102 52.32 245.486 48.032C246.062 42.272 246.35 38.048 246.35 35.36C246.35 28.256 244.974 22.816 242.222 19.04C241.902 18.656 241.742 18.144 241.742 17.504C241.742 16.224 242.638 15.04 244.43 13.952C246.222 12.8 247.982 12.224 249.71 12.224C250.862 12.224 251.694 12.48 252.206 12.992C253.038 13.312 253.582 13.824 253.838 14.528C255.438 18.752 257.646 22.336 260.462 25.28C263.278 28.16 266.606 29.6 270.446 29.6C271.15 29.6 272.206 29.472 273.614 29.216C274.51 29.088 275.086 29.024 275.342 29.024C276.43 29.024 277.23 29.28 277.742 29.792C278.318 30.24 278.606 30.88 278.606 31.712C278.606 32.608 278.222 33.504 277.454 34.4C276.75 35.296 275.79 35.936 274.574 36.32C271.95 37.216 269.326 37.664 266.702 37.664C263.566 37.664 260.558 37.024 257.678 35.744C257.55 39.328 257.39 42.016 257.198 43.808L256.526 49.856C259.022 49.408 261.518 49.024 264.014 48.704L265.358 48.608C267.918 48.608 269.198 49.472 269.198 51.2C269.198 52.352 268.558 53.376 267.278 54.272C265.998 55.168 264.686 55.744 263.342 56C261.358 56.384 258.638 56.8 255.182 57.248C254.478 60.384 253.71 63.328 252.878 66.08C257.102 64.544 261.39 63.776 265.742 63.776C270.542 63.776 275.342 64.672 280.142 66.464Z" fill="white"/>
<rect y="35" width="30" height="30" rx="15" fill="white"/>
<rect x="325" y="35" width="30" height="30" rx="15" fill="white"/>
</svg>
