<svg width="242" height="155" viewBox="0 0 242 155" fill="none" xmlns="http://www.w3.org/2000/svg">
<path d="M41.652 3.016C41.524 3.624 41.396 5 41.364 5.8C41.204 8.328 41.108 11.784 41.108 14.76C41.108 18.248 41.3 23.784 41.3 25.64C41.3 29.576 39.892 30.664 37.78 30.664C34.676 30.664 30.26 27.976 30.26 24.584C30.26 21.48 34.26 18.216 38.708 16.648C41.556 15.624 44.788 15.112 47.22 15.112C52.148 15.112 56.052 17.672 56.052 22.088C56.052 25.896 54.068 28.744 48.98 29.992C47.508 30.312 46.068 30.408 44.756 30.536L43.316 26.376C44.724 26.376 46.132 26.376 47.22 26.152C49.812 25.704 51.892 24.392 51.892 22.088C51.892 19.88 49.972 18.632 47.188 18.632C44.468 18.632 41.652 19.208 39.156 20.2C36.276 21.288 34.228 23.016 34.228 24.392C34.228 25.416 35.732 26.28 36.564 26.28C37.14 26.28 37.556 26.024 37.556 24.904C37.556 23.24 37.396 18.792 37.396 14.92C37.396 11.272 37.428 7.304 37.428 5.832C37.428 5.192 37.332 3.592 37.236 3.016H41.652ZM50.772 6.504C53.204 7.688 56.916 9.768 58.644 10.984L56.692 14.248C55.156 12.968 50.996 10.568 49.012 9.608L50.772 6.504ZM31.124 8.264C33.012 8.488 34.388 8.488 35.54 8.488C38.868 8.488 43.86 7.88 47.156 6.92L47.252 10.888C43.636 11.72 38.484 12.296 35.668 12.296C33.556 12.296 32.308 12.264 31.22 12.136L31.124 8.264ZM81.236 3.464C81.012 4.36 80.724 5.8 80.564 6.504C80.116 8.68 79.316 12.584 78.452 15.848C77.3 20.328 75.156 26.856 73.396 30.664L68.948 29.16C70.836 25.928 73.268 19.24 74.484 14.76C75.284 11.752 76.02 8.232 76.244 6.344C76.404 5.16 76.436 3.848 76.34 3.08L81.236 3.464ZM73.076 8.264C76.98 8.264 81.492 7.656 85.652 6.664V10.664C81.684 11.592 76.66 12.136 73.044 12.136C71.476 12.136 70.292 12.072 69.172 12.008L69.044 8.008C70.708 8.2 71.764 8.264 73.076 8.264ZM83.124 13.16C84.916 12.968 87.22 12.84 89.3 12.84C91.124 12.84 93.044 12.936 94.9 13.128L94.836 16.968C93.204 16.776 91.252 16.552 89.332 16.552C87.124 16.552 85.14 16.648 83.124 16.904V13.16ZM84.852 21.192C84.628 22.12 84.436 23.144 84.436 23.848C84.436 25.256 85.364 26.312 88.82 26.312C90.964 26.312 93.172 26.088 95.444 25.672L95.284 29.736C93.492 29.992 91.348 30.184 88.788 30.184C83.38 30.184 80.5 28.36 80.5 25.128C80.5 23.624 80.788 22.088 81.044 20.84L84.852 21.192ZM119.028 3.976C118.836 4.808 118.644 5.832 118.484 6.632C118.164 8.072 117.78 10.056 117.428 11.688C116.372 16.2 113.812 25.32 110.452 30.728L106.26 29.064C110.068 23.944 112.468 15.496 113.364 11.464C113.972 8.584 114.324 5.864 114.292 3.464L119.028 3.976ZM130.068 7.176C132.02 9.96 134.708 15.912 135.7 18.952L131.636 20.84C130.804 17.288 128.532 11.656 126.228 8.808L130.068 7.176ZM106.068 10.536C107.22 10.6 108.308 10.568 109.492 10.536C112.052 10.472 118.132 9.768 120.5 9.768C123.892 9.768 126.292 11.272 126.292 15.912C126.292 19.688 125.812 24.872 124.468 27.624C123.412 29.864 121.62 30.568 119.22 30.568C117.972 30.568 116.468 30.376 115.38 30.12L114.676 25.896C115.924 26.248 117.748 26.568 118.58 26.568C119.668 26.568 120.5 26.248 120.98 25.192C121.876 23.4 122.292 19.496 122.292 16.36C122.292 13.8 121.204 13.416 119.188 13.416C117.3 13.416 111.764 14.12 110.004 14.344C109.076 14.472 107.412 14.696 106.452 14.856L106.068 10.536ZM129.492 2.76C130.292 3.912 131.412 5.96 132.02 7.144L129.46 8.232C128.788 6.92 127.796 5.032 126.932 3.784L129.492 2.76ZM133.268 1.288C134.1 2.504 135.284 4.552 135.86 5.672L133.3 6.76C132.66 5.416 131.604 3.56 130.74 2.344L133.268 1.288ZM151.188 6.152C150.964 7.272 150.804 9.16 150.804 10.056C150.804 12.136 150.804 14.504 150.996 16.84C151.444 21.448 152.404 24.616 154.42 24.616C155.956 24.616 157.204 20.84 157.812 18.312L161.044 22.184C158.9 27.784 156.916 29.704 154.356 29.704C150.804 29.704 147.764 26.568 146.868 17.992C146.548 15.048 146.516 11.272 146.516 9.32C146.516 8.456 146.484 7.08 146.26 6.088L151.188 6.152ZM167.188 6.856C170.228 10.536 172.692 18.536 173.044 23.432L168.82 25.096C168.34 19.912 166.612 12.168 163.124 8.2L167.188 6.856ZM195.604 6.632C199.54 7.176 205.94 7.016 209.364 6.6V10.728C205.46 11.112 199.636 11.112 195.636 10.728L195.604 6.632ZM198.164 20.296C197.908 21.384 197.78 22.152 197.78 22.984C197.78 24.424 199.028 25.288 202.292 25.288C205.14 25.288 207.508 25.032 210.292 24.424L210.388 28.744C208.308 29.16 205.716 29.384 202.1 29.384C196.596 29.384 193.94 27.4 193.94 24.136C193.94 22.856 194.132 21.608 194.516 19.976L198.164 20.296ZM190.676 4.488C190.452 5.16 190.036 6.792 189.908 7.368C189.46 9.48 188.34 15.88 188.34 19.08C188.34 19.72 188.372 20.52 188.468 21.16C188.948 20.072 189.46 18.984 189.94 17.896L191.924 19.464C190.996 22.152 189.94 25.608 189.62 27.304C189.524 27.784 189.428 28.488 189.428 28.808C189.46 29.16 189.46 29.704 189.492 30.152L185.812 30.376C185.172 28.2 184.564 24.296 184.564 19.944C184.564 15.112 185.524 9.736 185.876 7.24C186.004 6.376 186.164 5.16 186.196 4.136L190.676 4.488Z" fill="black"/>
<path d="M46.464 65.96C46.592 66.152 46.72 66.504 46.848 67.016C47.616 74.888 48.992 87.336 50.976 104.36L52.224 115.304C52.416 116.712 51.616 117.96 49.824 119.048C48.096 120.136 46.272 120.68 44.352 120.68C43.2 120.68 42.208 120.456 41.376 120.008C40.608 119.496 40.192 118.728 40.128 117.704C39.296 108.808 38.336 99.624 37.248 90.152C35.52 93.864 33.792 97.288 32.064 100.424C31.808 100.936 31.328 101.448 30.624 101.96C29.792 102.728 28.736 103.368 27.456 103.88C26.24 104.328 25.056 104.552 23.904 104.552C21.92 104.552 20.608 103.88 19.968 102.536C18.816 99.976 17.664 97.224 16.512 94.28L16.032 97.16C15.2 102.472 14.08 109.32 12.672 117.704C12.48 119.048 11.392 120.232 9.408 121.256C7.488 122.216 5.6 122.696 3.744 122.696C2.72 122.696 1.92 122.504 1.344 122.12C0.768 121.736 0.544 121.128 0.672 120.296C4.064 97.896 6.72 81.384 8.64 70.76C8.896 69.416 9.984 68.232 11.904 67.208C13.824 66.184 15.648 65.704 17.376 65.768C18.4 65.64 19.264 65.736 19.968 66.056C20.736 66.312 21.184 66.792 21.312 67.496C22.912 74.728 24.896 81.352 27.264 87.368C30.016 81.16 32.64 74.76 35.136 68.168C35.52 67.08 36.512 66.152 38.112 65.384C39.776 64.616 41.408 64.232 43.008 64.232C44.928 64.232 46.08 64.808 46.464 65.96ZM84.258 69.992C84.322 68.712 85.218 67.592 86.946 66.632C88.738 65.608 90.53 65.096 92.322 65.096C93.346 65.096 94.178 65.32 94.818 65.768C95.458 66.152 95.746 66.792 95.682 67.688C95.554 70.12 95.49 72.072 95.49 73.544C95.17 81.864 94.594 88.936 93.762 94.76C92.994 100.584 91.234 106.056 88.482 111.176C85.73 116.296 81.634 119.656 76.194 121.256C74.338 121.768 72.578 122.024 70.914 122.024C66.818 122.024 63.202 120.808 60.066 118.376C56.994 115.944 55.234 112.648 54.786 108.488C54.658 106.824 54.594 105.576 54.594 104.744C54.594 100.328 55.266 95.816 56.61 91.208C57.954 86.6 59.906 81.032 62.466 74.504C63.234 72.776 64.098 70.568 65.058 67.88C65.442 66.792 66.402 65.896 67.938 65.192C69.538 64.424 71.106 64.04 72.642 64.04C73.666 64.04 74.498 64.264 75.138 64.712C75.778 65.096 76.098 65.672 76.098 66.44C76.098 66.696 76.034 67.08 75.906 67.592C74.626 71.304 73.634 74.088 72.93 75.944C71.074 81.128 69.634 85.48 68.61 89C67.586 92.456 66.882 96.008 66.498 99.656C66.37 101.192 66.306 102.408 66.306 103.304C66.306 107.08 67.234 109.8 69.09 111.464C69.666 112.04 70.434 112.584 71.394 113.096C72.354 113.544 73.25 113.8 74.082 113.864L74.85 114.056C74.914 114.056 75.042 113.96 75.234 113.768C76.834 112.744 78.114 111.016 79.074 108.584C80.098 106.088 80.77 103.88 81.09 101.96C81.41 100.04 81.858 97 82.434 92.84C82.882 89.448 83.234 85.736 83.49 81.704C83.81 77.672 84.066 73.768 84.258 69.992Z" fill="#EE9322"/>
<path d="M129.448 64.424C130.792 64.296 131.816 64.456 132.52 64.904C133.288 65.352 134.088 66.216 134.92 67.496C135.432 68.328 135.688 69.032 135.688 69.608C135.688 71.016 134.792 71.848 133 72.104L129.64 72.488C126.504 72.936 124.84 73.16 124.648 73.16C123.56 83.4 122.696 92.296 122.056 99.848C121.416 107.4 121 114.856 120.808 122.216C120.744 123.112 120.36 123.784 119.656 124.232C119.016 124.68 118.152 124.904 117.064 124.904C115.144 124.904 113.224 124.392 111.304 123.368C109.448 122.28 108.552 121.064 108.616 119.72C108.808 112.936 109.192 106.024 109.768 98.984C110.344 91.88 111.112 83.656 112.072 74.312L106.024 75.08C105.128 75.144 104.424 75.112 103.912 74.984C103.464 74.792 103.016 74.408 102.568 73.832C102.12 73.256 101.672 72.616 101.224 71.912C100.712 71.208 100.456 70.504 100.456 69.8C100.456 69.224 100.68 68.712 101.128 68.264C101.576 67.816 102.248 67.528 103.144 67.4C104.552 67.208 106.184 66.984 108.04 66.728L112.936 66.056L114.664 49.448C114.856 47.656 116.168 46.76 118.6 46.76C120.52 46.76 122.376 47.304 124.168 48.392C126.024 49.416 126.888 50.6 126.76 51.944L125.512 64.808C127.304 64.68 128.616 64.552 129.448 64.424ZM162.414 69.992C162.478 68.712 163.374 67.592 165.102 66.632C166.894 65.608 168.686 65.096 170.478 65.096C171.502 65.096 172.334 65.32 172.974 65.768C173.614 66.152 173.902 66.792 173.838 67.688C173.71 70.12 173.646 72.072 173.646 73.544C173.326 81.864 172.75 88.936 171.918 94.76C171.15 100.584 169.39 106.056 166.638 111.176C163.886 116.296 159.79 119.656 154.35 121.256C152.494 121.768 150.734 122.024 149.07 122.024C144.974 122.024 141.358 120.808 138.222 118.376C135.15 115.944 133.39 112.648 132.942 108.488C132.814 106.824 132.75 105.576 132.75 104.744C132.75 100.328 133.422 95.816 134.766 91.208C136.11 86.6 138.062 81.032 140.622 74.504C141.39 72.776 142.254 70.568 143.214 67.88C143.598 66.792 144.558 65.896 146.094 65.192C147.694 64.424 149.262 64.04 150.798 64.04C151.822 64.04 152.654 64.264 153.294 64.712C153.934 65.096 154.254 65.672 154.254 66.44C154.254 66.696 154.19 67.08 154.062 67.592C152.782 71.304 151.79 74.088 151.086 75.944C149.23 81.128 147.79 85.48 146.766 89C145.742 92.456 145.038 96.008 144.654 99.656C144.526 101.192 144.462 102.408 144.462 103.304C144.462 107.08 145.39 109.8 147.246 111.464C147.822 112.04 148.59 112.584 149.55 113.096C150.51 113.544 151.406 113.8 152.238 113.864L153.006 114.056C153.07 114.056 153.198 113.96 153.39 113.768C154.99 112.744 156.27 111.016 157.23 108.584C158.254 106.088 158.926 103.88 159.246 101.96C159.566 100.04 160.014 97 160.59 92.84C161.038 89.448 161.39 85.736 161.646 81.704C161.966 77.672 162.222 73.768 162.414 69.992ZM192.761 92.456L191.993 94.376L198.713 100.04L198.041 97.256C197.593 95.464 196.697 91.656 195.353 85.832L192.761 92.456ZM203.705 64.424C204.601 69.992 205.721 75.656 207.065 81.416C208.473 87.112 210.169 93.672 212.153 101.096C214.009 108.136 215.225 112.808 215.801 115.112C215.865 115.304 215.897 115.592 215.897 115.976C215.897 117.512 215.033 118.856 213.305 120.008C211.577 121.096 209.785 121.64 207.929 121.64C206.393 121.64 205.209 121.224 204.377 120.392C202.521 118.408 200.569 116.52 198.521 114.728C196.473 112.936 193.785 110.728 190.457 108.104L187.289 105.512C184.601 111.272 182.521 115.528 181.049 118.28C180.601 119.24 179.417 120.136 177.497 120.968C175.641 121.736 173.913 122.12 172.313 122.12C170.521 122.12 169.625 121.544 169.625 120.392C169.625 120.072 169.721 119.688 169.913 119.24C171.833 114.504 174.105 109.064 176.729 102.92L178.745 98.024C177.145 96.424 176.345 95.624 176.345 95.624C175.897 95.176 175.673 94.664 175.673 94.088C175.673 93 176.377 91.976 177.785 91.016C179.193 89.992 180.761 89.32 182.489 89C185.561 81.64 188.441 74.152 191.129 66.536C191.385 65.64 192.185 64.872 193.529 64.232C194.937 63.528 196.409 63.08 197.945 62.888C199.033 62.568 199.961 62.408 200.729 62.408C202.521 62.408 203.513 63.08 203.705 64.424ZM230.139 45.512C230.267 44.296 231.291 43.208 233.211 42.248C235.131 41.224 236.955 40.712 238.683 40.712C240.731 40.712 241.723 41.48 241.659 43.016C240.635 54.472 238.939 70.28 236.571 90.44C235.035 104.2 234.043 113.128 233.595 117.224C233.467 118.568 232.443 119.784 230.523 120.872C228.667 121.896 226.843 122.408 225.051 122.408C222.555 122.408 221.403 121.48 221.595 119.624C223.835 97.608 226.683 72.904 230.139 45.512Z" fill="#EE9322" fill-opacity="0.5"/>
</svg>
