<svg width="45" height="46" viewBox="0 0 45 46" fill="none" xmlns="http://www.w3.org/2000/svg">
<path d="M16.875 24.4062L21.0938 28.625L28.125 18.7812M39.375 23C39.375 25.2161 38.9385 27.4104 38.0905 29.4578C37.2424 31.5052 35.9994 33.3654 34.4324 34.9324C32.8654 36.4994 31.0052 37.7424 28.9578 38.5905C26.9104 39.4385 24.7161 39.875 22.5 39.875C20.2839 39.875 18.0896 39.4385 16.0422 38.5905C13.9948 37.7424 12.1346 36.4994 10.5676 34.9324C9.00058 33.3654 7.75758 31.5052 6.90953 29.4578C6.06148 27.4104 5.625 25.2161 5.625 23C5.625 18.5245 7.4029 14.2322 10.5676 11.0676C13.7322 7.9029 18.0245 6.125 22.5 6.125C26.9755 6.125 31.2677 7.9029 34.4324 11.0676C37.5971 14.2322 39.375 18.5245 39.375 23Z" fill="#227DEE"/>
<path d="M39.375 23C39.375 25.2161 38.9385 27.4104 38.0905 29.4578C37.2424 31.5052 35.9994 33.3654 34.4324 34.9324C32.8654 36.4994 31.0052 37.7424 28.9578 38.5905C26.9104 39.4385 24.7161 39.875 22.5 39.875C20.2839 39.875 18.0896 39.4385 16.0422 38.5905C13.9948 37.7424 12.1346 36.4994 10.5676 34.9324C9.00058 33.3654 7.75758 31.5052 6.90953 29.4578C6.06148 27.4104 5.625 25.2161 5.625 23C5.625 18.5245 7.4029 14.2322 10.5676 11.0676C13.7322 7.9029 18.0245 6.125 22.5 6.125C26.9755 6.125 31.2677 7.9029 34.4324 11.0676C37.5971 14.2322 39.375 18.5245 39.375 23Z" fill="#227DEE"/>
<path d="M16.875 24.4063L21.0938 28.625L28.125 18.7812M39.375 23C39.375 25.2161 38.9385 27.4104 38.0905 29.4578C37.2424 31.5052 35.9994 33.3654 34.4324 34.9324C32.8654 36.4994 31.0052 37.7424 28.9578 38.5905C26.9104 39.4385 24.7161 39.875 22.5 39.875C20.2839 39.875 18.0896 39.4385 16.0422 38.5905C13.9948 37.7424 12.1346 36.4994 10.5676 34.9324C9.00058 33.3654 7.75758 31.5052 6.90953 29.4578C6.06148 27.4104 5.625 25.2161 5.625 23C5.625 18.5245 7.4029 14.2322 10.5676 11.0676C13.7322 7.9029 18.0245 6.125 22.5 6.125C26.9755 6.125 31.2677 7.9029 34.4324 11.0676C37.5971 14.2322 39.375 18.5245 39.375 23Z" stroke="#363636" stroke-width="3" stroke-linecap="round" stroke-linejoin="round"/>
</svg>
