<svg width="35" height="36" viewBox="0 0 35 36" fill="none" xmlns="http://www.w3.org/2000/svg">
<path d="M24.0625 15.5625V10.0938C24.0625 8.35327 23.3711 6.68407 22.1404 5.45336C20.9097 4.22265 19.2405 3.53125 17.5 3.53125C15.7595 3.53125 14.0903 4.22265 12.8596 5.45336C11.6289 6.68407 10.9375 8.35327 10.9375 10.0938V15.5625M9.84375 31.9688H25.1563C26.0265 31.9688 26.8611 31.623 27.4764 31.0077C28.0918 30.3923 28.4375 29.5577 28.4375 28.6875V18.8438C28.4375 17.9735 28.0918 17.1389 27.4764 16.5236C26.8611 15.9082 26.0265 15.5625 25.1563 15.5625H9.84375C8.97351 15.5625 8.13891 15.9082 7.52356 16.5236C6.9082 17.1389 6.5625 17.9735 6.5625 18.8438V28.6875C6.5625 29.5577 6.9082 30.3923 7.52356 31.0077C8.13891 31.623 8.97351 31.9688 9.84375 31.9688Z" stroke="black" stroke-opacity="0.3" stroke-width="2" stroke-linecap="round" stroke-linejoin="round"/>
</svg>
