<svg width="50" height="55" viewBox="0 0 50 55" fill="none" xmlns="http://www.w3.org/2000/svg">
<g filter="url(#filter0_d_457_429)">
<path d="M32.8125 12.5C32.8125 14.572 31.9894 16.5591 30.5243 18.0243C29.0591 19.4894 27.072 20.3125 25 20.3125C22.928 20.3125 20.9408 19.4894 19.4757 18.0243C18.0106 16.5591 17.1875 14.572 17.1875 12.5C17.1875 10.428 18.0106 8.44086 19.4757 6.97573C20.9408 5.5106 22.928 4.6875 25 4.6875C27.072 4.6875 29.0591 5.5106 30.5243 6.97573C31.9894 8.44086 32.8125 10.428 32.8125 12.5ZM9.37708 41.9125C9.44402 37.8132 11.1194 33.9045 14.042 31.0293C16.9646 28.154 20.9002 26.5426 25 26.5426C29.0998 26.5426 33.0354 28.154 35.958 31.0293C38.8805 33.9045 40.556 37.8132 40.6229 41.9125C35.7216 44.1599 30.392 45.3198 25 45.3125C19.425 45.3125 14.1333 44.0958 9.37708 41.9125Z" fill="#EE9322" stroke="black" stroke-width="3" stroke-linecap="round" stroke-linejoin="round"/>
</g>
<defs>
<filter id="filter0_d_457_429" x="-4" y="0" width="58" height="58" filterUnits="userSpaceOnUse" color-interpolation-filters="sRGB">
<feFlood flood-opacity="0" result="BackgroundImageFix"/>
<feColorMatrix in="SourceAlpha" type="matrix" values="0 0 0 0 0 0 0 0 0 0 0 0 0 0 0 0 0 0 127 0" result="hardAlpha"/>
<feOffset dy="4"/>
<feGaussianBlur stdDeviation="2"/>
<feComposite in2="hardAlpha" operator="out"/>
<feColorMatrix type="matrix" values="0 0 0 0 0 0 0 0 0 0 0 0 0 0 0 0 0 0 0.25 0"/>
<feBlend mode="normal" in2="BackgroundImageFix" result="effect1_dropShadow_457_429"/>
<feBlend mode="normal" in="SourceGraphic" in2="effect1_dropShadow_457_429" result="shape"/>
</filter>
</defs>
</svg>
