<svg width="134" height="196" viewBox="0 0 134 196" fill="none" xmlns="http://www.w3.org/2000/svg">
<g clip-path="url(#clip0_27_280)">
<path d="M41.1451 101.4C42.7904 100.884 47.0386 99.5869 47.2371 99.5101C50.2685 98.424 50.1538 96.4846 50.5337 94.3185C50.7173 93.298 50.8588 92.346 50.9777 91.3585C47.774 89.689 44.881 87.4878 42.4237 84.85C39.1822 81.4389 36.6406 77.4331 34.9408 73.0564C34.5372 73.2 34.2697 73.2927 34.2697 73.2927C32.6137 73.8519 31.2674 73.0417 30.1879 72.294C28.8293 71.2907 27.7049 70.0077 26.8914 68.5327C25.1814 65.6209 24.3102 62.2979 24.3729 58.9272C24.3561 58.0677 24.5212 57.2143 24.8574 56.4221C25.1547 55.8449 25.5785 55.3412 26.0976 54.948C26.6166 54.5549 27.2177 54.2822 27.8567 54.1502C28.608 53.9859 29.3891 54.0146 30.1262 54.2336C30.8632 54.4525 31.532 54.8545 32.0692 55.4016L34.9182 52.0011C40.2999 45.2522 47.4142 38.5747 54.6522 31.7372C54.8668 32.4577 57.1963 38.2653 57.5167 39.0424C58.1574 38.4643 65.783 32.1878 68.5892 29.9124C71.9576 30.0978 74.9088 30.2567 74.9088 30.2567C78.6084 31.1029 82.2199 33.6973 85.4796 37.1751C88.2411 40.2973 90.5265 43.8052 92.2629 47.5867L94.2411 51.9527C94.7138 51.4919 95.2806 51.1374 95.9032 50.9133C96.5258 50.6891 97.1896 50.6005 97.8497 50.6535C98.5004 50.7024 99.1319 50.8956 99.6976 51.2189C100.263 51.5421 100.749 51.9872 101.119 52.5214C101.555 53.2636 101.83 54.0885 101.925 54.9427C102.425 58.2771 101.994 61.684 100.677 64.7909C100.063 66.358 99.1153 67.7749 97.8996 68.945C96.926 69.8249 95.9256 70.3529 94.4045 69.9979L93.6913 69.8326C93.466 70.9422 93.1967 71.8812 93.0666 72.3814C92.1619 75.414 86.4919 86.673 78.8348 90.3936C78.9388 91.7336 79.1201 93.0706 79.3484 94.4017C79.7169 96.4746 79.5998 98.3272 82.5047 99.3666C82.633 99.4185 86.606 101.283 89.1322 102.474C89.1322 102.474 82.6568 114.649 65.339 114.649C48.0211 114.649 41.1451 101.4 41.1451 101.4Z" fill="white"/>
<path d="M24.3301 42.8161C24.1825 39.8303 24.3332 36.8372 24.78 33.8809C25.5712 29.3495 27.3894 24.4225 30.5956 20.8602C29.5964 19.9744 28.734 19.3248 28.2442 18.8222C27.8768 18.6509 34.5835 10.8844 42.0878 8.15841C44.2999 7.27943 46.5586 6.52081 48.8538 5.88593C48.4609 4.87016 48.1209 3.73038 48.1162 3.72388C49.8792 2.35082 54.8085 2.02247 57.047 1.9333C66.3339 1.56301 79.0113 5.15245 82.7994 12.3301L87.0333 15.3101C91.1775 16.7676 95.7888 22.7429 97.4252 26.9761C99.9562 33.4917 100.95 44.5536 99.3951 51.071C98.9107 50.8417 98.3885 50.7016 97.8538 50.6576C96.6662 50.5647 95.4879 50.9271 94.5608 51.6704L92.267 47.5896C90.531 43.8067 88.2455 40.2974 85.4837 37.1739C82.2258 33.6961 78.6125 31.1017 74.9129 30.2555L68.9624 29.6147C66.5378 31.573 58.1924 38.4365 57.5208 39.0424C57.2004 38.2653 54.8709 32.4577 54.6564 31.7372C47.4166 38.5747 40.3022 45.2522 34.9223 52.0011L32.3253 55.7217C31.8066 55.0676 31.1118 54.573 30.3216 54.2953C29.5314 54.0175 28.6781 53.9681 27.8608 54.1525C27.4686 54.2364 27.0905 54.3756 26.738 54.5659C25.3376 52.5604 24.5215 47.7107 24.3301 42.8161Z" fill="#645D5C"/>
<path d="M123.66 125.218C122.584 122.35 119.677 116.039 115.754 113.452C106.844 107.574 95.4073 103.366 90.6806 101.531L89.8152 102.24C85.06 105.655 73.1637 108.928 64.5567 108.907C54.7456 108.883 46.3729 106.368 40.3231 101.109C40.1572 100.914 39.9392 100.77 39.6944 100.694C39.4496 100.617 39.1879 100.612 38.9399 100.677C31.8249 102.426 22.3959 106.609 16.4894 109.901C11.8138 112.508 9.08435 116.161 7.07409 121.788C3.54692 133.317 2.22854 143.782 1.93491 155.679C1.8083 160.817 2.50791 170.35 3.12371 175.455C3.57308 179.17 4.40524 182.9 6.21756 186.181C8.02989 189.461 10.9205 192.273 14.5118 193.401C16.9453 194.169 19.5541 194.133 22.1023 193.992C31.608 193.457 44.8571 190.546 57.0572 186.942L58.246 187.669C58.904 188.072 78.8438 189.889 83.4379 189.997C94.8325 190.264 106.669 191.497 117.966 189.56C122.709 188.741 127.883 187.247 130.533 181.706C132.472 177.65 132.109 171.837 131.892 166.065C131.439 154.043 128.902 139.995 123.736 125.357" fill="#E2E2E2"/>
<path d="M42.3607 151.765C39.2204 148.127 35.8777 144.666 32.348 141.4C31.967 140.986 31.4878 140.673 30.9541 140.49C30.6852 140.407 30.3952 140.422 30.1364 140.532C29.8775 140.642 29.6667 140.841 29.5418 141.091C29.2893 141.557 29.0819 142.046 28.9225 142.55C28.7671 142.414 28.6102 142.276 28.4517 142.137C27.6139 141.401 26.6397 140.835 25.5837 140.469C24.5887 140.163 23.2555 140.182 22.4697 140.862C21.4503 141.745 21.3498 142.457 21.9258 143.674C22.2085 144.211 22.5771 144.698 23.0171 145.117L22.7835 145.084C22.2135 144.949 21.6177 144.965 21.0562 145.132C20.4946 145.299 19.9872 145.609 19.585 146.033C19.2836 146.382 19.0879 146.809 19.0207 147.264C18.9535 147.72 19.0175 148.185 19.2052 148.605C19.7318 149.64 20.4456 150.571 21.3112 151.349C21.8858 151.92 22.4566 152.496 23.0236 153.078L21.8943 153.137C21.4962 153.126 21.1009 153.205 20.7384 153.369C20.3759 153.533 20.0558 153.777 19.8026 154.082C19.5536 154.383 19.3891 154.744 19.3259 155.128C19.2626 155.512 19.3028 155.906 19.4424 156.27C19.7305 156.994 20.1471 157.66 20.6722 158.237L24.9204 163.503L25.0547 163.68C30.9286 162.87 41.5107 160.936 43.3925 160.514C44.7145 160.219 46.4573 159.83 48.4449 159.385L48.4337 159.361C46.5066 156.755 44.4823 154.223 42.3607 151.765Z" fill="white"/>
<path d="M88.4944 175.011L88.4385 175.02C85.3946 175.481 82.4678 174.725 79.7187 173.412L79.5332 173.343C77.9349 168.514 75.7368 162.296 74.29 157.736C74.5771 157.623 74.7656 157.548 74.7656 157.548C78.8259 156.425 81.323 155.561 85.3066 154.2C88.8511 152.99 93.8066 150.648 97.4033 150.839C99.1357 151.018 100.831 151.456 102.432 152.138C103.078 152.374 105.598 153.349 106.244 153.588L107.42 154.035C106.41 162.817 105.357 170.807 104.788 173.468C104.366 173.861 102.668 175.388 101.578 175.5C100.417 175.618 97.2933 174.452 96.5985 174.293C94.5341 173.825 90.9196 174.639 88.4944 175.011Z" fill="white"/>
<path d="M77.4154 90.3942C77.5849 92.4015 77.8595 94.3988 78.2381 96.3778C78.3586 97.1656 78.6568 97.9161 79.1103 98.5733C79.5638 99.2306 80.1609 99.7775 80.857 100.173C81.0407 100.275 81.2303 100.362 81.4229 100.446C81.405 100.439 82.233 100.78 81.8211 100.603C81.94 100.654 82.0589 100.712 82.1777 100.767C82.7147 101.016 83.251 101.267 83.7868 101.519C85.3322 102.243 86.8777 102.969 88.4231 103.697C88.7521 103.876 89.138 103.924 89.5011 103.829C89.8643 103.734 90.1771 103.505 90.3751 103.188C90.5627 102.863 90.6142 102.477 90.5185 102.114C90.4228 101.752 90.1875 101.441 89.8633 101.249C87.5166 100.143 85.1854 98.9833 82.8001 97.964C82.4784 97.8349 82.173 97.669 81.89 97.4697C81.808 97.4106 81.8062 97.4106 81.8841 97.4644C81.8134 97.4053 81.7444 97.3398 81.6785 97.2736C81.6125 97.2075 81.5542 97.1437 81.4966 97.0752C81.5711 97.1744 81.58 97.1839 81.5233 97.1035C81.4407 96.9807 81.3729 96.852 81.298 96.7244C81.169 96.5053 81.323 96.8697 81.2261 96.5472C81.1399 96.2626 81.0621 95.9803 81.0044 95.6886C80.6617 93.9388 80.417 92.1715 80.2715 90.3948C80.2623 90.0217 80.1091 89.6665 79.8435 89.4027C79.5779 89.1388 79.2204 88.9866 78.8449 88.9774C78.4675 88.9804 78.1064 89.1306 77.8395 89.3958C77.5726 89.661 77.4213 90.0198 77.4184 90.3948L77.4154 90.3942Z" fill="#211715"/>
<path d="M95.239 52.9685C96.4873 51.7667 98.7864 51.6946 99.8682 53.1899C100.359 54.0435 100.622 55.0075 100.631 55.9904C100.737 57.1283 100.734 58.2736 100.622 59.4109C100.412 61.5704 99.7672 63.6659 98.7258 65.5728C97.9667 66.9388 96.6198 69.0093 94.7885 68.6331C92.997 68.2652 92.2326 70.9954 94.03 71.3668C98.9326 72.3708 101.766 66.8018 102.844 62.9058C103.484 60.6147 103.697 58.2265 103.471 55.8593C103.234 53.5076 102.6 51.1726 100.36 49.9643C99.2178 49.3561 97.91 49.1251 96.6265 49.3049C95.343 49.4847 94.1505 50.0658 93.2216 50.9641C91.9009 52.2362 93.9195 54.2393 95.239 52.9685Z" fill="#211715"/>
<path d="M92.6201 66.2567C92.643 68.3846 92.2758 70.4988 91.5365 72.496C91.4485 72.7423 91.3498 72.9838 91.2542 73.2271C91.1353 73.5295 91.3362 73.05 91.1674 73.4332C91.0881 73.6132 91.0075 73.7931 90.9254 73.973C90.5783 74.7272 90.2044 75.4695 89.8115 76.2018C87.8822 79.9657 85.3284 83.3796 82.2573 86.3004C80.6101 87.8859 78.6261 89.0844 76.4512 89.8078C74.6965 90.3298 75.4407 93.0665 77.2097 92.5415C81.8769 91.1531 85.4754 87.5158 88.344 83.7604C90.7358 80.6773 92.6841 77.2785 94.1328 73.6618C95.0583 71.3028 95.5136 68.7877 95.4732 66.2561C95.4138 64.436 92.5606 64.4289 92.6201 66.2567Z" fill="#211715"/>
<path d="M32.3432 53.7616C31.4134 53.102 30.3147 52.7172 29.1741 52.6518C28.0335 52.5864 26.8975 52.843 25.8975 53.3919C23.7107 54.5955 22.9683 56.8213 22.9451 59.1841C22.9035 63.7391 24.5417 68.6762 27.7175 72.0277C29.4728 73.8797 32.0204 75.4441 34.6488 74.6604C36.4029 74.1377 35.6558 71.4011 33.8904 71.9273C32.0281 72.4818 30.1457 70.6404 29.1061 69.2993C27.0986 66.5781 25.9512 63.3251 25.8095 59.9542C25.7727 58.9467 25.7085 57.765 26.2393 56.8638C27.2248 55.1919 29.4651 55.1447 30.9029 56.2095C31.2302 56.3968 31.6186 56.4485 31.984 56.3533C32.3493 56.2581 32.6623 56.0238 32.8549 55.701C33.0371 55.3744 33.0855 54.9906 32.9902 54.6294C32.8949 54.2682 32.6632 53.9574 32.3432 53.7616Z" fill="#211715"/>
<path d="M32.5685 70.5406C35.2534 79.464 41.3122 87.8033 49.6569 92.2733C51.9517 93.5318 54.4507 94.3807 57.0406 94.7814C57.4049 94.869 57.7891 94.8154 58.1151 94.6315C58.441 94.4477 58.6842 94.1473 58.7953 93.7916C58.893 93.4293 58.8432 93.0433 58.6568 92.7171C58.4704 92.3909 58.1623 92.1506 57.799 92.0483C53.4641 91.4235 49.5511 89.3093 46.2469 86.5071C42.6708 83.4768 39.7404 79.7668 37.6281 75.5953C36.6882 73.7313 35.9155 71.7887 35.3188 69.79C34.794 68.0467 32.0395 68.789 32.5674 70.5436L32.5685 70.5406Z" fill="#211715"/>
<path d="M67.9537 28.6107C65.8138 30.337 63.6954 32.0856 61.5746 33.8325C59.8835 35.225 58.1449 36.5798 56.5121 38.0397L58.8962 38.6651C57.9089 36.2632 56.7998 33.8402 56.0318 31.3598C55.9612 31.124 55.8306 30.9101 55.6527 30.7389C55.4748 30.5677 55.2555 30.4449 55.016 30.3823C54.7765 30.3197 54.5248 30.3195 54.2851 30.3815C54.0455 30.4436 53.8259 30.566 53.6476 30.7368C46.7996 37.204 39.8047 43.6346 33.9136 51.0007C33.6565 51.2719 33.5133 51.6304 33.5133 52.0029C33.5133 52.3754 33.6565 52.7339 33.9136 53.0051C34.1824 53.2684 34.5447 53.4161 34.9223 53.4161C35.2998 53.4161 35.6621 53.2684 35.931 53.0051C41.8238 45.639 48.8187 39.2084 55.665 32.7411L53.2827 32.114C54.0507 34.5943 55.1598 37.0156 56.1471 39.4192C56.219 39.6541 56.3501 39.8668 56.528 40.0371C56.7059 40.2075 56.9247 40.3298 57.1636 40.3924C57.4025 40.4551 57.6536 40.4561 57.893 40.3952C58.1323 40.3343 58.352 40.2136 58.5312 40.0446C60.1641 38.5847 61.9027 37.23 63.5937 35.838C65.7146 34.0912 67.8348 32.3425 69.9728 30.6157C70.2381 30.3487 70.3867 29.9887 70.3867 29.6135C70.3867 29.2384 70.2381 28.8783 69.9728 28.6113C69.7012 28.3534 69.3399 28.2094 68.9641 28.2094C68.5884 28.2094 68.2271 28.3534 67.9555 28.6113L67.9537 28.6107Z" fill="#211715"/>
<path d="M74.5338 31.6226C78.5103 32.5675 81.8205 35.3107 84.5334 38.2369C87.2169 41.2327 89.411 44.6282 91.0355 48.2995C91.2285 48.6219 91.5414 48.856 91.9067 48.9511C92.2719 49.0462 92.6601 48.9948 92.9875 48.808C93.3074 48.612 93.539 48.3012 93.6343 47.9401C93.7296 47.5789 93.6813 47.1952 93.4993 46.8686C91.7306 42.9139 89.333 39.2676 86.3986 36.0695C83.3838 32.8705 79.6629 29.9277 75.2922 28.8871C73.509 28.4625 72.7458 31.195 74.5338 31.6202V31.6226Z" fill="#211715"/>
<path d="M29.587 19.858C22.7425 27.5672 21.9977 38.8635 23.4403 48.5948C23.6722 50.7386 24.2664 52.8282 25.1979 54.7756C26.0545 56.3902 28.5182 54.9593 27.6611 53.3453C27.5832 53.1976 27.5095 53.05 27.4388 52.8982C27.421 52.8604 27.3342 52.6531 27.4234 52.8681C27.3877 52.7819 27.3532 52.6945 27.3211 52.6076C27.182 52.2267 27.0536 51.8435 26.9419 51.4537C26.6876 50.5476 26.4828 49.6285 26.3285 48.7005C25.9834 46.5866 25.7866 44.4515 25.7394 42.3106C25.6021 37.7952 25.97 33.4829 27.4578 29.2001C28.347 26.5098 29.7555 24.0174 31.6044 21.8624C32.8146 20.4988 30.8043 18.4867 29.587 19.858Z" fill="#211715"/>
<path d="M48.4747 4.51939C46.1382 5.14384 43.8441 5.91549 41.6064 6.82967C39.593 7.59052 37.6765 8.58334 35.896 9.78779C33.0101 11.6871 30.3929 13.9615 28.1141 16.5503C27.4662 17.3009 26.0182 18.8618 27.2356 19.8244C27.5086 20.0797 27.8693 20.2218 28.2442 20.2218C28.6192 20.2218 28.9799 20.0797 29.2529 19.8244C29.5182 19.5574 29.6668 19.1973 29.6668 18.8222C29.6668 18.4471 29.5182 18.087 29.2529 17.82L29.4634 18.0899L29.6577 18.8074C29.6702 18.938 29.3712 19.5197 29.5466 19.3141C29.6357 19.2102 29.7106 19.0779 29.7897 18.9628C29.9264 18.7667 29.6001 19.1889 29.7725 18.9858C29.8355 18.912 29.8955 18.8358 29.9579 18.7614C30.1166 18.5712 30.2801 18.3858 30.4453 18.2015C31.364 17.1904 32.3383 16.2307 33.3638 15.3267C35.9792 13.0034 38.9631 10.8484 42.2626 9.60295C44.5317 8.66938 46.8603 7.88519 49.2331 7.25546C51.0193 6.83793 50.2632 4.10422 48.4747 4.52175V4.51939Z" fill="#211715"/>
<path d="M84.0317 11.6144C81.5542 7.00802 76.4655 4.32569 71.6782 2.69279C66.5349 0.950595 61.0958 0.235113 55.6734 0.587432C54.1835 0.674824 52.7002 0.850732 51.2315 1.11421C49.866 1.28797 48.5566 1.76143 47.3982 2.50026C47.0801 2.69767 46.85 3.00834 46.7549 3.36873C46.6598 3.72912 46.7068 4.112 46.8864 4.43908C47.0791 4.76169 47.3919 4.99593 47.7571 5.0911C48.1223 5.18626 48.5106 5.13469 48.8378 4.94755C50.4397 3.75875 53.0901 3.6176 55.1414 3.46052C57.4882 3.27258 59.8472 3.29235 62.1904 3.51957C67.1436 4.01446 72.2489 5.39047 76.5054 8.01198C78.6106 9.21658 80.3577 10.9529 81.5696 13.0447C82.4357 14.654 84.8983 13.2219 84.0334 11.6138L84.0317 11.6144Z" fill="#211715"/>
<path d="M86.6542 16.6767C88.8154 17.4663 90.6765 19.3596 92.1607 21.1059C93.7909 22.9643 95.1046 25.0748 96.0498 27.3541C97.9252 32.1595 98.6093 37.5117 98.7033 42.6372C98.8088 45.3404 98.5792 48.0462 98.0197 50.6937C97.6036 52.4689 100.354 53.2266 100.771 51.4472C102.05 45.978 101.697 40.0919 100.83 34.5902C100.45 31.9534 99.803 29.3615 98.8988 26.8539C97.8816 24.2659 96.4587 21.8541 94.6827 19.7081C92.7551 17.3039 90.3632 15.019 87.4132 13.9418C87.0485 13.8452 86.6602 13.8948 86.332 14.08C86.0038 14.2651 85.762 14.571 85.6585 14.9316C85.566 15.2937 85.618 15.6774 85.8037 16.0023C85.9894 16.3273 86.2943 16.5683 86.6548 16.6749L86.6542 16.6767Z" fill="#211715"/>
<path d="M39.3143 102.112C50.7078 111.935 67.6155 111.805 81.3039 107.568C84.481 106.585 87.8061 105.401 90.5355 103.464C90.8545 103.267 91.0854 102.956 91.1806 102.596C91.2758 102.235 91.2281 101.851 91.0473 101.524C90.8543 101.202 90.5415 100.968 90.1764 100.873C89.8113 100.778 89.4232 100.829 89.0959 101.016C86.7841 102.54 84.2573 103.714 81.5981 104.5C78.3023 105.586 74.9214 106.399 71.4904 106.929C64.5202 108.084 57.3724 107.546 50.6572 105.36C47.2394 104.219 44.0738 102.436 41.3323 100.11C39.9509 98.9189 37.9246 100.916 39.3143 102.114V102.112Z" fill="#211715"/>
<path d="M41.5243 102.766C43.4074 102.176 45.297 101.607 47.1801 101.018C48.1892 100.732 49.1292 100.245 49.9428 99.5868C50.8129 98.7918 51.3954 97.7345 51.6006 96.5779C51.9252 95.0318 52.1356 93.4397 52.34 91.8747C52.3382 91.4994 52.1873 91.1399 51.9201 90.8745C51.653 90.6091 51.2913 90.4592 50.9135 90.4573C50.538 90.4665 50.1805 90.6187 49.9149 90.8826C49.6494 91.1464 49.4961 91.5017 49.4869 91.8747C49.4638 92.0519 49.396 92.5137 49.352 92.7942C49.2926 93.1781 49.2242 93.5619 49.1576 93.9428C49.0732 94.4312 49.0114 94.9226 48.927 95.4104C48.8503 95.8574 48.7089 96.2738 48.6001 96.7096C48.5537 96.8951 48.7225 96.4834 48.6274 96.6506C48.6025 96.6937 48.584 96.7421 48.5615 96.787C48.5151 96.8773 48.4652 96.9642 48.4111 97.0533C48.3374 97.1714 48.2375 97.2895 48.392 97.1059C48.2986 97.2182 48.1994 97.3256 48.0948 97.4277C48.0118 97.5084 47.9245 97.5847 47.8333 97.6563C48.0443 97.4909 47.7317 97.7112 47.655 97.7561C47.5361 97.827 47.4172 97.8931 47.2942 97.9551C47.2288 97.9876 47.1634 98.0195 47.0974 98.0502C47.2324 97.9876 47.0463 98.0726 47.0083 98.0868C46.8038 98.1642 46.5952 98.2279 46.3865 98.2935C45.5377 98.5587 44.6877 98.8191 43.8378 99.0807C42.8124 99.3967 41.7865 99.7114 40.7623 100.032C40.4019 100.139 40.0969 100.38 39.9112 100.705C39.7256 101.03 39.6736 101.414 39.7661 101.776C39.8703 102.136 40.1123 102.441 40.4403 102.626C40.7683 102.811 41.1561 102.861 41.5208 102.766L41.5243 102.766Z" fill="#211715"/>
<path d="M8.45008 122.165C9.23541 119.838 10.3768 117.645 11.834 115.663C13.2038 113.911 14.9042 112.441 16.84 111.336C21.5032 108.683 26.3798 106.419 31.4195 104.567C32.9055 104.005 34.4081 103.478 35.9256 103.001C36.6389 102.777 37.3562 102.566 38.0774 102.367C38.3884 102.282 38.7001 102.2 39.0124 102.121C39.067 102.107 39.4415 102.083 39.2697 102.051C39.2216 102.042 39.2454 102.047 39.3137 102.11C40.6493 103.361 42.6709 101.36 41.3317 100.105C40.0347 98.8906 38.6533 99.2609 37.1085 99.692C35.6653 100.094 34.2381 100.552 32.8246 101.047C29.8526 102.085 26.9353 103.278 24.0632 104.561C21.424 105.742 18.8194 107.005 16.2849 108.393C13.9789 109.6 11.9184 111.222 10.2077 113.176C8.22385 115.633 6.69708 118.422 5.69919 121.412C5.60213 121.774 5.65214 122.16 5.83846 122.486C6.02478 122.812 6.33251 123.052 6.69541 123.155C7.05994 123.247 7.44631 123.196 7.77346 123.011C8.10061 122.827 8.34311 122.524 8.45008 122.165Z" fill="#211715"/>
<path d="M103.874 172.378C103.185 173.042 102.195 173.932 101.401 174.101C101.329 174.116 101.55 174.142 101.292 174.092C101.226 174.084 101.161 174.08 101.095 174.079C101.128 174.079 101.286 174.107 101.107 174.079C100.738 174.017 100.372 173.936 100.011 173.836C99.2982 173.65 98.592 173.423 97.8877 173.202C94.4515 172.113 91.0848 173.41 87.6355 173.696C85.1445 173.834 82.6613 173.314 80.4385 172.189C80.1094 172.009 79.7236 171.962 79.3604 172.056C78.9973 172.151 78.6845 172.38 78.4865 172.697C78.2989 173.023 78.2474 173.408 78.3431 173.771C78.4388 174.134 78.6741 174.445 78.9982 174.637C81.2344 175.759 83.6779 176.415 86.1786 176.564C88.369 176.642 90.5177 176.05 92.676 175.756C94.1796 175.472 95.7292 175.541 97.2011 175.958C98.6568 176.42 100.406 177.144 101.956 176.869C103.455 176.603 104.827 175.406 105.889 174.381C107.208 173.108 105.19 171.104 103.872 172.377L103.874 172.378Z" fill="#211715"/>
<path d="M75.143 158.916C79.5665 157.691 83.9485 156.258 88.2382 154.629C90.2862 153.789 92.3918 153.096 94.5389 152.553C95.474 152.324 96.4366 152.225 97.3991 152.258C98.64 152.377 99.8574 152.672 101.014 153.133C102.643 153.707 104.242 154.358 105.861 154.959C106.226 155.055 106.614 155.006 106.942 154.821C107.271 154.635 107.512 154.329 107.616 153.969C107.708 153.607 107.656 153.223 107.47 152.898C107.285 152.573 106.98 152.332 106.619 152.225C102.925 150.855 99.2424 148.992 95.1927 149.563C92.9617 149.951 90.7801 150.58 88.687 151.439C86.5222 152.248 84.3562 153.034 82.1664 153.775C79.5921 154.646 77.0017 155.458 74.3798 156.183C72.6132 156.672 73.3634 159.408 75.1383 158.916L75.143 158.916Z" fill="#211715"/>
<path d="M108.57 126.418C108.391 132.404 107.678 138.396 107.056 144.347C106.294 151.659 105.466 158.967 104.483 166.252C104.516 166.005 104.439 166.575 104.424 166.676C104.4 166.849 104.377 167.021 104.352 167.193C104.298 167.582 104.243 167.971 104.188 168.361C104.091 169.03 103.992 169.701 103.89 170.373C103.744 171.31 103.593 172.25 103.395 173.177C103.008 174.956 105.758 175.717 106.146 173.931C106.584 171.917 106.842 169.856 107.124 167.819C107.6 164.408 108.024 160.99 108.432 157.57C109.329 150.054 110.151 142.527 110.822 134.987C111.075 132.137 111.338 129.279 111.423 126.418C111.478 124.594 108.624 124.595 108.57 126.418Z" fill="#211715"/>
<path d="M22.4435 127.571C23.1354 132.178 24.5643 136.648 25.57 141.188C25.9647 142.969 28.7156 142.215 28.3215 140.434C27.3158 135.895 25.8845 131.422 25.1944 126.818C25.0918 126.456 24.85 126.15 24.5216 125.965C24.1931 125.779 23.8044 125.73 23.4397 125.828C23.08 125.936 22.7759 126.177 22.5904 126.501C22.405 126.826 22.3523 127.209 22.4435 127.571Z" fill="#211715"/>
<path d="M5.69923 121.412C1.22635 136.451 -0.374375 152.189 0.979691 167.813C1.31909 172.367 1.59668 177.066 2.82233 181.484C4.16805 186.343 6.91715 191.038 11.434 193.594C15.7803 196.053 20.9795 195.611 25.768 195.106C34.7606 194.156 43.6457 192.127 52.3549 189.751C60.8939 187.489 69.2761 184.679 77.4487 181.338C78.3302 180.97 79.2081 180.595 80.0807 180.207C80.4053 180.015 80.641 179.704 80.7367 179.341C80.8325 178.978 80.7807 178.593 80.5924 178.267C80.3951 177.95 80.0823 177.72 79.7189 177.625C79.3554 177.53 78.9692 177.578 78.6404 177.759C71.0786 181.016 63.3013 183.755 55.3631 185.958C46.7696 188.53 38.0048 190.5 29.1335 191.852C27.3205 192.111 25.4987 192.32 23.6721 192.465C21.2588 192.656 18.7386 192.857 16.3449 192.398C11.7086 191.508 8.35857 187.879 6.57953 183.689C4.79039 179.475 4.41948 174.816 4.03194 170.307C3.66281 166.011 3.37037 161.693 3.34719 157.38C3.27618 146.863 4.60204 136.383 7.29044 126.211C7.65223 124.855 8.03859 123.507 8.44952 122.165C8.98448 120.415 6.23062 119.668 5.69923 121.412Z" fill="#211715"/>
<path d="M23.3387 165.313C29.7291 164.573 36.0992 163.385 42.4094 162.154C48.6565 160.935 54.865 159.411 61.0563 157.942C64.7529 157.064 68.4602 156.19 72.1015 155.104C73.8555 154.581 73.1084 151.844 71.343 152.371C64.4908 154.413 57.4525 155.899 50.4796 157.471C45.023 158.701 39.5789 159.845 34.0664 160.803C32.0613 161.152 30.054 161.486 28.0445 161.807C26.3493 162.075 24.8348 162.306 23.3381 162.479C22.9632 162.49 22.6067 162.643 22.3416 162.907C22.0764 163.17 21.9226 163.524 21.9115 163.897C21.9138 164.272 22.0649 164.631 22.3319 164.896C22.5989 165.162 22.9604 165.312 23.3381 165.314L23.3387 165.313Z" fill="#211715"/>
<path d="M72.1014 155.104C71.9736 155.128 71.9676 154.849 72.0419 155.226C72.1014 155.543 72.2238 155.859 72.3154 156.171C72.5282 156.884 72.7499 157.595 72.9757 158.305C73.5065 159.969 74.0605 161.627 74.6199 163.282C75.8122 166.813 77.0391 170.332 78.2077 173.871C78.4803 174.697 78.7484 175.527 79.0119 176.359C79.1577 176.658 79.2608 176.976 79.318 177.304C79.3293 177.206 79.3037 177.304 79.2253 177.392C79.0495 177.543 78.8524 177.667 78.6404 177.76C77.0468 178.665 78.4823 181.115 80.0806 180.208C81.125 179.617 82.1093 178.772 82.167 177.488C82.208 176.561 81.7562 175.573 81.4757 174.7C80.8551 172.77 80.2042 170.849 79.551 168.929C78.1946 164.941 76.7983 160.964 75.5364 156.946C75.2642 156.08 75.0324 155.2 74.7548 154.337C74.5546 153.634 74.0868 153.036 73.4505 152.669C72.8142 152.302 72.0592 152.196 71.3453 152.372C70.9824 152.475 70.6747 152.715 70.4884 153.041C70.302 153.367 70.252 153.753 70.3491 154.115C70.4564 154.473 70.699 154.776 71.0261 154.961C71.3531 155.145 71.7393 155.197 72.1038 155.105L72.1014 155.104Z" fill="#211715"/>
<path d="M89.9768 102.848C90.1617 102.73 90.6812 103.042 90.913 103.132L92.3039 103.668C93.3809 104.085 94.4562 104.507 95.5297 104.934C98.2271 106.013 100.9 107.152 103.532 108.381C106.523 109.776 109.465 111.283 112.302 112.967C113.592 113.658 114.813 114.469 115.95 115.388C116.924 116.273 117.788 117.27 118.524 118.359C119.407 119.653 120.197 121.008 120.887 122.414C121.409 123.449 121.876 124.512 122.284 125.597C122.393 125.954 122.636 126.255 122.963 126.44C123.289 126.624 123.674 126.676 124.039 126.587C124.402 126.484 124.71 126.244 124.897 125.918C125.083 125.592 125.133 125.206 125.036 124.843C124.124 122.386 122.962 120.028 121.568 117.804C120.737 116.465 119.77 115.214 118.683 114.07C117.58 113.001 116.349 112.069 115.018 111.297C109.258 107.713 103.025 104.915 96.7363 102.38C95.4453 101.86 94.1497 101.351 92.8495 100.852C91.4456 100.31 89.9845 99.4864 88.5366 100.399C86.9911 101.374 88.4177 103.829 89.9768 102.847V102.848Z" fill="#211715"/>
<path d="M57.5267 188.889C58.0921 189.128 58.696 189.265 59.3099 189.293C60.5338 189.46 61.7606 189.599 62.9886 189.73C66.2299 190.077 69.4771 190.376 72.7249 190.656C80.2518 191.306 87.7733 191.573 95.3228 191.862C101.144 192.174 106.981 192.104 112.793 191.651C117.291 191.23 122.191 190.671 126.183 188.389C128.13 187.278 129.776 185.714 130.981 183.831C132.253 181.715 133.029 179.342 133.253 176.888C133.519 174.248 133.577 171.592 133.427 168.944C133.339 166.388 133.24 163.833 133.036 161.283C132.109 150.353 129.921 139.564 126.513 129.13C126.065 127.74 125.598 126.356 125.112 124.978C125.004 124.621 124.761 124.318 124.434 124.134C124.107 123.949 123.722 123.897 123.357 123.988C122.994 124.091 122.686 124.331 122.5 124.657C122.314 124.983 122.264 125.369 122.361 125.732C126.019 135.946 128.514 146.536 129.798 157.303C130.362 162.287 130.644 167.299 130.643 172.314C130.643 176.813 130.146 181.513 126.553 184.673C123.588 187.281 119.337 187.989 115.548 188.507C109.926 189.177 104.258 189.388 98.6009 189.137C90.7982 188.923 82.9813 188.665 75.2006 188.031C71.9401 187.765 68.6826 187.47 65.4281 187.145C64.0758 187.01 62.7247 186.87 61.3748 186.715C60.8692 186.656 60.3642 186.595 59.8597 186.53C60.3352 186.589 59.7123 186.509 59.5762 186.489C59.4252 186.466 59.2742 186.444 59.1238 186.417C58.8118 186.358 58.5039 186.187 58.9669 186.44C57.3561 185.562 55.9147 188.009 57.5267 188.888V188.889Z" fill="#211715"/>
<path d="M30.8988 140.477C30.636 140.407 30.357 140.431 30.1094 140.543C29.8618 140.655 29.6612 140.849 29.5418 141.092L28.6841 142.341C32.8615 145.99 35.8454 149.198 40.068 153.828L42.3166 151.714C39.1892 148.095 35.8611 144.651 32.348 141.4C31.9669 140.986 31.4878 140.673 30.9541 140.49C30.9359 140.485 30.9174 140.481 30.8988 140.477Z" fill="#211715"/>
<path d="M41.0767 152.825C38.8697 150.404 36.6591 147.987 34.3386 145.675C33.2488 144.589 32.1341 143.53 30.9945 142.496C29.8247 141.306 28.4789 140.3 27.0037 139.513C26.3286 139.162 25.5886 138.951 24.8288 138.894C24.069 138.837 23.3054 138.934 22.5849 139.18C21.2499 139.712 20.0825 141.052 20.1532 142.547C20.2269 144.1 21.2511 145.395 22.3245 146.434C23.398 147.473 24.4644 148.518 25.5194 149.584C28.1039 152.205 30.7597 154.756 33.2746 157.444C34.527 158.782 36.5438 156.774 35.292 155.439C33.3043 153.313 31.2304 151.273 29.1697 149.219C28.2537 148.306 27.3395 147.393 26.4437 146.46C25.5064 145.484 24.3473 144.64 23.5235 143.566C23.2896 143.261 23.1141 142.916 23.0057 142.548C22.9802 142.393 23.0057 142.375 23.0343 142.332C23.1518 142.146 23.3083 141.987 23.4931 141.866C24.3312 141.376 25.5183 141.898 26.2619 142.323C27.4133 143.071 28.4781 143.942 29.4365 144.922C30.4173 145.822 31.3786 146.741 32.3206 147.681C34.6387 149.994 36.8517 152.413 39.0587 154.832C40.2945 156.186 42.3071 154.177 41.0761 152.827L41.0767 152.825Z" fill="#211715"/>
<path d="M23.1633 143.718C22.321 143.501 21.4346 143.523 20.6039 143.78C19.7732 144.037 19.0312 144.519 18.4616 145.172C16.9887 146.951 17.6009 149.117 18.8949 150.783C20.2071 152.325 21.6068 153.792 23.0872 155.176C24.5506 156.669 26.0283 158.148 27.5898 159.54C28.9528 160.756 30.9779 158.758 29.6072 157.536C27.1529 155.347 24.9114 152.94 22.5933 150.617C22.0618 150.121 21.5652 149.59 21.1073 149.026C20.7911 148.608 20.3405 148.022 20.4285 147.463C20.5616 146.615 21.7451 146.259 22.4031 146.452C24.1679 146.967 24.9221 144.233 23.1615 143.718H23.1633Z" fill="#211715"/>
<path d="M21.8954 151.719C21.2004 151.714 20.5152 151.882 19.9029 152.209C19.2905 152.535 18.7708 153.01 18.3914 153.588C18.0532 154.198 17.8814 154.885 17.8931 155.581C17.9049 156.277 18.0999 156.957 18.4586 157.555C19.2217 158.78 20.0996 159.931 21.0805 160.992L23.9128 164.503C24.1815 164.766 24.5439 164.914 24.9215 164.914C25.2991 164.914 25.6616 164.766 25.9302 164.503C26.1896 164.233 26.3343 163.874 26.3343 163.5C26.3343 163.127 26.1896 162.768 25.9302 162.498C24.4585 160.674 22.9499 158.873 21.5132 157.021C21.2683 156.724 21.0559 156.401 20.8796 156.059C20.8439 155.98 20.7215 155.505 20.7476 155.693C20.7384 155.594 20.7342 155.496 20.7352 155.397C20.7191 155.016 20.6965 155.466 20.7471 155.269C20.7542 155.243 20.8374 154.999 20.7946 155.101C20.7387 155.235 20.9289 154.953 20.8338 155.049C20.7625 155.122 21.241 154.695 21.0686 154.824C21.1394 154.771 21.5251 154.568 21.3658 154.63C21.3658 154.63 21.7153 154.536 21.6125 154.552C21.5097 154.568 21.8919 154.552 21.8978 154.552C22.2762 154.552 22.639 154.402 22.9065 154.136C23.1741 153.871 23.3244 153.51 23.3244 153.134C23.3244 152.758 23.1741 152.398 22.9065 152.132C22.639 151.866 22.2762 151.717 21.8978 151.717L21.8954 151.719Z" fill="#211715"/>
<path d="M30.7734 141.807C30.6658 142.027 30.4263 141.716 30.8816 142.01C31.2604 142.293 31.613 142.609 31.9354 142.955C32.728 143.697 33.5108 144.449 34.2839 145.212C35.8619 146.771 37.4 148.368 38.8982 150.003C41.839 153.217 44.6106 156.58 47.202 160.079C47.4006 160.395 47.7134 160.624 48.0763 160.718C48.4392 160.813 48.8248 160.766 49.154 160.587C49.4785 160.395 49.7141 160.085 49.8099 159.722C49.9056 159.359 49.8539 158.973 49.6658 158.648C46.6125 154.514 43.3207 150.56 39.8071 146.804C38.0738 144.957 36.287 143.161 34.4468 141.418C33.5718 140.591 32.6463 139.511 31.4468 139.16C30.8631 138.969 30.2306 138.986 29.6581 139.208C29.0856 139.43 28.6088 139.843 28.3096 140.376C28.1284 140.703 28.0806 141.087 28.1759 141.448C28.2713 141.809 28.5026 142.119 28.822 142.316C29.1494 142.502 29.5374 142.553 29.9023 142.458C30.2673 142.363 30.5801 142.129 30.7734 141.807Z" fill="#211715"/>
<path d="M63.0137 79.2343C63.1162 79.1124 63.2251 78.9959 63.34 78.8853C63.3786 78.8481 63.7697 78.5351 63.5427 78.7005C63.8026 78.5129 64.0768 78.3459 64.363 78.2008C64.6411 78.0479 64.938 77.9313 65.2462 77.8542C65.5744 77.7587 65.9078 77.6822 66.2448 77.625C67.0245 77.5481 67.81 77.5481 68.5897 77.625C68.6694 77.6327 68.749 77.6416 68.8275 77.651C68.7086 77.6357 68.7377 77.641 68.9149 77.667C69.1146 77.7036 69.3131 77.739 69.5093 77.7851C69.6971 77.8288 69.8837 77.8784 70.0674 77.9357C70.1173 77.951 70.6297 78.1388 70.3599 78.0254C70.6889 78.2049 71.0747 78.2522 71.4378 78.1577C71.801 78.0631 72.1138 77.8338 72.3119 77.517C72.634 76.9111 72.5336 75.8864 71.8001 75.5782C69.9226 74.8114 67.8731 74.5564 65.8632 74.8394C64.0032 75.0265 62.274 75.8756 60.9945 77.23C60.7306 77.4965 60.5833 77.8559 60.5849 78.2298C60.5864 78.6037 60.7366 78.9618 61.0027 79.2262C61.2688 79.4906 61.6293 79.6398 62.0056 79.6413C62.3819 79.6428 62.7436 79.4966 63.0119 79.2343H63.0137Z" fill="#211715"/>
<path d="M65.4614 63.8201C65.6302 64.3244 65.7878 64.8329 65.9369 65.3431C66.1144 65.8735 66.2523 66.4161 66.3495 66.9666L66.2989 66.5898C66.3111 66.6962 66.3111 66.8035 66.2989 66.9099L66.3501 66.5331C66.3414 66.582 66.3289 66.6302 66.3126 66.6772L66.4565 66.3388C66.4374 66.3826 66.4139 66.4244 66.3863 66.4634L66.6092 66.177C66.5893 66.2026 66.5665 66.226 66.5415 66.2467L66.8297 66.0252C66.7184 66.1043 66.5988 66.1712 66.4731 66.2248L66.8137 66.0819C66.6922 66.1318 66.5651 66.1667 66.4351 66.1859L66.8143 66.1351C66.5758 66.1432 66.3371 66.1301 66.101 66.0961C65.9137 66.0961 65.7282 66.1327 65.5551 66.204C65.382 66.2752 65.2247 66.3796 65.0923 66.5112C64.9598 66.6428 64.8547 66.7991 64.783 66.971C64.7113 67.143 64.6744 67.3273 64.6744 67.5134C64.6831 67.8866 64.8361 68.2422 65.1018 68.5062C65.3675 68.7701 65.7254 68.9222 66.101 68.9308C66.2969 68.9575 66.4942 68.9737 66.6918 68.9792C67.1847 68.9621 67.666 68.8259 68.094 68.5824C68.345 68.4506 68.5645 68.2667 68.7376 68.0431C68.9106 67.8195 69.0331 67.5615 69.0968 67.2867C69.1801 66.8221 69.1578 66.3449 69.0314 65.89C68.8002 64.9368 68.5172 63.996 68.2058 63.0665C68.0995 62.7141 67.8669 62.4126 67.5519 62.219C67.307 62.0765 67.0248 62.0098 66.7414 62.0275C66.4581 62.0452 66.1865 62.1465 65.9614 62.3184C65.7364 62.4904 65.5681 62.7251 65.478 62.9926C65.388 63.2601 65.3804 63.5482 65.4561 63.8201H65.4614Z" fill="#211715"/>
<path d="M48.8247 55.4813C48.4306 57.0209 48.987 60.4704 52.0576 60.5749C56.0888 60.2991 56.0217 56.0908 54.5315 54.2033C53.3094 52.6561 49.9957 52.1895 48.8247 55.4813Z" fill="#211715"/>
<path d="M81.0032 53.422C81.594 54.8931 81.49 58.3745 78.4585 58.8711C74.4249 59.1162 73.9459 54.9469 75.1786 52.8905C76.1879 51.2062 79.4126 50.3198 81.0032 53.422Z" fill="#211715"/>
<path d="M49.1154 47.1609C48.9093 47.3673 48.6892 47.5595 48.4568 47.7361L48.745 47.5146C48.1703 47.9664 47.5399 48.3434 46.8691 48.6367L47.2097 48.4938C47.0611 48.5569 46.9076 48.6083 46.7508 48.6473C46.386 48.7473 46.076 48.9871 45.8891 49.3141C45.7022 49.6411 45.6537 50.0285 45.7543 50.391C45.8549 50.7535 46.0963 51.0615 46.4254 51.2471C46.7545 51.4328 47.1444 51.481 47.5093 51.381C47.8636 51.2842 48.207 51.1514 48.534 50.9848C48.8234 50.8469 49.1045 50.6923 49.3757 50.5218C50.0138 50.1403 50.6037 49.6843 51.1327 49.1635C51.3954 48.8939 51.5442 48.5347 51.5488 48.1595C51.5467 47.7839 51.3975 47.4238 51.1327 47.1556C50.8639 46.8909 50.5008 46.7424 50.1223 46.7422C49.7446 46.7463 49.3829 46.8942 49.1118 47.1556L49.1154 47.1609Z" fill="#211715"/>
</g>
<defs>
<clipPath id="clip0_27_280">
<rect width="133" height="195" fill="white" transform="translate(0.5 0.5)"/>
</clipPath>
</defs>
</svg>
