<svg width="128" height="189" viewBox="0 0 128 189" fill="none" xmlns="http://www.w3.org/2000/svg">
<g clip-path="url(#clip0_27_189)">
<path d="M34.5137 95.7086C25.6946 97.1181 20.0684 90.3761 20.1098 85.5205C20.2545 81.4331 20.8569 77.3726 21.9066 73.4097C23.3046 68.6011 24.3021 60.1449 24.3021 48.4182C23.7064 31.1164 28.4308 18.5693 35.88 11.6999C40.3697 7.55903 50.4881 1.91766 61.8569 1.91766C67.5163 1.83224 73.1335 2.86892 78.3593 4.96328L83.4197 7.37874C85.6146 8.61496 86.3937 9.6744 88.6502 11.7569C94.316 16.9836 98.2534 26.3942 98.8807 34.8192C99.0636 37.2494 99.416 43.054 99.2496 47.9501C99.2588 56.3718 100.479 64.7516 102.876 72.8506C104.329 77.577 106.279 83.6565 104.71 88.3547C102.796 94.0813 95.9305 97.6061 89.9653 95.56L34.5137 95.7086Z" fill="#645D5C"/>
<path d="M36.8367 43.7365C42.2244 39.4822 48.0238 34.1826 53.3317 29.1591C53.1061 30.9978 52.3154 34.1415 52.1867 36.0437C52.1355 36.8072 52.3044 37.0726 52.9074 37.3481C53.4386 37.4781 53.998 37.4531 54.5145 37.2764C62.2227 34.8492 68.9381 30.139 73.7026 23.8178C74.753 27.7062 76.2431 32.5459 77.5436 34.905C80.7518 40.739 86.1963 45.6521 91.0366 47.0757C91.4744 46.689 91.9874 46.3897 92.546 46.1951C93.1046 46.0004 93.6977 45.9143 94.2911 45.9417C95.0459 45.9209 95.7924 46.0978 96.451 46.4536C97.1096 46.8094 97.6557 47.3307 98.0309 47.9619C99.296 50.0937 99.2265 54.0138 98.3619 56.4357C97.7523 58.1511 96.7469 60.7757 94.349 62.6509C93.821 63.0706 93.2085 63.3804 92.55 63.5607C91.8916 63.7411 91.2014 63.788 90.5232 63.6986L90.1574 63.6398C89.7924 64.8104 89.3486 65.9569 88.8289 67.0719C87.8619 69.5701 82.6046 78.2301 75.9425 81.7849C75.9657 83.1227 75.9236 83.6055 76.0511 85.2921C76.0716 86.0785 76.2095 86.858 76.4608 87.6066C76.8072 88.5663 77.4156 89.4183 78.2222 90.0731C80.0116 91.462 81.851 92.1286 84.1166 92.9467L86.4798 93.8423C80.5006 97.7694 70.6322 99.9775 62.2612 100.159C54.0085 99.9781 44.2596 97.8287 38.2712 93.9926L41.0356 92.9449C43.3012 92.1227 45.1406 91.4603 46.9306 90.0714C47.7372 89.4165 48.3456 88.5645 48.692 87.6048C48.9427 86.8562 49.0805 86.0767 49.1011 85.2903C49.223 83.7282 49.1919 83.1979 49.2054 82.0603C46.0929 80.6174 43.3018 78.3194 40.6478 75.2356C37.6857 71.7629 35.4926 67.7432 34.2034 63.4237C33.4803 63.5685 32.7324 63.5525 32.0167 63.3771C31.3009 63.2016 30.6361 62.8713 30.0728 62.4112C27.6901 60.5185 26.7085 57.8892 26.1098 56.1667C25.2648 53.7384 25.2264 49.8177 26.5086 47.6953C26.889 47.067 27.4393 46.5499 28.1008 46.1992C28.7623 45.8485 29.5102 45.6773 30.2648 45.7038C31.2877 45.668 32.2935 45.9633 33.1218 46.5425C34.3296 45.6756 35.5716 44.7348 36.8367 43.7365Z" fill="white"/>
<path d="M89.2935 61.2332C89.0264 62.4128 88.6763 63.5736 88.2454 64.7075C87.9241 65.5749 87.662 66.1169 87.3193 66.9291C87.251 67.0912 87.4498 66.6467 87.3693 66.8117C87.3443 66.8646 87.3218 66.918 87.2961 66.9708C87.2394 67.0883 87.1858 67.2011 87.1291 67.315C86.9885 67.5969 86.8415 67.8758 86.6883 68.1519C86.3341 68.7943 85.9567 69.4245 85.5604 70.0452C83.5094 73.3845 80.8896 76.3675 77.8106 78.8691C76.138 80.243 74.1585 81.2264 72.0265 81.7426C70.1908 82.1437 70.9675 84.8622 72.8045 84.4611C77.1808 83.5044 80.8322 80.4353 83.6978 77.2488C86.167 74.5933 88.2295 71.6115 89.8227 68.3938C89.917 68.1918 90.0076 67.9886 90.0946 67.7842C90.1336 67.6938 90.3123 67.3044 90.1422 67.6726C90.3921 67.1323 90.6299 66.5874 90.8463 66.0341C91.3775 64.717 91.8019 63.3622 92.1157 61.9819C92.5004 60.2119 89.68 59.4572 89.2935 61.2332Z" fill="#211715"/>
<path d="M32.2299 61.6701C33.1754 65.7988 34.8962 69.7264 37.3073 73.2594C39.8961 77.0209 43.2993 80.5492 47.4281 82.7633C49.5268 83.8943 51.8188 84.6539 54.1956 85.0061C54.5694 85.0936 54.9637 85.0405 55.2981 84.8576C55.6326 84.6747 55.882 84.3758 55.9954 84.0218C56.0958 83.6615 56.0449 83.2775 55.8537 82.9531C55.6624 82.6287 55.3463 82.3898 54.9736 82.2882C46.5045 81.0502 40.1936 73.9852 36.969 66.7336C36.1446 64.8569 35.5031 62.9105 35.0527 60.9195C34.6436 59.1495 31.8214 59.8983 32.2305 61.6689L32.2299 61.6701Z" fill="#211715"/>
<path d="M56.8167 70.2766C58.5556 71.15 60.4943 71.5888 62.455 71.5528C64.4862 71.6426 66.4907 71.0798 68.1538 69.953C68.4263 69.6877 68.5791 69.3296 68.5791 68.9564C68.5791 68.5832 68.4263 68.2251 68.1538 67.9598C67.8747 67.7041 67.5043 67.5615 67.1191 67.5615C66.734 67.5615 66.3636 67.7041 66.0845 67.9598C66.5296 67.628 66.1821 67.8817 66.068 67.951C65.954 68.0203 65.8376 68.0849 65.7181 68.1448C65.6571 68.1753 65.5931 68.2035 65.5309 68.2335C65.2944 68.3509 65.5882 68.2206 65.5882 68.2141C65.4343 68.2861 65.2729 68.342 65.1066 68.3809C64.6665 68.5153 64.2153 68.6135 63.7579 68.6745C63.9738 68.6457 63.7153 68.6745 63.6287 68.6833C63.4962 68.6959 63.3639 68.7058 63.2318 68.7133C62.9129 68.7321 62.5934 68.7385 62.274 68.7356C61.9874 68.7327 61.7021 68.7227 61.4168 68.7027C61.2857 68.6933 61.1546 68.6816 61.0241 68.6698C60.5443 68.6275 61.2826 68.7209 60.8339 68.6475C60.409 68.5822 59.9889 68.4908 59.5761 68.3738C59.3999 68.3222 59.2286 68.2611 59.0548 68.2029C58.6811 68.0773 59.2688 68.3098 58.9329 68.1548C58.7177 68.0555 58.5061 67.9528 58.2945 67.8447C58.1286 67.7513 57.9452 67.6902 57.7548 67.6651C57.5643 67.6399 57.3706 67.6511 57.1847 67.6981C56.9988 67.745 56.8243 67.8268 56.6712 67.9387C56.5181 68.0506 56.3893 68.1905 56.2923 68.3503C56.1953 68.5102 56.132 68.6869 56.1059 68.8703C56.0797 69.0537 56.0914 69.2403 56.1401 69.4194C56.1889 69.5985 56.2738 69.7665 56.39 69.914C56.5061 70.0615 56.6513 70.1855 56.8173 70.279L56.8167 70.2766Z" fill="#211715"/>
<path d="M61.7655 57.491C62.0209 58.3961 62.2244 59.314 62.3751 60.2406L62.3227 59.866C62.341 59.9915 62.3441 60.1186 62.3319 60.2448L62.3843 59.8701C62.3753 59.928 62.3606 59.9851 62.3404 60.0404L62.4879 59.7039C62.4711 59.742 62.4507 59.7786 62.427 59.8131L62.6556 59.5283C62.6279 59.5608 62.5966 59.5903 62.5623 59.6164L62.858 59.3955C62.7856 59.439 62.71 59.4773 62.6318 59.5101L62.9812 59.3679C62.859 59.4178 62.7311 59.4533 62.6001 59.4737L62.9891 59.4231C62.8704 59.4366 62.7505 59.4366 62.6318 59.4231L63.0208 59.4737C62.8861 59.4549 62.7538 59.4226 62.6196 59.4049C62.2382 59.3188 61.8373 59.3693 61.4917 59.5471C61.1567 59.7357 60.9132 60.0448 60.8147 60.4064C60.7163 60.7679 60.771 61.1524 60.9668 61.4751C61.0597 61.6341 61.185 61.7732 61.3353 61.8843C61.4855 61.9953 61.6576 62.0759 61.8411 62.1211C62.1459 62.1622 62.4453 62.2386 62.7556 62.2515C63.2252 62.255 63.6888 62.1497 64.1073 61.9443C64.3719 61.8288 64.6063 61.6578 64.7936 61.4438C64.9808 61.2298 65.1161 60.9783 65.1895 60.7075C65.2859 60.2674 65.282 59.8123 65.1779 59.3738C65.0267 58.4882 64.8176 57.612 64.5847 56.7416C64.5336 56.5632 64.4465 56.3962 64.3284 56.2501C64.2103 56.1041 64.0635 55.9819 63.8964 55.8905C63.7293 55.7991 63.5451 55.7403 63.3544 55.7174C63.1636 55.6946 62.9701 55.7082 62.7849 55.7574C62.5996 55.8066 62.4262 55.8904 62.2746 56.0042C62.123 56.118 61.9961 56.2594 61.9012 56.4203C61.8063 56.5813 61.7453 56.7587 61.7216 56.9424C61.6979 57.1261 61.7119 57.3126 61.763 57.491H61.7655Z" fill="#211715"/>
<path d="M46.7166 49.6491C46.2343 51.1385 46.5337 54.5687 49.4601 54.8718C53.3353 54.8641 53.5585 50.7186 52.2617 48.7641C51.202 47.1638 48.064 46.4884 46.7166 49.6491Z" fill="#211715"/>
<path d="M77.7502 49.7654C78.2203 51.2582 77.8965 54.6868 74.9633 54.9675C71.0876 54.9305 70.898 50.7831 72.2106 48.8387C73.2843 47.2472 76.4284 46.5947 77.7502 49.7654Z" fill="#211715"/>
<path d="M92.0682 48.0741C92.7233 47.5467 93.5672 47.2882 94.4183 47.3541C95.2693 47.42 96.0595 47.8051 96.6189 48.4264C96.417 48.1786 96.6548 48.494 96.6877 48.5503C96.7731 48.696 96.8646 48.8375 96.9365 48.9908C97.1231 49.4186 97.2605 49.8649 97.3462 50.3216C97.5407 51.3426 97.5901 52.3844 97.4931 53.4183C97.322 55.2313 96.7665 56.9913 95.861 58.5892C94.9495 60.2553 93.1845 62.6491 90.9091 62.3407C90.5355 62.2538 90.1414 62.3072 89.8071 62.49C89.4728 62.6728 89.2233 62.9714 89.1093 63.325C89.0088 63.6854 89.0596 64.0695 89.2509 64.3941C89.4421 64.7187 89.7584 64.9576 90.1312 65.0592C95.38 65.7693 98.4552 60.7997 99.8301 56.6365C100.503 54.4803 100.645 52.2029 100.246 49.9845C100.144 49.0912 99.8515 48.2278 99.3867 47.4486C98.9219 46.6694 98.2949 45.9912 97.545 45.4566C96.3866 44.7596 95.0247 44.4436 93.6639 44.5561C92.3032 44.6685 91.017 45.2034 89.9989 46.0802C88.5966 47.2947 90.6695 49.2833 92.0682 48.0741Z" fill="#211715"/>
<path d="M34.5467 45.8653C33.6194 45.0631 32.4675 44.5415 31.2345 44.3656C30.0016 44.1897 28.7422 44.3674 27.6133 44.8764C26.8233 45.2688 26.1329 45.8242 25.5911 46.503C25.0494 47.1817 24.6696 47.9672 24.4789 48.8035C23.3455 52.7999 24.3948 57.43 26.7287 60.8608C28.3011 63.1718 30.8215 65.2895 33.8907 64.8978C34.2749 64.886 34.64 64.7337 34.9118 64.4719C35.1836 64.2101 35.3417 63.8584 35.3539 63.4883C35.3539 62.8041 34.6796 61.9778 33.8907 62.0789C31.43 62.393 29.7417 60.4057 28.6864 58.5129C27.7541 56.8909 27.1829 55.0997 27.0091 53.2533C26.9093 52.1827 26.9655 51.104 27.1762 50.0485C27.2553 49.6529 27.3699 49.2646 27.5188 48.888C27.6042 48.6927 27.7062 48.5046 27.8237 48.3254C27.8578 48.2714 28.134 47.9108 27.9237 48.1616C28.4916 47.549 29.2856 47.1744 30.1362 47.1178C30.9869 47.0612 31.8268 47.327 32.4768 47.8585C33.8663 49.0789 35.9416 47.091 34.5467 45.8653Z" fill="#211715"/>
<path d="M72.3808 24.5307C73.4325 28.3651 74.4701 32.4378 76.4577 35.9415C78.5715 39.6836 81.4798 42.9549 84.9933 45.5423C86.6902 46.8126 88.6017 47.7916 90.6439 48.4364C92.4449 48.9814 93.2156 46.2635 91.4219 45.7185C87.0053 44.3836 83.3069 40.7983 80.7249 37.2253C77.8106 33.1913 76.4913 28.4813 75.2024 23.7814C74.7213 22.0289 71.8985 22.7724 72.3808 24.5307Z" fill="#211715"/>
<path d="M72.4124 23.1424C69.8415 26.4863 66.6969 29.3831 63.1141 31.7078C61.3004 32.8737 59.3851 33.8859 57.3898 34.7329C56.4009 35.1522 55.3845 35.5228 54.3572 35.8487C54.1403 35.9288 53.9156 35.9878 53.6865 36.0249C53.6143 36.0187 53.5417 36.0187 53.4695 36.0249C53.1817 36.1306 53.4768 35.9074 53.4945 36.073C53.5061 36.1823 53.5969 36.5176 53.6445 36.3549C53.6786 36.1068 53.6935 35.8565 53.689 35.6062C53.914 33.4409 54.5163 31.319 54.795 29.1614C54.9596 27.8888 53.122 27.3843 52.2952 28.163C46.9459 33.2248 41.5111 38.2307 35.7087 42.8138C35.4368 43.0794 35.2844 43.4374 35.2844 43.8104C35.2844 44.1834 35.4368 44.5414 35.7087 44.807C35.9873 45.0637 36.3579 45.2069 36.7434 45.2069C37.1288 45.2069 37.4994 45.0637 37.778 44.807C43.581 40.2263 49.0151 35.2186 54.3663 30.1574L51.8666 29.159C51.6075 31.1664 50.9832 33.4614 50.7607 35.6038C50.6351 36.8171 50.9021 37.9036 52.0831 38.5238C53.3451 39.1862 54.8084 38.6882 56.0527 38.256C60.8531 36.592 65.2784 34.0584 69.0897 30.7917C71.2548 28.9132 73.2159 26.8274 74.9426 24.5665C75.136 24.2432 75.1894 23.8594 75.0911 23.4985C74.9929 23.1375 74.7509 22.8283 74.4177 22.6379C74.0805 22.4578 73.6843 22.4099 73.3114 22.5041C72.9384 22.5983 72.6176 22.8273 72.4155 23.1436L72.4124 23.1424Z" fill="#211715"/>
<path d="M97.7857 47.9519C97.8306 56.6486 99.1131 65.2983 101.598 73.6594C102.69 77.2118 103.869 80.8735 103.825 84.6156C103.846 86.1507 103.5 87.6698 102.812 89.055C102.125 90.4402 101.116 91.6541 99.8623 92.6025C98.5402 93.6084 96.9788 94.2813 95.3191 94.5603C93.6595 94.8393 91.9538 94.7156 90.3561 94.2005C88.5715 93.608 87.8052 96.33 89.5781 96.9184C96.5036 99.2194 104.534 94.8865 106.315 88.0805C107.364 84.0706 106.412 79.7788 105.309 75.8787C104.125 71.6908 102.842 67.5787 102.078 63.2904C101.211 58.2194 100.754 53.0911 100.712 47.9519C100.685 46.1396 97.7583 46.1314 97.7857 47.9519Z" fill="#211715"/>
<path d="M82.6802 8.5956C83.8204 9.27279 84.8671 10.0864 85.7951 11.0169C86.8517 12.0335 87.957 13.0137 88.9465 14.0919C90.8759 16.2657 92.4756 18.692 93.6978 21.2984C95.0095 24.0187 96.0003 26.8721 96.6518 29.8051C97.1731 32.3083 97.4852 34.8478 97.5852 37.3991C97.7858 40.9099 97.8986 44.4318 97.7858 47.9472C97.7248 49.7619 100.651 49.7595 100.712 47.9472C100.818 44.6679 100.724 41.3838 100.551 38.108C100.456 35.3426 100.154 32.5874 99.6471 29.8638C98.4016 23.7732 95.7994 17.7483 91.7249 12.9044C90.5578 11.6002 89.3215 10.3549 88.021 9.17348C86.8701 8.01609 85.572 7.00344 84.1575 6.15958C82.5351 5.22993 81.0615 7.66595 82.6802 8.59384V8.5956Z" fill="#211715"/>
<path d="M78.7484 3.60371C72.9223 1.32841 66.6571 0.283818 60.3761 0.540477C53.8786 0.884564 47.5542 2.68475 41.9062 5.79777C37.7605 7.96667 34.1533 10.9772 31.3343 14.621C28.4363 18.5923 26.3098 23.0369 25.0582 27.739C23.1541 34.4474 22.6097 41.4871 22.8377 48.4182C22.8986 50.2276 25.8251 50.2358 25.7642 48.4182C25.4191 37.9318 26.7549 26.6003 32.7682 17.5797C35.0687 14.1639 38.1359 11.289 41.7434 9.16698C46.6991 6.13828 52.2936 4.21226 58.1196 3.52913C64.8746 2.86984 71.694 3.83016 77.9704 6.32456C78.3445 6.42141 78.7431 6.37242 79.08 6.18819C79.4169 6.00397 79.6648 5.69934 79.7702 5.34028C79.864 4.98019 79.8102 4.59912 79.6199 4.27627C79.4296 3.95342 79.1175 3.7136 78.7484 3.60665V3.60371Z" fill="#211715"/>
<path d="M22.8389 48.4182C22.8359 53.2779 22.6834 58.1447 22.217 62.9856C21.9612 66.1869 21.4372 69.363 20.6501 72.483C19.5524 76.4435 18.8897 80.5041 18.6729 84.5979C18.6093 86.2094 18.8938 87.8161 19.5084 89.3162C20.1229 90.8163 21.0542 92.1772 22.2432 93.3125C25.5703 96.6071 30.2655 97.7758 34.9028 97.0711C35.2754 96.9694 35.5916 96.7306 35.7828 96.4061C35.9741 96.0817 36.025 95.6978 35.9246 95.3374C35.8136 94.9819 35.5646 94.6812 35.2295 94.4978C34.8943 94.3144 34.4987 94.2624 34.1248 94.3526C32.4156 94.6328 30.6621 94.5265 29.0028 94.0421C27.3435 93.5577 25.8238 92.7084 24.5637 91.5613C23.5531 90.6164 22.7415 89.4923 22.1737 88.2508C21.9185 87.6427 21.7333 87.0096 21.6214 86.3627C21.5811 86.1319 21.6116 86.4326 21.5964 86.1237C21.5884 85.9675 21.5756 85.8124 21.5732 85.6538C21.5671 85.2363 21.5878 84.817 21.6092 84.4006C21.8396 80.6057 22.4694 76.8431 23.4888 73.1707C24.2556 70.0955 24.7802 66.969 25.0582 63.8177C25.5935 58.7032 25.7605 53.5563 25.7636 48.4182C25.7636 46.6041 22.8371 46.6012 22.8371 48.4182H22.8389Z" fill="#211715"/>
<path d="M47.7384 82.536C47.7341 83.2531 47.7238 83.9689 47.6774 84.6848C47.6848 85.5487 47.5515 86.4084 47.2824 87.2324C46.6269 88.8251 45.143 89.699 43.5907 90.4302C41.6513 91.3416 39.5503 92.0052 37.5408 92.7669C37.173 92.8757 36.8623 93.1159 36.6723 93.4382C36.4823 93.7605 36.4275 94.1406 36.5189 94.5006C36.6243 94.8596 36.8723 95.1643 37.2091 95.3486C37.5459 95.533 37.9446 95.5821 38.3187 95.4854C40.7325 94.5699 43.281 93.79 45.571 92.6178C46.5405 92.1384 47.4406 91.5386 48.2481 90.8336C49.0387 90.076 49.6471 89.1604 50.0302 88.1515C50.7393 86.4367 50.6527 84.3607 50.6631 82.536C50.6728 80.7213 47.7463 80.7195 47.7366 82.536H47.7384Z" fill="#211715"/>
<path d="M74.4835 82.536C74.4933 84.3607 74.4067 86.4367 75.1164 88.1515C75.4992 89.1605 76.1076 90.0762 76.8985 90.8336C77.706 91.5386 78.6061 92.1384 79.5756 92.6178C81.865 93.7923 84.4141 94.5699 86.8279 95.4854C87.202 95.5821 87.6007 95.533 87.9375 95.3486C88.2743 95.1643 88.5223 94.8596 88.6277 94.5006C88.7218 94.1405 88.6681 93.7593 88.4777 93.4363C88.2874 93.1134 87.9751 92.8736 87.6058 92.7669C85.5939 92.0035 83.4953 91.3416 81.5559 90.4302C80.0085 89.7025 78.5117 88.8245 77.8643 87.2324C77.5964 86.408 77.463 85.5486 77.4686 84.6848C77.4247 83.969 77.4143 83.2531 77.4076 82.536C77.3978 80.7225 74.4713 80.7184 74.4811 82.536H74.4835Z" fill="#211715"/>
<path d="M25.9635 98.4576C29.7521 96.5719 34.4137 94.6486 37.503 93.4728C43.3895 97.6372 53.6396 99.9728 62.2563 100.162C70.6169 99.9804 80.4713 97.7782 86.4499 93.8587L86.8157 93.9961C92.6739 95.9837 98.3394 98.4635 103.747 101.407C108.182 103.884 112.012 107.249 114.979 111.276C117.511 114.899 119.579 118.803 121.137 122.904C123.525 129.738 125.136 147.217 125.94 156.809C126.269 160.731 126.52 164.653 126.52 168.588C126.52 173.724 125.202 180.69 118.341 184.024C114.898 185.698 109.822 185.29 106.227 184.327C104.189 183.765 102.217 182.998 100.345 182.037C100.345 183.479 100.335 184.923 100.297 186.304C100.309 186.409 100.295 186.514 100.256 186.613C100.218 186.711 100.155 186.799 100.075 186.87C99.9943 186.941 99.8975 186.992 99.7924 187.021C99.6872 187.049 99.5767 187.053 99.4697 187.032C93.2716 187.032 27.9309 187.106 24.9862 187.091C24.8525 187.1 24.7187 187.075 24.5986 187.018C24.4784 186.961 24.3763 186.874 24.3027 186.766C24.2286 186.478 24.1944 186.182 24.2009 185.885C21.7267 186.641 19.1121 186.874 16.5359 186.567C6.27609 185.375 3.42886 176.532 2.80759 174.216C1.16144 168.083 1.15595 160.147 2.11011 150.573C2.92508 141.418 4.62598 132.356 7.19062 123.506C9.73241 114.364 13.813 105.85 22.0718 100.602C23.3304 99.8242 24.6293 99.1084 25.9635 98.4576Z" fill="#F8B8B4"/>
<path d="M37.4561 95.1689C43.078 98.7654 50.0345 100.382 56.6502 101.172C60.0444 101.591 63.4777 101.627 66.8807 101.282C70.4245 100.933 73.9282 100.275 77.3484 99.3162C80.8539 98.3866 84.191 96.9456 87.2437 95.0432C88.7935 94.0307 87.3308 91.5871 85.7664 92.6089C80.5658 96.0058 74.0415 97.619 67.8733 98.3525C64.6438 98.7538 61.3779 98.8074 58.136 98.5122C54.8519 98.2016 51.6034 97.607 48.4298 96.7357C45.0693 95.8811 41.866 94.5315 38.9333 92.7346C37.3597 91.728 35.8928 94.1687 37.4561 95.1689Z" fill="#211715"/>
<path d="M98.8869 180.704C98.8869 182.251 98.8869 183.798 98.8588 185.343C98.8007 185.66 98.7935 185.983 98.8375 186.301C99.2362 187.02 99.1064 185.486 99.4734 185.619C99.4563 185.613 99.4325 185.624 99.4124 185.619C99.3097 185.608 99.206 185.608 99.1033 185.619H97.4754L91.9364 185.624L74.4238 185.641L53.5116 185.661C47.368 185.666 41.2246 185.671 35.0814 185.676C31.8195 185.676 28.5577 185.686 25.2959 185.676C25.2334 185.671 25.1706 185.671 25.1081 185.676C24.8691 185.716 25.0807 185.471 25.3416 185.763L25.7178 186.385C25.6093 186.122 25.7178 186.651 25.6782 186.218C25.6684 186.105 25.6721 185.991 25.6702 185.878C25.6428 184.065 22.7163 184.06 22.7437 185.878C22.7301 186.302 22.7812 186.725 22.8955 187.135C23.0568 187.541 23.3446 187.89 23.7196 188.134C24.0946 188.377 24.5384 188.503 24.9904 188.494C25.1124 188.499 25.2343 188.494 25.352 188.494C25.8353 188.494 26.3191 188.494 26.8036 188.494H32.2475C38.2367 188.491 44.2254 188.486 50.2138 188.48L71.9966 188.459C78.2646 188.454 84.5332 188.448 90.8024 188.442C92.8628 188.44 94.9231 188.438 96.9834 188.437H98.8619C99.0649 188.437 99.2716 188.448 99.4715 188.437C99.8151 188.439 100.155 188.37 100.469 188.235C100.783 188.1 101.063 187.902 101.29 187.654C101.696 187.001 101.868 186.237 101.781 185.481C101.812 183.888 101.812 182.295 101.812 180.703C101.812 178.889 98.885 178.886 98.885 180.703L98.8869 180.704Z" fill="#211715"/>
<path d="M84.9293 94.7925C93.3168 97.9415 102.352 100.959 109.095 106.946C112.182 109.769 114.747 113.079 116.68 116.732C118.511 119.926 119.874 123.35 120.727 126.905C122.462 134.575 123.172 142.486 123.904 150.292C124.313 154.658 124.721 159.03 124.928 163.41C125.12 167.442 125.34 171.483 124.075 175.319C122.96 178.704 120.417 181.914 116.831 183.118C112.74 184.492 108.03 183.593 104.095 182.152C103.059 181.779 102.053 181.333 101.085 180.818C99.4386 179.932 97.962 182.366 99.6081 183.253C103.78 185.532 108.517 186.673 113.311 186.554C115.768 186.5 118.167 185.824 120.267 184.594C122.168 183.442 123.78 181.9 124.989 180.077C127.09 176.918 127.872 173.08 127.973 169.377C128.11 164.311 127.619 159.223 127.18 154.18C126.448 145.782 125.671 137.342 124.135 129.041C123.542 125.532 122.494 122.108 121.016 118.85C119.195 114.77 116.763 110.968 113.797 107.566C106.941 99.9746 96.7365 96.0657 87.1882 92.6307C86.6919 92.4545 86.1999 92.2596 85.7061 92.0746C85.332 91.9779 84.9334 92.0269 84.5966 92.2111C84.2598 92.3953 84.0118 92.6999 83.9063 93.0588C83.812 93.419 83.8656 93.8002 84.056 94.1232C84.2464 94.4462 84.5588 94.6859 84.9281 94.7925H84.9293Z" fill="#211715"/>
<path d="M62.7989 86.7313L45.8643 152.156L100.564 165.293L117.498 99.8681L62.7989 86.7313Z" fill="white"/>
<path d="M62.1917 89.0777L45.8643 152.156L52.1007 153.653C56.8837 135.174 66.604 97.6196 69.0348 88.2308L62.7977 86.7315L62.1917 89.0777Z" fill="#227DEE"/>
<path d="M53.6329 153.558C56.0001 144.413 58.3673 135.267 60.7345 126.121C63.1326 116.851 65.5322 107.58 67.9331 98.3091C68.7708 95.074 69.6083 91.8389 70.4456 88.6037C70.9011 86.8419 68.0794 86.092 67.6234 87.8544C65.8309 94.7807 64.0382 101.707 62.2453 108.633C59.6847 118.52 57.1256 128.405 54.5682 138.291C53.3159 143.13 52.0634 147.969 50.8107 152.808C50.3552 154.57 53.1769 155.32 53.6329 153.558Z" fill="#211715"/>
<path d="M61.2406 86.9265L59.8249 92.3952L56.3649 105.762L51.9825 122.694L47.8567 138.633L45.1131 149.238C44.9473 149.88 44.7516 150.521 44.6138 151.17C44.4748 151.692 44.5538 152.246 44.8339 152.713C45.1141 153.18 45.5731 153.523 46.1124 153.667C46.3618 153.743 46.6239 153.79 46.8776 153.851L57.33 156.363L74.3769 160.457L90.7451 164.388C93.6247 165.08 96.4963 165.837 99.3917 166.465C99.6983 166.546 100.019 166.563 100.333 166.517C100.647 166.47 100.948 166.36 101.215 166.194C101.482 166.029 101.71 165.81 101.884 165.554C102.058 165.298 102.173 165.009 102.224 164.707L102.952 161.893L106.012 150.074L110.279 133.597L114.571 117.018L117.765 104.679L118.597 101.46C118.65 101.26 118.711 101.059 118.754 100.856C118.893 100.332 118.813 99.7776 118.532 99.3104C118.251 98.8432 117.791 98.5008 117.251 98.3567C114.727 97.5967 112.075 97.1134 109.511 96.4979L93.4155 92.6331L76.2315 88.5063L64.984 85.8048C63.7098 85.4988 62.0832 85.0255 61.3869 86.5912C61.2037 86.9166 61.156 87.2971 61.2536 87.6552C61.3511 88.0133 61.5864 88.3222 61.9118 88.5192C62.2476 88.7053 62.6459 88.7566 63.0206 88.662C63.3953 88.5674 63.7163 88.3344 63.914 88.0135C63.8165 88.232 62.6947 88.0541 63.1215 88.2625C63.2354 88.3022 63.3533 88.3305 63.4732 88.3471L64.7877 88.6631L69.5853 89.8147L84.8318 93.4764L101.981 97.5955L114.274 100.548L115.787 100.911C116.009 101.003 116.245 101.06 116.487 101.079C116.068 101.176 116.157 99.5835 115.883 100.282C115.788 100.578 115.71 100.88 115.65 101.185L113.263 110.405L109.361 125.486L105.025 142.24L101.34 156.476L99.3886 164.006C99.3552 164.088 99.3328 164.175 99.3222 164.263C99.3612 164.752 100.126 163.544 100.359 163.793C100.289 163.718 99.9538 163.696 99.8569 163.675L96.3548 162.834L82.6125 159.528L65.3035 155.371L51.232 151.991L47.5226 151.101C47.3106 151.026 47.0909 150.973 46.8672 150.944C47.8695 150.95 47.2397 152.486 47.4897 151.714C48.2488 149.368 48.7347 146.904 49.3517 144.52L52.9879 130.464L57.3197 113.727L61.2595 98.5058L63.7226 88.9884L64.0628 87.6759C64.5182 85.9152 61.6966 85.1647 61.2406 86.9265Z" fill="#211715"/>
<path d="M97.0718 136.7L68.6671 129.877C66.8381 129.438 66.0601 132.156 67.8892 132.595L96.2939 139.417C98.1229 139.856 98.9015 137.138 97.0718 136.699V136.7Z" fill="#211715"/>
<path d="M99.5423 126.001L71.2485 119.206L75.6578 102.175L103.951 108.97L99.5423 126.001Z" fill="#227DEE"/>
<path d="M99.9313 124.642L71.6382 117.847L72.6606 119.581L76.5132 104.697L77.0692 102.547L75.2695 103.532L103.563 110.327L102.541 108.593L98.6875 123.476L98.1315 125.625C97.6754 127.387 100.497 128.137 100.953 126.375L104.805 111.495L105.362 109.345C105.459 108.985 105.406 108.602 105.216 108.279C105.025 107.955 104.711 107.716 104.34 107.611L76.0462 100.817C75.6722 100.723 75.275 100.773 74.9389 100.957C74.6028 101.141 74.3544 101.444 74.2464 101.801L70.3938 116.685L69.8371 118.834C69.7399 119.195 69.7922 119.577 69.983 119.901C70.1737 120.225 70.488 120.464 70.859 120.568L99.1527 127.363C100.981 127.799 101.761 125.081 99.9313 124.642Z" fill="#211715"/>
<path d="M37.2183 92.0745C32.8337 93.6994 28.5497 95.5657 24.3875 97.6642C20.1757 99.7899 16.498 102.778 13.6125 106.418C10.7332 110.235 8.52157 114.481 7.06508 118.986C5.51557 123.632 4.24792 128.361 3.26857 133.149C2.20344 138.086 1.46085 143.081 0.906032 148.094C0.217375 153.578 -0.069278 159.102 0.0482033 164.624C0.281713 171.077 1.29318 177.937 5.96216 182.906C8.8239 185.865 12.7303 187.686 16.9146 188.013C22.1579 188.519 27.1451 186.733 31.4769 184.006C32.6237 183.284 33.7285 182.504 34.8125 181.698C35.1381 181.501 35.3735 181.192 35.471 180.834C35.5685 180.475 35.5208 180.095 35.3375 179.77C35.1399 179.448 34.819 179.215 34.4442 179.121C34.0694 179.026 33.6709 179.077 33.3353 179.264C29.5387 182.089 25.2264 184.806 20.3172 185.219C16.3591 185.552 12.1932 184.573 9.24837 182.071C8.11163 181.119 7.13941 180 6.36821 178.754C6.01732 178.201 5.69659 177.63 5.40735 177.045C5.34516 176.919 5.28419 176.793 5.22444 176.665C5.18603 176.582 5.00495 176.172 5.13604 176.478C5.03117 176.234 4.93098 175.987 4.83546 175.739C3.82849 172.886 3.24335 169.91 3.09725 166.899C2.79414 161.789 2.92055 156.663 3.47525 151.571C3.94044 146.605 4.5672 141.651 5.50855 136.746C6.38894 132.157 7.52052 127.604 8.81915 123.108C9.98447 118.772 11.7605 114.61 14.0978 110.738C16.3842 107.005 19.5468 103.839 23.3321 101.496C27.1571 99.3056 31.1595 97.4168 35.3003 95.8478C36.1945 95.4864 37.0925 95.134 37.9945 94.7907C38.3627 94.6827 38.674 94.4431 38.8647 94.1211C39.0554 93.7991 39.1109 93.419 39.02 93.0588C38.9147 92.6996 38.6668 92.3949 38.3299 92.2107C37.993 92.0264 37.5943 91.9775 37.2202 92.0745H37.2183Z" fill="#211715"/>
<path d="M19.0223 161.339C22.3566 158.959 25.8507 156.791 29.1833 154.413C29.5098 154.217 29.746 153.908 29.8436 153.549C29.9412 153.191 29.8928 152.81 29.7082 152.485C29.5105 152.164 29.1896 151.931 28.8151 151.837C28.4405 151.742 28.0423 151.793 27.7066 151.979C24.3704 154.357 20.8781 156.525 17.545 158.905C17.2186 159.101 16.9825 159.41 16.8849 159.769C16.7873 160.127 16.8357 160.508 17.02 160.833C17.2179 161.154 17.5389 161.387 17.9135 161.482C18.2882 161.576 18.6865 161.525 19.0223 161.339Z" fill="#211715"/>
<path d="M21.9451 124.408C23.263 130.834 24.9586 137.183 27.0238 143.424C27.6158 145.137 30.4429 144.403 29.8454 142.675C27.7804 136.433 26.085 130.084 24.7673 123.658C24.3789 121.884 21.5573 122.635 21.9451 124.408Z" fill="#211715"/>
<path d="M101.125 142.386C99.4999 141.918 97.785 141.816 96.1122 142.086C94.602 142.435 93.4845 143.907 94.0393 145.305C94.4596 146.108 95.1347 146.762 95.9665 147.17C99.2749 149.2 102.79 150.898 106.457 152.238C102.209 151.686 97.9604 151.135 93.7113 150.586C92.8193 150.43 91.9089 150.395 91.0067 150.482C90.5555 150.529 90.1194 150.666 89.7263 150.884C89.3331 151.102 88.9916 151.397 88.7234 151.75C88.426 152.285 88.2868 152.889 88.3212 153.496C88.3557 154.102 88.5623 154.688 88.9186 155.189C89.3382 155.729 89.8993 156.153 90.5446 156.417L89.5154 156.562C88.8174 156.68 88.187 157.037 87.7405 157.567C87.2941 158.097 87.0615 158.765 87.0858 159.447C87.1048 160.093 87.3076 160.721 87.6722 161.263C88.0368 161.805 88.5492 162.241 89.1533 162.521C90.1017 162.976 91.107 163.312 92.1444 163.52C91.6896 164.011 91.4006 164.325 91.4006 164.325C91.0245 164.799 90.8075 165.372 90.7786 165.967C90.7498 166.563 90.9104 167.152 91.239 167.658C92.7632 170.169 97.303 170.778 100.573 171.229C102.777 171.546 105.026 171.364 107.144 170.697C110.477 169.618 112.57 168.303 114.45 164.883C115.725 162.564 116.086 159.95 116.129 157.19C116.128 155.165 115.766 153.155 115.056 151.248C114.515 149.879 113.578 148.687 112.357 147.813C111.478 147.18 110.442 146.493 109.314 145.817C106.778 144.285 104.017 143.129 101.125 142.386Z" fill="white"/>
<path d="M105.198 150.25C102.379 149.098 99.6586 147.734 97.0614 146.171C96.4188 145.783 94.9763 145.092 95.4464 144.183C95.8024 143.494 96.7151 143.371 97.2754 143.343C99.5252 143.233 101.805 143.94 103.872 144.725C106.377 145.715 108.748 146.997 110.929 148.542C111.956 149.197 112.804 150.081 113.402 151.118C113.962 152.268 114.327 153.497 114.484 154.759C114.881 157.236 114.718 159.767 114.008 162.179C113.409 164.308 112.142 166.208 110.381 167.619C108.557 168.896 106.412 169.685 104.168 169.903C101.424 170.082 98.6693 169.768 96.0445 168.977C94.9776 168.739 93.9765 168.283 93.1095 167.638C92.5607 167.174 91.8096 166.077 92.4388 165.327C92.7029 165.057 92.85 164.701 92.85 164.33C92.85 163.959 92.7029 163.603 92.4388 163.333C92.163 163.072 91.7913 162.925 91.4042 162.925C91.017 162.925 90.6453 163.072 90.3695 163.333C88.2149 165.917 89.7476 169.155 92.4729 170.619C94.8117 171.877 97.5742 172.243 100.188 172.593C103.503 173.045 106.883 172.545 109.906 171.157C112.355 170.015 114.353 168.137 115.6 165.808C117.122 162.903 117.807 159.658 117.582 156.411C117.439 153.285 116.66 149.855 114.297 147.569C113.075 146.487 111.733 145.538 110.296 144.74C108.968 143.93 107.58 143.217 106.143 142.606C103.474 141.472 100.51 140.461 97.5504 140.515C95.9829 140.543 94.4215 140.935 93.3869 142.147C92.79 142.819 92.4638 143.675 92.468 144.559C92.4721 145.443 92.8063 146.297 93.4094 146.963C94.5904 148.326 96.5603 149.209 98.1436 150.059C99.9554 151.028 101.819 151.904 103.727 152.684C104.065 152.86 104.46 152.906 104.832 152.812C105.204 152.718 105.524 152.492 105.729 152.178C105.922 151.855 105.975 151.471 105.877 151.11C105.779 150.749 105.537 150.44 105.204 150.25L105.198 150.25Z" fill="#211715"/>
<path d="M105.398 150.69C101.567 150.194 97.7355 149.698 93.9039 149.202C92.1669 148.977 90.336 148.841 88.7825 149.784C88.1149 150.195 87.5817 150.779 87.2446 151.469C86.9075 152.159 86.7803 152.927 86.8778 153.685C87.1699 156.417 89.5062 157.795 92.0528 158.445C93.8606 158.907 95.6957 159.28 97.5211 159.671C99.3831 160.07 101.247 160.461 103.113 160.845C104.949 161.225 105.734 158.508 103.891 158.127C100.748 157.477 97.604 156.824 94.4751 156.114C93.1789 155.82 91.5261 155.581 90.4695 154.748C89.8531 154.262 89.4733 153.137 89.9872 152.458C90.7006 151.518 92.4516 151.835 93.4417 151.957C97.1712 152.418 100.896 152.922 104.622 153.404C104.996 153.491 105.39 153.437 105.724 153.255C106.058 153.072 106.308 152.774 106.422 152.42C106.522 152.06 106.472 151.676 106.28 151.351C106.089 151.027 105.773 150.788 105.4 150.686L105.398 150.69Z" fill="#211715"/>
<path d="M89.1246 155.203C88.1378 155.406 87.2526 155.928 86.6154 156.681C85.9783 157.435 85.6273 158.376 85.6207 159.348C85.6362 160.305 85.9331 161.239 86.4769 162.04C87.0208 162.842 87.7894 163.478 88.6935 163.876C91.3792 165.136 94.577 165.414 97.4913 165.935C98.7345 166.157 99.977 166.386 101.223 166.596C101.597 166.684 101.992 166.632 102.327 166.449C102.661 166.266 102.911 165.966 103.023 165.611C103.122 165.251 103.071 164.868 102.879 164.544C102.688 164.221 102.373 163.982 102.001 163.88C99.4582 163.453 96.9249 162.976 94.3874 162.527C92.7656 162.239 90.6427 162.024 89.3362 160.961C88.2021 160.039 88.2729 158.218 89.9019 157.924C90.2742 157.822 90.5899 157.583 90.7811 157.259C90.9723 156.934 91.0238 156.551 90.9244 156.19C90.8141 155.834 90.5652 155.533 90.2297 155.35C89.8941 155.166 89.4979 155.115 89.124 155.206L89.1246 155.203Z" fill="#211715"/>
<path d="M40.5015 136.582C41.4153 135.467 42.5306 134.519 43.7938 133.786C47.0347 132.22 50.5886 131.348 54.2121 131.228C55.5132 131.129 56.8151 131.407 57.9519 132.024C58.425 132.292 58.793 132.703 58.9988 133.193C59.2046 133.683 59.2367 134.225 59.0902 134.734C58.9843 135.101 58.7816 135.435 58.5019 135.703C58.2221 135.972 57.8749 136.166 57.4941 136.267C56.6546 136.481 55.827 136.736 55.0145 137.031C53.0031 137.663 51.0675 138.5 49.2407 139.528L48.8676 141.813C51.515 142.232 54.1379 142.783 56.7259 143.464C58.1587 143.814 59.5412 144.334 60.8419 145.01C61.7505 145.377 62.5095 146.02 63.0026 146.842C63.3403 147.436 63.4764 148.117 63.3916 148.789C63.35 149.183 63.1974 149.559 62.9503 149.875C62.7031 150.192 62.3708 150.438 61.9893 150.585C61.1499 150.964 60.2023 151.059 59.3 150.854C58.547 150.69 57.7891 150.511 57.0246 150.329C59.2152 151.379 59.3603 152.179 59.7523 153.379C59.9405 154.064 59.8392 154.792 59.4707 155.405C59.0793 155.822 58.5802 156.13 58.0244 156.3C57.4687 156.47 56.876 156.495 56.307 156.372C55.3925 156.148 54.5359 155.948 53.6732 155.767L54.6865 156.465C56.5112 157.722 56.043 160.64 54.4779 161.125C53.2055 161.519 51.1174 161.173 48.8902 161.008C48.6554 163.991 45.5942 166.917 44.5193 167.504C43.1706 168.221 41.6748 168.644 40.1375 168.743C36.7537 168.685 33.9443 166.441 32.0695 163.733C31.5006 162.767 31.1824 161.684 31.1421 160.574C31.1017 159.465 31.3404 158.363 31.8378 157.361C33.3465 154.649 34.5143 151.774 35.3167 148.795C36.2111 145.364 38.3426 139.105 40.4991 136.58" fill="white"/>
<path d="M44.5327 135.003C46.8123 133.939 49.2412 133.203 51.7422 132.817C52.8831 132.647 54.0395 132.595 55.1918 132.662C55.9972 132.713 57.169 132.888 57.5977 133.647C57.6665 133.758 57.7084 133.883 57.7203 134.012C57.7323 134.141 57.7139 134.271 57.6666 134.392C57.6193 134.514 57.5442 134.623 57.447 134.713C57.3498 134.802 57.2329 134.87 57.105 134.91C56.0686 135.275 54.9882 135.543 53.9481 135.913C52.0686 136.57 50.2472 137.372 48.5017 138.311C46.8617 139.203 48.3347 141.639 49.979 140.745C51.5329 139.9 53.1568 139.18 54.8339 138.593C55.8058 138.247 56.7782 137.924 57.7757 137.653C58.3225 137.518 58.8314 137.268 59.2653 136.92C59.6993 136.573 60.0474 136.136 60.2845 135.643C61.293 133.503 60.0114 131.28 57.8824 130.403C55.7534 129.526 53.2006 129.763 50.9643 130.097C48.2182 130.549 45.5543 131.381 43.0554 132.567C42.7228 132.758 42.4814 133.067 42.3832 133.428C42.285 133.788 42.3379 134.172 42.5305 134.495C42.732 134.812 43.0529 135.042 43.426 135.136C43.7992 135.23 44.1957 135.182 44.5327 135.001V135.003Z" fill="#211715"/>
<path d="M39.4668 135.585C37.2829 138.195 36.0806 141.575 35.0161 144.727C34.4881 146.294 34.0808 147.888 33.6053 149.468C32.9665 151.611 32.1259 153.693 31.094 155.688C30.1953 157.417 29.5283 159.036 29.7094 161.018C29.9172 162.941 30.7757 164.744 32.1524 166.15C34.7131 169.032 38.5907 170.894 42.5353 169.795C44.1024 169.408 45.5448 168.651 46.7324 167.592C48.3106 166.175 49.4786 164.387 50.1217 162.403C50.6423 160.655 47.8189 159.91 47.2994 161.653C46.8348 163.055 46.0181 164.324 44.9216 165.349C44.2417 166.069 43.3707 166.597 42.4024 166.876C40.9567 167.434 39.3436 167.437 37.8956 166.884C36.497 166.289 35.2644 165.383 34.2985 164.241C33.2935 163.261 32.6932 161.961 32.6096 160.586C32.5548 158.871 33.3833 157.64 34.1113 156.135C35.0014 154.305 35.7507 152.414 36.3531 150.478C36.7945 149.047 37.1518 147.596 37.6139 146.171C38.1297 144.579 38.698 143 39.3704 141.461C39.696 140.717 40.0527 139.983 40.4478 139.271C40.6246 138.952 40.8099 138.637 41.0087 138.331C41.1916 138.046 41.4233 137.719 41.5385 137.581C41.8026 137.311 41.9497 136.955 41.9497 136.584C41.9497 136.214 41.8026 135.857 41.5385 135.588C41.2627 135.326 40.891 135.179 40.5039 135.179C40.1167 135.179 39.745 135.326 39.4692 135.588L39.4668 135.585Z" fill="#211715"/>
<path d="M48.4786 143.173C51.0058 143.568 53.5102 144.088 55.982 144.73C57.0509 144.982 58.0955 145.322 59.1042 145.746C59.9108 146.108 60.976 146.496 61.5271 147.199C61.9734 147.766 62.1844 148.764 61.6094 149.189C60.6949 149.866 59.4048 149.437 58.414 149.207C55.6906 148.573 52.9836 147.874 50.2138 147.448C49.84 147.36 49.4455 147.413 49.1109 147.596C48.7763 147.779 48.5269 148.078 48.414 148.433C48.3139 148.793 48.365 149.177 48.5562 149.501C48.7474 149.825 49.0633 150.064 49.4358 150.166C52.0306 150.566 54.5718 151.202 57.1215 151.804C58.3056 152.183 59.5488 152.362 60.7961 152.333C62.0494 152.25 63.2184 151.695 64.0494 150.788C65.609 148.921 64.8158 146.06 62.9794 144.659C61.2163 143.447 59.224 142.578 57.1148 142.103C54.5288 141.414 51.9054 140.863 49.2566 140.452C48.8827 140.364 48.488 140.417 48.1533 140.6C47.8187 140.783 47.5693 141.083 47.4562 141.437C47.3563 141.797 47.4075 142.181 47.5988 142.505C47.7901 142.83 48.1061 143.069 48.4786 143.171V143.173Z" fill="#211715"/>
<path d="M57.438 152.193C57.5415 152.272 57.6389 152.357 57.7294 152.449C57.9007 152.617 57.7636 152.446 57.8946 152.64C57.9589 152.739 58.0173 152.841 58.0696 152.946C58.1361 153.075 58.03 152.824 58.1129 153.056C58.2086 153.325 58.3086 153.598 58.3775 153.874C58.3257 153.668 58.3775 153.894 58.3775 153.995C58.3817 154.125 58.3764 154.254 58.3617 154.383C58.3915 154.18 58.2922 154.601 58.2928 154.598C58.3493 154.489 58.3541 154.476 58.3074 154.557C58.2605 154.637 58.2666 154.625 58.3263 154.523C58.1566 154.66 57.9741 154.782 57.7812 154.887C57.2875 155.076 56.7384 155.081 56.2406 154.903C53.3947 154.231 50.5107 153.72 47.6031 153.371C47.2156 153.373 46.8444 153.522 46.5704 153.786C46.2964 154.05 46.1417 154.408 46.1399 154.781C46.1493 155.152 46.3065 155.505 46.5789 155.768C46.8513 156.03 47.218 156.181 47.6031 156.19C49.3225 156.407 51.0357 156.672 52.733 157.013C54.4676 157.361 56.3546 158.134 58.1306 157.736C59.0434 157.529 59.8713 157.065 60.5084 156.402C61.0744 155.722 61.3583 154.864 61.3052 153.994C61.2712 153.159 61.0379 152.342 60.6234 151.607C60.209 150.873 59.6245 150.24 58.9153 149.758C58.5795 149.572 58.1812 149.521 57.8065 149.615C57.4319 149.71 57.1109 149.943 56.913 150.264C56.7262 150.588 56.6766 150.97 56.7743 151.329C56.8721 151.688 57.1098 151.997 57.438 152.192V152.193Z" fill="#211715"/>
<path d="M53.9512 157.683C53.6183 157.445 53.9561 157.701 54.0207 157.765C54.0646 157.808 54.1067 157.853 54.1469 157.899C54.0156 157.73 53.9953 157.706 54.0859 157.827C54.1408 157.914 54.1945 158.003 54.2505 158.09C54.4383 158.384 54.1865 157.858 54.267 158.112C54.3024 158.222 54.342 158.33 54.3694 158.444C54.3835 158.503 54.3956 158.556 54.406 158.612C54.431 158.765 54.4261 158.725 54.3896 158.495C54.3668 158.692 54.3678 158.891 54.3926 159.087C54.3816 159.341 54.4688 158.735 54.3804 159.123C54.3627 159.203 54.3414 159.281 54.3194 159.358C54.303 159.409 54.2853 159.46 54.2664 159.51C54.2107 159.649 54.2286 159.61 54.32 159.393C54.2623 159.478 54.2118 159.568 54.1688 159.662C53.9914 159.95 54.206 159.603 54.217 159.617C54.228 159.63 54.0067 159.819 54.0091 159.822C54.2121 159.678 54.253 159.645 54.131 159.73C54.0908 159.756 54.05 159.78 54.0091 159.802C53.8299 159.944 54.3621 159.716 54.0524 159.782C53.9506 159.804 53.8512 159.836 53.7476 159.856C53.3336 159.937 53.9347 159.856 53.6585 159.871C53.4086 159.886 53.1616 159.901 52.9111 159.901C52.2928 159.901 51.6758 159.849 51.0607 159.795C49.6507 159.635 48.2331 159.546 46.8136 159.527C46.4255 159.527 46.0533 159.675 45.7789 159.94C45.5045 160.204 45.3503 160.562 45.3503 160.936C45.3503 161.31 45.5045 161.669 45.7789 161.933C46.0533 162.197 46.4255 162.346 46.8136 162.346C48.0989 162.357 49.3827 162.434 50.6595 162.576C51.7181 162.72 52.7898 162.751 53.8555 162.669C54.4117 162.64 54.9534 162.487 55.4385 162.223C55.9235 161.959 56.3388 161.591 56.6521 161.148C57.1692 160.358 57.4029 159.426 57.3173 158.496C57.2689 157.855 57.0745 157.232 56.7478 156.671C56.4212 156.111 55.9703 155.626 55.4272 155.253C55.0919 155.065 54.6932 155.013 54.3182 155.108C53.9431 155.202 53.6223 155.436 53.4256 155.758C53.2406 156.083 53.192 156.464 53.2896 156.823C53.3872 157.182 53.6237 157.491 53.9506 157.687L53.9512 157.683Z" fill="#211715"/>
</g>
<defs>
<clipPath id="clip0_27_189">
<rect width="128" height="188" fill="white" transform="translate(0 0.5)"/>
</clipPath>
</defs>
</svg>
