<svg width="50" height="50" viewBox="0 0 50 50" fill="none" xmlns="http://www.w3.org/2000/svg">
<path d="M21.5479 8.20833C21.7354 7.07917 22.7146 6.25 23.8604 6.25H26.1375C27.2833 6.25 28.2625 7.07917 28.45 8.20833L28.7604 10.0708C28.9063 10.9542 29.5604 11.6625 30.3854 12.0083C31.2146 12.35 32.1667 12.3042 32.8958 11.7833L34.4313 10.6854C34.8828 10.3626 35.4343 10.2106 35.9875 10.2563C36.5407 10.3021 37.0597 10.5428 37.4521 10.9354L39.0625 12.5479C39.875 13.3583 39.9792 14.6354 39.3125 15.5687L38.2146 17.1042C37.6938 17.8333 37.6479 18.7833 37.9917 19.6125C38.3354 20.4396 39.0438 21.0917 39.9292 21.2375L41.7896 21.55C42.9208 21.7375 43.7479 22.7167 43.7479 23.8604V26.1396C43.7479 27.2854 42.9208 28.2646 41.7896 28.4521L39.9292 28.7625C39.0438 28.9083 38.3354 29.5604 37.9917 30.3875C37.6479 31.2167 37.6938 32.1667 38.2146 32.8958L39.3125 34.4333C39.9792 35.3646 39.8729 36.6417 39.0625 37.4542L37.45 39.0646C37.0578 39.4567 36.5392 39.697 35.9864 39.7428C35.4337 39.7885 34.8827 39.6368 34.4313 39.3146L32.8938 38.2167C32.1646 37.6958 31.2146 37.65 30.3875 37.9937C29.5604 38.3375 28.9083 39.0458 28.7604 39.9292L28.45 41.7917C28.2625 42.9208 27.2833 43.75 26.1375 43.75H23.8583C22.7125 43.75 21.7354 42.9208 21.5458 41.7917L21.2375 39.9292C21.0896 39.0458 20.4375 38.3375 19.6104 37.9917C18.7813 37.65 17.8313 37.6958 17.1021 38.2167L15.5646 39.3146C14.6333 39.9812 13.3563 39.875 12.5438 39.0646L10.9333 37.4521C10.5407 37.0597 10.3001 36.5407 10.2543 35.9875C10.2085 35.4343 10.3605 34.8828 10.6833 34.4312L11.7813 32.8958C12.3021 32.1667 12.35 31.2167 12.0063 30.3875C11.6625 29.5604 10.9542 28.9083 10.0688 28.7625L8.20626 28.45C7.07709 28.2625 6.24792 27.2833 6.24792 26.1396V23.8604C6.24792 22.7146 7.07709 21.7354 8.20626 21.5479L10.0688 21.2375C10.9521 21.0917 11.6625 20.4396 12.0063 19.6125C12.35 18.7833 12.3042 17.8333 11.7833 17.1042L10.6854 15.5667C10.3626 15.1151 10.2106 14.5636 10.2564 14.0104C10.3021 13.4572 10.5428 12.9382 10.9354 12.5458L12.5458 10.9354C12.9382 10.5428 13.4572 10.3021 14.0104 10.2563C14.5636 10.2106 15.1151 10.3626 15.5667 10.6854L17.1021 11.7833C17.8313 12.3042 18.7833 12.35 19.6104 12.0062C20.4375 11.6625 21.0896 10.9542 21.2354 10.0708L21.5479 8.20833Z" stroke="white" stroke-width="3" stroke-linecap="round" stroke-linejoin="round"/>
<path d="M31.25 25C31.25 26.6576 30.5915 28.2473 29.4194 29.4194C28.2473 30.5915 26.6576 31.25 25 31.25C23.3424 31.25 21.7527 30.5915 20.5806 29.4194C19.4085 28.2473 18.75 26.6576 18.75 25C18.75 23.3424 19.4085 21.7527 20.5806 20.5806C21.7527 19.4085 23.3424 18.75 25 18.75C26.6576 18.75 28.2473 19.4085 29.4194 20.5806C30.5915 21.7527 31.25 23.3424 31.25 25Z" stroke="white" stroke-width="3" stroke-linecap="round" stroke-linejoin="round"/>
</svg>
